Adelphe-Regular.ufo
<glyph name="exclam" format="2">
  <advance width="209"/>
  <unicode hex="0021"/>
  <guideline x="126" y="231"/>
  <outline>
    <contour>
      <point x="86" y="231" type="line"/>
      <point x="115" y="231" type="line"/>
      <point x="161" y="654" type="line" smooth="yes"/>
      <point x="165" y="693"/>
      <point x="134" y="714"/>
      <point x="104" y="714" type="curve" smooth="yes"/>
      <point x="74" y="714"/>
      <point x="44" y="694"/>
      <point x="47" y="656" type="curve" smooth="yes"/>
    </contour>
    <component base="period"/>
  </outline>
</glyph>
<glyph name="numbersign" format="2">
  <advance width="671"/>
  <unicode hex="0023"/>
  <outline>
    <contour>
      <point x="112" y="433" type="line"/>
      <point x="641" y="433" type="line"/>
      <point x="641" y="490" type="line"/>
      <point x="112" y="490" type="line"/>
    </contour>
    <contour>
      <point x="36" y="193" type="line"/>
      <point x="565" y="193" type="line"/>
      <point x="565" y="250" type="line"/>
      <point x="36" y="250" type="line"/>
    </contour>
    <component base="slash" xOffset="30"/>
    <component base="slash" xOffset="273"/>
  </outline>
</glyph>
<glyph name="percent" format="2">
  <advance width="621"/>
  <unicode hex="0025"/>
  <outline>
    <contour>
      <point x="67" y="31" type="line"/>
      <point x="110" y="1" type="line"/>
      <point x="549" y="673" type="line"/>
      <point x="505" y="700" type="line"/>
    </contour>
    <component base="degree" yOffset="-30"/>
    <component base="degree" xOffset="320" yOffset="-444"/>
  </outline>
</glyph>
<glyph name="ampersand" format="2">
  <advance width="734"/>
  <unicode hex="0026"/>
  <outline>
    <contour>
      <point x="240" y="-8" type="curve" smooth="yes"/>
      <point x="347" y="-8"/>
      <point x="428" y="52"/>
      <point x="509" y="158" type="curve" smooth="yes"/>
      <point x="602" y="280" type="line" smooth="yes"/>
      <point x="639" y="329"/>
      <point x="666" y="350"/>
      <point x="712" y="369" type="curve"/>
      <point x="712" y="394" type="line"/>
      <point x="509" y="394" type="line"/>
      <point x="509" y="369" type="line"/>
      <point x="563" y="361"/>
      <point x="572" y="325"/>
      <point x="537" y="280" type="curve" smooth="yes"/>
      <point x="449" y="168" type="line" smooth="yes"/>
      <point x="410" y="118"/>
      <point x="355" y="60"/>
      <point x="275" y="60" type="curve" smooth="yes"/>
      <point x="202" y="60"/>
      <point x="120" y="108"/>
      <point x="120" y="205" type="curve" smooth="yes"/>
      <point x="120" y="291"/>
      <point x="193" y="335"/>
      <point x="263" y="370" type="curve" smooth="yes"/>
      <point x="309" y="393" type="line" smooth="yes"/>
      <point x="386" y="432"/>
      <point x="473" y="495"/>
      <point x="473" y="581" type="curve" smooth="yes"/>
      <point x="473" y="646"/>
      <point x="423" y="708"/>
      <point x="327" y="708" type="curve" smooth="yes"/>
      <point x="221" y="708"/>
      <point x="145" y="631"/>
      <point x="145" y="539" type="curve" smooth="yes"/>
      <point x="145" y="484"/>
      <point x="172" y="435"/>
      <point x="207" y="398" type="curve" smooth="yes"/>
      <point x="579" y="0" type="line"/>
      <point x="724" y="0" type="line"/>
      <point x="724" y="26" type="line"/>
      <point x="685" y="34"/>
      <point x="634" y="66"/>
      <point x="576" y="129" type="curve" smooth="yes"/>
      <point x="292" y="438" type="line" smooth="yes"/>
      <point x="250" y="484"/>
      <point x="222" y="534"/>
      <point x="222" y="577" type="curve" smooth="yes"/>
      <point x="222" y="625"/>
      <point x="258" y="661"/>
      <point x="307" y="661" type="curve" smooth="yes"/>
      <point x="361" y="661"/>
      <point x="393" y="617"/>
      <point x="393" y="564" type="curve" smooth="yes"/>
      <point x="393" y="507"/>
      <point x="350" y="468"/>
      <point x="289" y="436" type="curve" smooth="yes"/>
      <point x="228" y="404" type="line" smooth="yes"/>
      <point x="145" y="360"/>
      <point x="30" y="298"/>
      <point x="30" y="179" type="curve" smooth="yes"/>
      <point x="30" y="70"/>
      <point x="119" y="-8"/>
    </contour>
  </outline>
</glyph>
<glyph name="quotesingle" format="2">
  <advance width="131"/>
  <unicode hex="0027"/>
  <outline>
    <contour>
      <point x="30" y="730" type="line"/>
      <point x="20" y="715" type="line"/>
      <point x="51" y="519" type="line"/>
      <point x="78" y="519" type="line"/>
      <point x="111" y="730" type="line"/>
    </contour>
  </outline>
</glyph>
<glyph name="parenleft" format="2">
  <advance width="314"/>
  <unicode hex="0028"/>
  <outline>
    <contour>
      <point x="266" y="-191" type="curve"/>
      <point x="294" y="-166" type="line"/>
      <point x="190" y="-29"/>
      <point x="136" y="127"/>
      <point x="136" y="276" type="curve" smooth="yes"/>
      <point x="136" y="425"/>
      <point x="190" y="581"/>
      <point x="294" y="718" type="curve"/>
      <point x="266" y="743" type="line"/>
      <point x="131" y="600"/>
      <point x="40" y="436"/>
      <point x="40" y="276" type="curve" smooth="yes"/>
      <point x="40" y="116"/>
      <point x="131" y="-48"/>
    </contour>
  </outline>
</glyph>
<glyph name="asterisk" format="2">
  <advance width="354"/>
  <unicode hex="002A"/>
  <outline>
    <contour>
      <point x="180" y="541" type="curve" smooth="yes"/>
      <point x="189" y="541"/>
      <point x="196" y="548"/>
      <point x="196" y="558" type="curve" smooth="yes"/>
      <point x="196" y="567"/>
      <point x="189" y="574"/>
      <point x="180" y="574" type="curve" smooth="yes"/>
      <point x="171" y="574"/>
      <point x="164" y="567"/>
      <point x="164" y="558" type="curve" smooth="yes"/>
      <point x="164" y="548"/>
      <point x="171" y="541"/>
    </contour>
    <component base="bout_asterisk" xScale="-0.8192" xyScale="0.5736" yScale="-0.8192" yxScale="-0.5736" xOffset="737" yOffset="836"/>
    <component base="bout_asterisk" xScale="0.2588" xyScale="0.9659" yScale="0.2588" yxScale="-0.9659" xOffset="640" yOffset="127"/>
    <component base="bout_asterisk" xScale="-0.8192" xyScale="-0.5736" yScale="-0.8192" yxScale="0.5736" xOffset="110" yOffset="1179"/>
    <component base="bout_asterisk" xOffset="-119" yOffset="11"/>
    <component base="bout_asterisk" xScale="0.2588" xyScale="-0.9659" yScale="0.2588" yxScale="0.9659" xOffset="-436" yOffset="704"/>
  </outline>
</glyph>
<glyph name="plus" format="2">
  <advance width="576"/>
  <unicode hex="002B"/>
  <outline>
    <contour>
      <point x="60" y="395" type="line"/>
      <point x="60" y="330" type="line"/>
      <point x="516" y="330" type="line"/>
      <point x="516" y="395" type="line"/>
    </contour>
    <contour>
      <point x="321" y="590" type="line"/>
      <point x="256" y="590" type="line"/>
      <point x="256" y="134" type="line"/>
      <point x="321" y="134" type="line"/>
    </contour>
  </outline>
</glyph>
<glyph name="comma" format="2">
  <advance width="226"/>
  <unicode hex="002C"/>
  <outline>
    <contour>
      <point x="32" y="-141" type="line"/>
      <point x="140" y="-83"/>
      <point x="186" y="-19"/>
      <point x="186" y="37" type="curve" smooth="yes"/>
      <point x="186" y="88"/>
      <point x="156" y="126"/>
      <point x="111" y="126" type="curve" smooth="yes"/>
      <point x="70" y="126"/>
      <point x="43" y="83"/>
      <point x="48" y="45" type="curve"/>
      <point x="90" y="42"/>
      <point x="108" y="21"/>
      <point x="108" y="-6" type="curve" smooth="yes"/>
      <point x="108" y="-40"/>
      <point x="70" y="-85"/>
      <point x="20" y="-120" type="curve"/>
    </contour>
  </outline>
</glyph>
<glyph name="hyphen" format="2">
  <advance width="322"/>
  <unicode hex="002D"/>
  <outline>
    <contour>
      <point x="40" y="242" type="line"/>
      <point x="275" y="242" type="line"/>
      <point x="292" y="290" type="line"/>
      <point x="282" y="310" type="line"/>
      <point x="50" y="310" type="line"/>
      <point x="30" y="262" type="line"/>
    </contour>
  </outline>
</glyph>
<glyph name="period" format="2">
  <advance width="209"/>
  <unicode hex="002E"/>
  <outline>
    <contour>
      <point x="101" y="-13" type="curve" smooth="yes"/>
      <point x="136" y="-13"/>
      <point x="169" y="19"/>
      <point x="169" y="60" type="curve" smooth="yes"/>
      <point x="169" y="92"/>
      <point x="142" y="120"/>
      <point x="108" y="120" type="curve" smooth="yes"/>
      <point x="72" y="120"/>
      <point x="40" y="91"/>
      <point x="40" y="49" type="curve" smooth="yes"/>
      <point x="40" y="12"/>
      <point x="71" y="-13"/>
    </contour>
  </outline>
</glyph>
<glyph name="slash" format="2">
  <advance width="357"/>
  <unicode hex="002F"/>
  <outline>
    <contour>
      <point x="-20" y="-40" type="line"/>
      <point x="48" y="-40" type="line"/>
      <point x="367" y="700" type="line"/>
      <point x="299" y="700" type="line"/>
    </contour>
  </outline>
</glyph>
<glyph name="zero" format="2">
  <advance width="597"/>
  <unicode hex="0030"/>
  <outline>
    <contour>
      <point x="300" y="-5" type="curve" smooth="yes"/>
      <point x="465" y="-5"/>
      <point x="557" y="155"/>
      <point x="557" y="353" type="curve" smooth="yes"/>
      <point x="557" y="550"/>
      <point x="465" y="710"/>
      <point x="300" y="710" type="curve" smooth="yes"/>
      <point x="135" y="710"/>
      <point x="40" y="550"/>
      <point x="40" y="353" type="curve" smooth="yes"/>
      <point x="40" y="155"/>
      <point x="135" y="-5"/>
    </contour>
    <contour>
      <point x="300" y="56" type="curve" smooth="yes"/>
      <point x="200" y="56"/>
      <point x="147" y="183"/>
      <point x="147" y="353" type="curve" smooth="yes"/>
      <point x="147" y="522"/>
      <point x="200" y="649"/>
      <point x="300" y="649" type="curve" smooth="yes"/>
      <point x="400" y="649"/>
      <point x="450" y="522"/>
      <point x="450" y="353" type="curve" smooth="yes"/>
      <point x="450" y="183"/>
      <point x="400" y="56"/>
    </contour>
  </outline>
</glyph>
<glyph name="one" format="2">
  <advance width="366"/>
  <unicode hex="0031"/>
  <outline>
    <contour>
      <point x="61" y="0" type="line"/>
      <point x="321" y="0" type="line"/>
      <point x="321" y="25" type="line"/>
      <point x="278" y="36"/>
      <point x="244" y="55"/>
      <point x="244" y="141" type="curve" smooth="yes"/>
      <point x="244" y="503" type="line" smooth="yes"/>
      <point x="244" y="568"/>
      <point x="247" y="633"/>
      <point x="251" y="698" type="curve"/>
      <point x="229" y="708" type="line"/>
      <point x="169" y="670"/>
      <point x="105" y="640"/>
      <point x="35" y="614" type="curve"/>
      <point x="39" y="589" type="line"/>
      <point x="82" y="589" type="line" smooth="yes"/>
      <point x="127" y="589"/>
      <point x="146" y="576"/>
      <point x="146" y="517" type="curve" smooth="yes"/>
      <point x="146" y="141" type="line" smooth="yes"/>
      <point x="146" y="55"/>
      <point x="123" y="37"/>
      <point x="61" y="25" type="curve"/>
    </contour>
  </outline>
</glyph>
<glyph name="two" format="2">
  <advance width="491"/>
  <unicode hex="0032"/>
  <outline>
    <contour>
      <point x="11" y="0" type="line"/>
      <point x="418" y="0" type="line"/>
      <point x="451" y="148" type="line"/>
      <point x="426" y="155" type="line"/>
      <point x="404" y="116"/>
      <point x="386" y="90"/>
      <point x="335" y="90" type="curve" smooth="yes"/>
      <point x="116" y="90" type="line"/>
      <point x="256" y="233" type="line" smooth="yes"/>
      <point x="355" y="334"/>
      <point x="438" y="428"/>
      <point x="438" y="522" type="curve" smooth="yes"/>
      <point x="438" y="623"/>
      <point x="366" y="708"/>
      <point x="236" y="708" type="curve" smooth="yes"/>
      <point x="114" y="708"/>
      <point x="40" y="615"/>
      <point x="21" y="534" type="curve"/>
      <point x="50" y="523" type="line"/>
      <point x="71" y="574"/>
      <point x="126" y="621"/>
      <point x="196" y="621" type="curve" smooth="yes"/>
      <point x="266" y="621"/>
      <point x="334" y="577"/>
      <point x="334" y="494" type="curve" smooth="yes"/>
      <point x="334" y="430"/>
      <point x="282" y="344"/>
      <point x="202" y="256" type="curve" smooth="yes"/>
      <point x="0" y="35" type="line"/>
    </contour>
  </outline>
</glyph>
<glyph name="three" format="2">
  <advance width="497"/>
  <unicode hex="0033"/>
  <outline>
    <contour>
      <point x="80" y="173" type="curve"/>
      <point x="5" y="92" type="line"/>
      <point x="42" y="35"/>
      <point x="117" y="-14"/>
      <point x="213" y="-14" type="curve" smooth="yes"/>
      <point x="332" y="-14"/>
      <point x="457" y="78"/>
      <point x="457" y="213" type="curve" smooth="yes"/>
      <point x="457" y="303"/>
      <point x="380" y="394"/>
      <point x="256" y="398" type="curve"/>
      <point x="333" y="431"/>
      <point x="412" y="477"/>
      <point x="412" y="562" type="curve" smooth="yes"/>
      <point x="412" y="642"/>
      <point x="343" y="707"/>
      <point x="245" y="707" type="curve" smooth="yes"/>
      <point x="141" y="707"/>
      <point x="74" y="646"/>
      <point x="43" y="569" type="curve"/>
      <point x="73" y="554" type="line"/>
      <point x="99" y="602"/>
      <point x="151" y="634"/>
      <point x="208" y="634" type="curve" smooth="yes"/>
      <point x="271" y="634"/>
      <point x="308" y="595"/>
      <point x="308" y="542" type="curve" smooth="yes"/>
      <point x="308" y="466"/>
      <point x="233" y="414"/>
      <point x="147" y="382" type="curve" smooth="yes"/>
      <point x="109" y="368" type="line"/>
      <point x="117" y="333" type="line"/>
      <point x="149" y="336" type="line" smooth="yes"/>
      <point x="287" y="349"/>
      <point x="356" y="255"/>
      <point x="356" y="165" type="curve" smooth="yes"/>
      <point x="356" y="89"/>
      <point x="310" y="46"/>
      <point x="248" y="46" type="curve" smooth="yes"/>
      <point x="171" y="46"/>
      <point x="113" y="116"/>
    </contour>
  </outline>
</glyph>
<glyph name="four" format="2">
  <advance width="551"/>
  <unicode hex="0034"/>
  <outline>
    <contour>
      <point x="212" y="0" type="line"/>
      <point x="485" y="0" type="line"/>
      <point x="485" y="25" type="line"/>
      <point x="437" y="36"/>
      <point x="403" y="55"/>
      <point x="403" y="141" type="curve" smooth="yes"/>
      <point x="403" y="709" type="line"/>
      <point x="329" y="709" type="line"/>
      <point x="0" y="240" type="line"/>
      <point x="15" y="202" type="line"/>
      <point x="500" y="202" type="line"/>
      <point x="516" y="279" type="line"/>
      <point x="66" y="279" type="line"/>
      <point x="72" y="249" type="line"/>
      <point x="303" y="580" type="line"/>
      <point x="308" y="580" type="line"/>
      <point x="308" y="141" type="line" smooth="yes"/>
      <point x="308" y="55"/>
      <point x="279" y="37"/>
      <point x="212" y="25" type="curve"/>
    </contour>
  </outline>
</glyph>
<glyph name="five" format="2">
  <advance width="523"/>
  <unicode hex="0035"/>
  <outline>
    <contour>
      <point x="473" y="220" type="curve" smooth="yes"/>
      <point x="473" y="322"/>
      <point x="407" y="436"/>
      <point x="153" y="462" type="curve"/>
      <point x="179" y="603" type="line"/>
      <point x="437" y="603" type="line"/>
      <point x="455" y="700" type="line"/>
      <point x="142" y="700" type="line"/>
      <point x="84" y="377" type="line"/>
      <point x="331" y="354"/>
      <point x="375" y="240"/>
      <point x="375" y="170" type="curve" smooth="yes"/>
      <point x="375" y="93"/>
      <point x="322" y="47"/>
      <point x="256" y="47" type="curve" smooth="yes"/>
      <point x="175" y="47"/>
      <point x="121" y="121"/>
      <point x="89" y="173" type="curve"/>
      <point x="14" y="92" type="line"/>
      <point x="55" y="31"/>
      <point x="129" y="-14"/>
      <point x="220" y="-14" type="curve" smooth="yes"/>
      <point x="348" y="-14"/>
      <point x="473" y="82"/>
    </contour>
  </outline>
</glyph>
<glyph name="six" format="2">
  <advance width="566"/>
  <unicode hex="0036"/>
  <outline>
    <contour>
      <point x="295" y="-14" type="curve" smooth="yes"/>
      <point x="437" y="-14"/>
      <point x="536" y="102"/>
      <point x="536" y="234" type="curve" smooth="yes"/>
      <point x="536" y="354"/>
      <point x="453" y="444"/>
      <point x="345" y="444" type="curve" smooth="yes"/>
      <point x="285" y="444"/>
      <point x="235" y="415"/>
      <point x="195" y="391" type="curve"/>
      <point x="207" y="361" type="line"/>
      <point x="228" y="370"/>
      <point x="263" y="382"/>
      <point x="294" y="382" type="curve" smooth="yes"/>
      <point x="374" y="382"/>
      <point x="434" y="304"/>
      <point x="434" y="202" type="curve" smooth="yes"/>
      <point x="434" y="99"/>
      <point x="386" y="40"/>
      <point x="314" y="40" type="curve" smooth="yes"/>
      <point x="226" y="40"/>
      <point x="154" y="135"/>
      <point x="154" y="297" type="curve" smooth="yes"/>
      <point x="154" y="481"/>
      <point x="239" y="580"/>
      <point x="449" y="677" type="curve"/>
      <point x="436" y="714" type="line"/>
      <point x="182" y="644"/>
      <point x="45" y="482"/>
      <point x="45" y="275" type="curve" smooth="yes"/>
      <point x="45" y="99"/>
      <point x="147" y="-14"/>
    </contour>
  </outline>
</glyph>
<glyph name="seven" format="2">
  <advance width="503"/>
  <unicode hex="0037"/>
  <outline>
    <contour>
      <point x="98" y="1" type="line"/>
      <point x="203" y="1" type="line"/>
      <point x="488" y="677" type="line"/>
      <point x="473" y="700" type="line"/>
      <point x="44" y="700" type="line"/>
      <point x="20" y="543" type="line"/>
      <point x="42" y="536" type="line"/>
      <point x="69" y="586"/>
      <point x="103" y="609"/>
      <point x="158" y="609" type="curve" smooth="yes"/>
      <point x="412" y="609" type="line"/>
      <point x="92" y="19" type="line"/>
    </contour>
  </outline>
</glyph>
<glyph name="eight" format="2">
  <advance width="558"/>
  <unicode hex="0038"/>
  <outline>
    <contour>
      <point x="274" y="-14" type="curve" smooth="yes"/>
      <point x="403" y="-14"/>
      <point x="508" y="66"/>
      <point x="508" y="175" type="curve" smooth="yes"/>
      <point x="508" y="240"/>
      <point x="475" y="289"/>
      <point x="400" y="341" type="curve" smooth="yes"/>
      <point x="231" y="458" type="line" smooth="yes"/>
      <point x="191" y="486"/>
      <point x="168" y="525"/>
      <point x="168" y="563" type="curve" smooth="yes"/>
      <point x="168" y="615"/>
      <point x="207" y="663"/>
      <point x="271" y="663" type="curve" smooth="yes"/>
      <point x="350" y="663"/>
      <point x="392" y="600"/>
      <point x="392" y="538" type="curve" smooth="yes"/>
      <point x="392" y="471"/>
      <point x="348" y="428"/>
      <point x="303" y="397" type="curve"/>
      <point x="331" y="368" type="line"/>
      <point x="395" y="398"/>
      <point x="483" y="456"/>
      <point x="483" y="552" type="curve" smooth="yes"/>
      <point x="483" y="642"/>
      <point x="405" y="713"/>
      <point x="289" y="713" type="curve" smooth="yes"/>
      <point x="168" y="713"/>
      <point x="77" y="626"/>
      <point x="77" y="533" type="curve" smooth="yes"/>
      <point x="77" y="473"/>
      <point x="122" y="417"/>
      <point x="175" y="381" type="curve" smooth="yes"/>
      <point x="329" y="277" type="line" smooth="yes"/>
      <point x="381" y="242"/>
      <point x="418" y="194"/>
      <point x="418" y="144" type="curve" smooth="yes"/>
      <point x="418" y="79"/>
      <point x="369" y="37"/>
      <point x="300" y="37" type="curve" smooth="yes"/>
      <point x="213" y="37"/>
      <point x="149" y="103"/>
      <point x="149" y="176" type="curve" smooth="yes"/>
      <point x="149" y="272"/>
      <point x="221" y="311"/>
      <point x="281" y="337" type="curve"/>
      <point x="255" y="370" type="line"/>
      <point x="182" y="346"/>
      <point x="55" y="282"/>
      <point x="55" y="158" type="curve" smooth="yes"/>
      <point x="55" y="48"/>
      <point x="152" y="-14"/>
    </contour>
  </outline>
</glyph>
<glyph name="equal" format="2">
  <advance width="576"/>
  <unicode hex="003D"/>
  <outline>
    <contour>
      <point x="60" y="470" type="line"/>
      <point x="60" y="405" type="line"/>
      <point x="516" y="405" type="line"/>
      <point x="516" y="470" type="line"/>
    </contour>
    <contour>
      <point x="60" y="312" type="line"/>
      <point x="60" y="247" type="line"/>
      <point x="516" y="247" type="line"/>
      <point x="516" y="312" type="line"/>
    </contour>
  </outline>
</glyph>
<glyph name="greater" format="2">
  <advance width="476"/>
  <unicode hex="003E"/>
  <outline>
    <contour>
      <point x="26" y="540" type="line"/>
      <point x="59" y="599" type="line"/>
      <point x="436" y="386" type="line"/>
      <point x="436" y="315" type="line"/>
      <point x="59" y="102" type="line"/>
      <point x="26" y="161" type="line"/>
      <point x="367" y="350" type="line"/>
    </contour>
  </outline>
</glyph>
<glyph name="question" format="2">
  <advance width="440"/>
  <unicode hex="003F"/>
  <guideline x="218" y="231"/>
  <outline>
    <contour>
      <point x="166" y="231" type="line"/>
      <point x="193" y="231" type="line"/>
      <point x="201" y="293" type="line" smooth="yes"/>
      <point x="204" y="314"/>
      <point x="211" y="320"/>
      <point x="225" y="328" type="curve" smooth="yes"/>
      <point x="314" y="380" type="line" smooth="yes"/>
      <point x="387" y="422"/>
      <point x="420" y="464"/>
      <point x="420" y="522" type="curve" smooth="yes"/>
      <point x="420" y="635"/>
      <point x="334" y="714"/>
      <point x="227" y="714" type="curve" smooth="yes"/>
      <point x="166" y="714"/>
      <point x="99" y="698"/>
      <point x="20" y="625" type="curve"/>
      <point x="83" y="532" type="line"/>
      <point x="134" y="611"/>
      <point x="189" y="661"/>
      <point x="249" y="661" type="curve" smooth="yes"/>
      <point x="305" y="661"/>
      <point x="334" y="619"/>
      <point x="334" y="572" type="curve" smooth="yes"/>
      <point x="334" y="514"/>
      <point x="287" y="477"/>
      <point x="250" y="455" type="curve" smooth="yes"/>
      <point x="173" y="408" type="line" smooth="yes"/>
      <point x="150" y="394"/>
      <point x="146" y="381"/>
      <point x="149" y="360" type="curve" smooth="yes"/>
    </contour>
    <component base="period" xOffset="74"/>
  </outline>
</glyph>
<glyph name="at" format="2">
  <advance width="708"/>
  <unicode hex="0040"/>
  <outline>
    <contour>
      <point x="342" y="-112" type="curve" smooth="yes"/>
      <point x="429" y="-112"/>
      <point x="516" y="-70"/>
      <point x="590" y="-29" type="curve"/>
      <point x="582" y="-6" type="line"/>
      <point x="515" y="-35"/>
      <point x="448" y="-50"/>
      <point x="382" y="-50" type="curve" smooth="yes"/>
      <point x="242" y="-50"/>
      <point x="110" y="55"/>
      <point x="110" y="250" type="curve" smooth="yes"/>
      <point x="110" y="395"/>
      <point x="239" y="518"/>
      <point x="373" y="518" type="curve" smooth="yes"/>
      <point x="533" y="518"/>
      <point x="614" y="397"/>
      <point x="614" y="263" type="curve" smooth="yes"/>
      <point x="614" y="151"/>
      <point x="567" y="103"/>
      <point x="524" y="103" type="curve" smooth="yes"/>
      <point x="513" y="103"/>
      <point x="494" y="110"/>
      <point x="494" y="140" type="curve" smooth="yes"/>
      <point x="494" y="332" type="line" smooth="yes"/>
      <point x="494" y="388"/>
      <point x="454" y="435"/>
      <point x="396" y="435" type="curve" smooth="yes"/>
      <point x="327" y="435"/>
      <point x="221" y="365"/>
      <point x="221" y="319" type="curve" smooth="yes"/>
      <point x="221" y="310"/>
      <point x="225" y="290"/>
      <point x="233" y="281" type="curve"/>
      <point x="306" y="302" type="line"/>
      <point x="298" y="316"/>
      <point x="295" y="329"/>
      <point x="295" y="341" type="curve" smooth="yes"/>
      <point x="295" y="370"/>
      <point x="327" y="385"/>
      <point x="357" y="385" type="curve" smooth="yes"/>
      <point x="401" y="385"/>
      <point x="420" y="352"/>
      <point x="420" y="306" type="curve" smooth="yes"/>
      <point x="420" y="112" type="line" smooth="yes"/>
      <point x="420" y="72"/>
      <point x="461" y="52"/>
      <point x="496" y="52" type="curve" smooth="yes"/>
      <point x="572" y="52"/>
      <point x="683" y="138"/>
      <point x="683" y="309" type="curve" smooth="yes"/>
      <point x="683" y="447"/>
      <point x="579" y="582"/>
      <point x="406" y="582" type="curve" smooth="yes"/>
      <point x="221" y="582"/>
      <point x="35" y="409"/>
      <point x="35" y="213" type="curve" smooth="yes"/>
      <point x="35" y="5"/>
      <point x="195" y="-112"/>
    </contour>
    <contour>
      <point x="317" y="53" type="curve" smooth="yes"/>
      <point x="366" y="53"/>
      <point x="409" y="89"/>
      <point x="436" y="111" type="curve"/>
      <point x="434" y="150" type="line"/>
      <point x="417" y="125"/>
      <point x="384" y="104"/>
      <point x="353" y="104" type="curve" smooth="yes"/>
      <point x="325" y="104"/>
      <point x="301" y="123"/>
      <point x="301" y="151" type="curve" smooth="yes"/>
      <point x="301" y="175"/>
      <point x="314" y="194"/>
      <point x="350" y="206" type="curve" smooth="yes"/>
      <point x="434" y="234" type="line"/>
      <point x="434" y="270" type="line"/>
      <point x="313" y="231" type="line" smooth="yes"/>
      <point x="252" y="211"/>
      <point x="222" y="181"/>
      <point x="222" y="136" type="curve" smooth="yes"/>
      <point x="222" y="87"/>
      <point x="270" y="53"/>
    </contour>
  </outline>
</glyph>
<glyph name="A" format="2">
  <advance width="642"/>
  <unicode hex="0041"/>
  <anchor x="302" y="0" name="bottom"/>
  <anchor x="317" y="700" name="top"/>
  <outline>
    <contour>
      <point x="-25" y="0" type="line"/>
      <point x="224" y="0" type="line"/>
      <point x="224" y="28" type="line"/>
      <point x="147" y="32"/>
      <point x="119" y="76"/>
      <point x="144" y="140" type="curve" smooth="yes"/>
      <point x="312" y="574" type="line"/>
      <point x="282" y="575" type="line"/>
      <point x="446" y="151" type="line" smooth="yes"/>
      <point x="478" y="67"/>
      <point x="439" y="30"/>
      <point x="365" y="29" type="curve"/>
      <point x="365" y="0" type="line"/>
      <point x="662" y="0" type="line"/>
      <point x="662" y="27" type="line"/>
      <point x="605" y="40"/>
      <point x="583" y="71"/>
      <point x="557" y="137" type="curve" smooth="yes"/>
      <point x="339" y="700" type="line"/>
      <point x="299" y="700" type="line"/>
      <point x="77" y="129" type="line" smooth="yes"/>
      <point x="55" y="72"/>
      <point x="30" y="42"/>
      <point x="-25" y="29" type="curve"/>
    </contour>
    <contour>
      <point x="164" y="215" type="line"/>
      <point x="432" y="215" type="line"/>
      <point x="432" y="268" type="line"/>
      <point x="164" y="268" type="line"/>
    </contour>
  </outline>
</glyph>
<glyph name="B" format="2">
  <advance width="603"/>
  <unicode hex="0042"/>
  <outline>
    <contour>
      <point x="30" y="0" type="line"/>
      <point x="301" y="0" type="line" smooth="yes"/>
      <point x="461" y="0"/>
      <point x="573" y="66"/>
      <point x="573" y="198" type="curve" smooth="yes"/>
      <point x="573" y="302"/>
      <point x="464" y="365"/>
      <point x="380" y="378" type="curve"/>
      <point x="436" y="397"/>
      <point x="521" y="467"/>
      <point x="521" y="542" type="curve" smooth="yes"/>
      <point x="521" y="630"/>
      <point x="452" y="700"/>
      <point x="264" y="700" type="curve" smooth="yes"/>
      <point x="30" y="700" type="line"/>
      <point x="30" y="673" type="line"/>
      <point x="87" y="662"/>
      <point x="118" y="643"/>
      <point x="118" y="557" type="curve" smooth="yes"/>
      <point x="118" y="133" type="line" smooth="yes"/>
      <point x="118" y="47"/>
      <point x="87" y="38"/>
      <point x="30" y="27" type="curve"/>
    </contour>
    <contour>
      <point x="332" y="47" type="curve" smooth="yes"/>
      <point x="264" y="47"/>
      <point x="216" y="65"/>
      <point x="216" y="133" type="curve" smooth="yes"/>
      <point x="216" y="345" type="line"/>
      <point x="264" y="345" type="line" smooth="yes"/>
      <point x="398" y="345"/>
      <point x="473" y="278"/>
      <point x="473" y="188" type="curve" smooth="yes"/>
      <point x="473" y="106"/>
      <point x="415" y="47"/>
    </contour>
    <contour>
      <point x="216" y="398" type="line"/>
      <point x="216" y="647" type="line"/>
      <point x="258" y="647" type="line" smooth="yes"/>
      <point x="392" y="647"/>
      <point x="422" y="580"/>
      <point x="422" y="525" type="curve" smooth="yes"/>
      <point x="422" y="458"/>
      <point x="360" y="398"/>
      <point x="251" y="398" type="curve" smooth="yes"/>
    </contour>
  </outline>
</glyph>
<glyph name="C" format="2">
  <advance width="692"/>
  <unicode hex="0043"/>
  <anchor x="381" y="0" name="bottom"/>
  <outline>
    <contour>
      <point x="404" y="-14" type="curve" smooth="yes"/>
      <point x="488" y="-14"/>
      <point x="585" y="18"/>
      <point x="646" y="47" type="curve"/>
      <point x="667" y="215" type="line"/>
      <point x="644" y="219" type="line"/>
      <point x="594" y="111"/>
      <point x="531" y="40"/>
      <point x="439" y="40" type="curve" smooth="yes"/>
      <point x="289" y="40"/>
      <point x="140" y="177"/>
      <point x="140" y="372" type="curve" smooth="yes"/>
      <point x="140" y="523"/>
      <point x="239" y="659"/>
      <point x="362" y="659" type="curve" smooth="yes"/>
      <point x="467" y="659"/>
      <point x="546" y="601"/>
      <point x="616" y="484" type="curve"/>
      <point x="639" y="492" type="line"/>
      <point x="617" y="664" type="line"/>
      <point x="556" y="693"/>
      <point x="470" y="714"/>
      <point x="386" y="714" type="curve" smooth="yes"/>
      <point x="187" y="714"/>
      <point x="30" y="548"/>
      <point x="30" y="349" type="curve" smooth="yes"/>
      <point x="30" y="150"/>
      <point x="194" y="-14"/>
    </contour>
  </outline>
</glyph>
<glyph name="D" format="2">
  <advance width="737"/>
  <unicode hex="0044"/>
  <outline>
    <contour>
      <point x="30" y="0" type="line"/>
      <point x="311" y="0" type="line" smooth="yes"/>
      <point x="544" y="0"/>
      <point x="707" y="139"/>
      <point x="707" y="367" type="curve" smooth="yes"/>
      <point x="707" y="585"/>
      <point x="541" y="700"/>
      <point x="288" y="700" type="curve" smooth="yes"/>
      <point x="30" y="700" type="line"/>
      <point x="30" y="673" type="line"/>
      <point x="87" y="662"/>
      <point x="118" y="643"/>
      <point x="118" y="557" type="curve" smooth="yes"/>
      <point x="118" y="143" type="line" smooth="yes"/>
      <point x="118" y="57"/>
      <point x="87" y="38"/>
      <point x="30" y="27" type="curve"/>
    </contour>
    <contour>
      <point x="353" y="53" type="curve" smooth="yes"/>
      <point x="264" y="53"/>
      <point x="216" y="75"/>
      <point x="216" y="146" type="curve" smooth="yes"/>
      <point x="216" y="647" type="line"/>
      <point x="265" y="647" type="line" smooth="yes"/>
      <point x="481" y="647"/>
      <point x="605" y="528"/>
      <point x="605" y="344" type="curve" smooth="yes"/>
      <point x="605" y="184"/>
      <point x="496" y="53"/>
    </contour>
  </outline>
</glyph>
<glyph name="E" format="2">
  <advance width="601"/>
  <unicode hex="0045"/>
  <anchor x="319" y="0" name="bottom"/>
  <anchor x="319" y="700" name="top"/>
  <outline>
    <contour>
      <point x="118" y="49" type="line"/>
      <point x="216" y="49" type="line"/>
      <point x="216" y="700" type="line"/>
      <point x="30" y="700" type="line"/>
      <point x="30" y="675" type="line"/>
      <point x="87" y="664"/>
      <point x="118" y="645"/>
      <point x="118" y="559" type="curve" smooth="yes"/>
    </contour>
    <contour>
      <point x="30" y="0" type="line"/>
      <point x="558" y="0" type="line"/>
      <point x="581" y="173" type="line"/>
      <point x="555" y="177" type="line"/>
      <point x="527" y="88"/>
      <point x="466" y="53"/>
      <point x="350" y="53" type="curve" smooth="yes"/>
      <point x="243" y="53"/>
      <point x="216" y="95"/>
      <point x="216" y="141" type="curve"/>
      <point x="118" y="141" type="line"/>
      <point x="118" y="55"/>
      <point x="87" y="36"/>
      <point x="30" y="25" type="curve"/>
    </contour>
    <contour>
      <point x="419" y="235" type="curve"/>
      <point x="446" y="235" type="line"/>
      <point x="446" y="483" type="line"/>
      <point x="419" y="483" type="line"/>
      <point x="411" y="427"/>
      <point x="389" y="386"/>
      <point x="303" y="386" type="curve" smooth="yes"/>
      <point x="203" y="386" type="line"/>
      <point x="203" y="333" type="line"/>
      <point x="303" y="333" type="line" smooth="yes"/>
      <point x="389" y="333"/>
      <point x="410" y="295"/>
    </contour>
    <contour>
      <point x="535" y="513" type="curve"/>
      <point x="561" y="520" type="line"/>
      <point x="535" y="700" type="line"/>
      <point x="181" y="700" type="line"/>
      <point x="181" y="647" type="line"/>
      <point x="348" y="647" type="line" smooth="yes"/>
      <point x="436" y="647"/>
      <point x="494" y="605"/>
    </contour>
  </outline>
</glyph>
<glyph name="F" format="2">
  <advance width="564"/>
  <unicode hex="0046"/>
  <anchor x="192" y="0" name="bottom"/>
  <outline>
    <contour>
      <point x="118" y="49" type="line"/>
      <point x="216" y="49" type="line"/>
      <point x="216" y="700" type="line"/>
      <point x="30" y="700" type="line"/>
      <point x="30" y="675" type="line"/>
      <point x="87" y="664"/>
      <point x="118" y="645"/>
      <point x="118" y="559" type="curve" smooth="yes"/>
    </contour>
    <contour>
      <point x="30" y="0" type="line"/>
      <point x="343" y="0" type="line"/>
      <point x="343" y="27" type="line"/>
      <point x="268" y="36"/>
      <point x="216" y="45"/>
      <point x="216" y="141" type="curve"/>
      <point x="118" y="141" type="line"/>
      <point x="118" y="55"/>
      <point x="78" y="37"/>
      <point x="30" y="27" type="curve"/>
    </contour>
    <contour>
      <point x="408" y="224" type="curve"/>
      <point x="435" y="224" type="line"/>
      <point x="435" y="482" type="line"/>
      <point x="408" y="482" type="line"/>
      <point x="400" y="425"/>
      <point x="378" y="385"/>
      <point x="292" y="385" type="curve" smooth="yes"/>
      <point x="179" y="385" type="line"/>
      <point x="179" y="332" type="line"/>
      <point x="292" y="332" type="line" smooth="yes"/>
      <point x="378" y="332"/>
      <point x="398" y="288"/>
    </contour>
    <contour>
      <point x="523" y="513" type="curve"/>
      <point x="549" y="520" type="line"/>
      <point x="523" y="700" type="line"/>
      <point x="169" y="700" type="line"/>
      <point x="169" y="647" type="line"/>
      <point x="320" y="647" type="line" smooth="yes"/>
      <point x="424" y="647"/>
      <point x="482" y="605"/>
    </contour>
  </outline>
</glyph>
<glyph name="G" format="2">
  <advance width="755"/>
  <unicode hex="0047"/>
  <outline>
    <contour>
      <point x="406" y="-14" type="curve" smooth="yes"/>
      <point x="495" y="-14"/>
      <point x="572" y="14"/>
      <point x="601" y="25" type="curve"/>
      <point x="641" y="-14" type="line"/>
      <point x="665" y="-6" type="line"/>
      <point x="665" y="220" type="line" smooth="yes"/>
      <point x="665" y="305"/>
      <point x="677" y="324"/>
      <point x="730" y="335" type="curve"/>
      <point x="730" y="362" type="line"/>
      <point x="416" y="362" type="line"/>
      <point x="416" y="335" type="line"/>
      <point x="512" y="329"/>
      <point x="567" y="304"/>
      <point x="567" y="219" type="curve" smooth="yes"/>
      <point x="567" y="73" type="line"/>
      <point x="525" y="54"/>
      <point x="486" y="43"/>
      <point x="448" y="43" type="curve" smooth="yes"/>
      <point x="290" y="43"/>
      <point x="139" y="182"/>
      <point x="139" y="384" type="curve" smooth="yes"/>
      <point x="139" y="535"/>
      <point x="240" y="664"/>
      <point x="371" y="664" type="curve" smooth="yes"/>
      <point x="476" y="664"/>
      <point x="556" y="591"/>
      <point x="625" y="484" type="curve"/>
      <point x="648" y="492" type="line"/>
      <point x="626" y="664" type="line"/>
      <point x="565" y="693"/>
      <point x="479" y="714"/>
      <point x="395" y="714" type="curve" smooth="yes"/>
      <point x="188" y="714"/>
      <point x="30" y="550"/>
      <point x="30" y="351" type="curve" smooth="yes"/>
      <point x="30" y="152"/>
      <point x="188" y="-14"/>
    </contour>
  </outline>
</glyph>
<glyph name="H" format="2">
  <advance width="799"/>
  <unicode hex="0048"/>
  <anchor x="404" y="0" name="bottom"/>
  <outline>
    <contour>
      <point x="584" y="51" type="line"/>
      <point x="682" y="51" type="line"/>
      <point x="682" y="623" type="line"/>
      <point x="584" y="623" type="line"/>
    </contour>
    <contour>
      <point x="30" y="0" type="line"/>
      <point x="333" y="0" type="line"/>
      <point x="333" y="27" type="line"/>
      <point x="270" y="34"/>
      <point x="216" y="57"/>
      <point x="216" y="141" type="curve"/>
      <point x="118" y="141" type="line"/>
      <point x="118" y="57"/>
      <point x="87" y="38"/>
      <point x="30" y="27" type="curve"/>
    </contour>
    <contour>
      <point x="118" y="51" type="line"/>
      <point x="216" y="51" type="line"/>
      <point x="216" y="623" type="line"/>
      <point x="118" y="623" type="line"/>
    </contour>
    <contour>
      <point x="476" y="0" type="line"/>
      <point x="769" y="0" type="line"/>
      <point x="769" y="27" type="line"/>
      <point x="716" y="38"/>
      <point x="682" y="57"/>
      <point x="682" y="141" type="curve"/>
      <point x="584" y="141" type="line"/>
      <point x="584" y="57"/>
      <point x="543" y="34"/>
      <point x="476" y="27" type="curve"/>
    </contour>
    <contour>
      <point x="183" y="332" type="line"/>
      <point x="645" y="332" type="line"/>
      <point x="645" y="385" type="line"/>
      <point x="183" y="385" type="line"/>
    </contour>
    <contour>
      <point x="118" y="557" type="curve"/>
      <point x="216" y="557" type="line"/>
      <point x="216" y="643"/>
      <point x="270" y="666"/>
      <point x="333" y="673" type="curve"/>
      <point x="333" y="700" type="line"/>
      <point x="30" y="700" type="line"/>
      <point x="30" y="673" type="line"/>
      <point x="87" y="662"/>
      <point x="118" y="643"/>
    </contour>
    <contour>
      <point x="584" y="557" type="curve"/>
      <point x="682" y="557" type="line"/>
      <point x="682" y="643"/>
      <point x="716" y="662"/>
      <point x="769" y="673" type="curve"/>
      <point x="769" y="700" type="line"/>
      <point x="476" y="700" type="line"/>
      <point x="476" y="673" type="line"/>
      <point x="543" y="666"/>
      <point x="584" y="643"/>
    </contour>
  </outline>
</glyph>
<glyph name="I" format="2">
  <advance width="333"/>
  <unicode hex="0049"/>
  <anchor x="166" y="700" name="top"/>
  <outline>
    <contour>
      <point x="118" y="51" type="line"/>
      <point x="216" y="51" type="line"/>
      <point x="216" y="623" type="line"/>
      <point x="118" y="623" type="line"/>
    </contour>
    <contour>
      <point x="30" y="0" type="line"/>
      <point x="303" y="0" type="line"/>
      <point x="303" y="27" type="line"/>
      <point x="250" y="38"/>
      <point x="216" y="57"/>
      <point x="216" y="143" type="curve"/>
      <point x="118" y="143" type="line"/>
      <point x="118" y="57"/>
      <point x="87" y="38"/>
      <point x="30" y="27" type="curve"/>
    </contour>
    <contour>
      <point x="118" y="557" type="curve"/>
      <point x="216" y="557" type="line"/>
      <point x="216" y="643"/>
      <point x="250" y="662"/>
      <point x="303" y="673" type="curve"/>
      <point x="303" y="700" type="line"/>
      <point x="30" y="700" type="line"/>
      <point x="30" y="673" type="line"/>
      <point x="87" y="662"/>
      <point x="118" y="643"/>
    </contour>
  </outline>
</glyph>
<glyph name="J" format="2">
  <advance width="330"/>
  <unicode hex="004A"/>
  <outline>
    <contour>
      <point x="14" y="-255" type="line"/>
      <point x="117" y="-195"/>
      <point x="213" y="-69"/>
      <point x="213" y="60" type="curve" smooth="yes"/>
      <point x="213" y="623" type="line"/>
      <point x="115" y="623" type="line"/>
      <point x="115" y="76" type="line" smooth="yes"/>
      <point x="115" y="-46"/>
      <point x="97" y="-147"/>
      <point x="0" y="-231" type="curve"/>
    </contour>
    <contour>
      <point x="115" y="557" type="curve"/>
      <point x="213" y="557" type="line"/>
      <point x="213" y="643"/>
      <point x="247" y="662"/>
      <point x="300" y="673" type="curve"/>
      <point x="300" y="700" type="line"/>
      <point x="17" y="700" type="line"/>
      <point x="17" y="673" type="line"/>
      <point x="85" y="663"/>
      <point x="115" y="643"/>
    </contour>
  </outline>
</glyph>
<glyph name="K" format="2">
  <advance width="678"/>
  <unicode hex="004B"/>
  <outline>
    <contour>
      <point x="536" y="0" type="line"/>
      <point x="708" y="0" type="line"/>
      <point x="708" y="26" type="line"/>
      <point x="691" y="31" type="line" smooth="yes"/>
      <point x="635" y="48"/>
      <point x="545" y="144"/>
      <point x="461" y="242" type="curve" smooth="yes"/>
      <point x="321" y="407" type="line"/>
      <point x="294" y="320" type="line"/>
      <point x="494" y="558" type="line" smooth="yes"/>
      <point x="563" y="641"/>
      <point x="621" y="668"/>
      <point x="656" y="671" type="curve"/>
      <point x="656" y="700" type="line"/>
      <point x="404" y="700" type="line"/>
      <point x="404" y="672" type="line"/>
      <point x="456" y="670"/>
      <point x="484" y="636"/>
      <point x="445" y="590" type="curve" smooth="yes"/>
      <point x="243" y="348" type="line"/>
    </contour>
    <contour>
      <point x="30" y="0" type="line"/>
      <point x="320" y="0" type="line"/>
      <point x="320" y="27" type="line"/>
      <point x="265" y="34"/>
      <point x="216" y="55"/>
      <point x="216" y="141" type="curve" smooth="yes"/>
      <point x="216" y="557" type="line" smooth="yes"/>
      <point x="216" y="643"/>
      <point x="250" y="662"/>
      <point x="293" y="673" type="curve"/>
      <point x="293" y="700" type="line"/>
      <point x="30" y="700" type="line"/>
      <point x="30" y="673" type="line"/>
      <point x="87" y="662"/>
      <point x="118" y="643"/>
      <point x="118" y="557" type="curve" smooth="yes"/>
      <point x="118" y="141" type="line" smooth="yes"/>
      <point x="118" y="55"/>
      <point x="87" y="38"/>
      <point x="30" y="27" type="curve"/>
    </contour>
  </outline>
</glyph>
<glyph name="L" format="2">
  <advance width="582"/>
  <unicode hex="004C"/>
  <anchor x="302" y="0" name="bottom"/>
  <outline>
    <contour>
      <point x="30" y="0" type="line"/>
      <point x="546" y="0" type="line"/>
      <point x="567" y="216" type="line"/>
      <point x="541" y="220" type="line"/>
      <point x="504" y="104"/>
      <point x="456" y="53"/>
      <point x="340" y="53" type="curve" smooth="yes"/>
      <point x="233" y="53"/>
      <point x="216" y="85"/>
      <point x="216" y="141" type="curve" smooth="yes"/>
      <point x="216" y="557" type="line" smooth="yes"/>
      <point x="216" y="643"/>
      <point x="258" y="664"/>
      <point x="311" y="673" type="curve"/>
      <point x="311" y="700" type="line"/>
      <point x="30" y="700" type="line"/>
      <point x="30" y="673" type="line"/>
      <point x="87" y="662"/>
      <point x="118" y="643"/>
      <point x="118" y="557" type="curve" smooth="yes"/>
      <point x="118" y="143" type="line" smooth="yes"/>
      <point x="118" y="57"/>
      <point x="87" y="38"/>
      <point x="30" y="27" type="curve"/>
    </contour>
  </outline>
</glyph>
<glyph name="M" format="2">
  <advance width="934"/>
  <unicode hex="004D"/>
  <outline>
    <contour>
      <point x="15" y="0" type="line"/>
      <point x="265" y="0" type="line"/>
      <point x="265" y="27" type="line"/>
      <point x="208" y="33"/>
      <point x="153" y="64"/>
      <point x="161" y="141" type="curve" smooth="yes"/>
      <point x="210" y="609" type="line"/>
      <point x="192" y="606" type="line"/>
      <point x="440" y="53" type="line"/>
      <point x="464" y="53" type="line"/>
      <point x="709" y="626" type="line"/>
      <point x="677" y="700" type="line"/>
      <point x="453" y="174" type="line"/>
      <point x="493" y="174" type="line"/>
      <point x="257" y="700" type="line"/>
      <point x="64" y="700" type="line"/>
      <point x="64" y="674" type="line"/>
      <point x="123" y="658"/>
      <point x="153" y="631"/>
      <point x="146" y="569" type="curve" smooth="yes"/>
      <point x="102" y="154" type="line" smooth="yes"/>
      <point x="93" y="68"/>
      <point x="73" y="47"/>
      <point x="15" y="27" type="curve"/>
    </contour>
    <contour>
      <point x="637" y="0" type="line"/>
      <point x="924" y="0" type="line"/>
      <point x="924" y="27" type="line"/>
      <point x="868" y="38"/>
      <point x="839" y="72"/>
      <point x="831" y="141" type="curve" smooth="yes"/>
      <point x="780" y="557" type="line" smooth="yes"/>
      <point x="771" y="633"/>
      <point x="810" y="662"/>
      <point x="863" y="673" type="curve"/>
      <point x="863" y="700" type="line"/>
      <point x="678" y="700" type="line"/>
      <point x="733" y="141" type="line" smooth="yes"/>
      <point x="741" y="55"/>
      <point x="681" y="37"/>
      <point x="637" y="27" type="curve"/>
    </contour>
  </outline>
</glyph>
<glyph name="N" format="2">
  <advance width="779"/>
  <unicode hex="004E"/>
  <anchor x="406" y="0" name="bottom"/>
  <anchor x="396" y="700" name="top"/>
  <outline>
    <contour>
      <point x="631" y="0" type="line"/>
      <point x="645" y="139" type="line"/>
      <point x="190" y="700" type="line"/>
      <point x="25" y="700" type="line"/>
      <point x="25" y="674" type="line"/>
      <point x="83" y="656"/>
      <point x="120" y="630"/>
      <point x="165" y="575" type="curve" smooth="yes"/>
    </contour>
    <contour>
      <point x="41" y="0" type="line"/>
      <point x="295" y="0" type="line"/>
      <point x="295" y="27" type="line"/>
      <point x="216" y="47"/>
      <point x="182" y="75"/>
      <point x="182" y="148" type="curve" smooth="yes"/>
      <point x="182" y="700" type="line"/>
      <point x="120" y="700" type="line"/>
      <point x="120" y="148" type="line" smooth="yes"/>
      <point x="120" y="75"/>
      <point x="98" y="40"/>
      <point x="41" y="27" type="curve"/>
    </contour>
    <contour>
      <point x="631" y="0" type="line"/>
      <point x="677" y="0" type="line"/>
      <point x="677" y="536" type="line" smooth="yes"/>
      <point x="677" y="622"/>
      <point x="701" y="657"/>
      <point x="754" y="673" type="curve"/>
      <point x="754" y="700" type="line"/>
      <point x="502" y="700" type="line"/>
      <point x="502" y="673" type="line"/>
      <point x="583" y="657"/>
      <point x="615" y="622"/>
      <point x="615" y="536" type="curve" smooth="yes"/>
      <point x="615" y="70" type="line"/>
    </contour>
  </outline>
</glyph>
<glyph name="O" format="2">
  <advance width="776"/>
  <unicode hex="004F"/>
  <anchor x="406" y="0" name="bottom"/>
  <anchor x="379" y="700" name="top"/>
  <outline>
    <contour>
      <point x="388" y="-14" type="curve" smooth="yes"/>
      <point x="587" y="-14"/>
      <point x="746" y="152"/>
      <point x="746" y="351" type="curve" smooth="yes"/>
      <point x="746" y="550"/>
      <point x="587" y="714"/>
      <point x="388" y="714" type="curve" smooth="yes"/>
      <point x="189" y="714"/>
      <point x="30" y="550"/>
      <point x="30" y="351" type="curve" smooth="yes"/>
      <point x="30" y="152"/>
      <point x="189" y="-14"/>
    </contour>
    <contour>
      <point x="413" y="40" type="curve" smooth="yes"/>
      <point x="277" y="40"/>
      <point x="135" y="190"/>
      <point x="135" y="384" type="curve" smooth="yes"/>
      <point x="135" y="535"/>
      <point x="237" y="660"/>
      <point x="363" y="660" type="curve" smooth="yes"/>
      <point x="481" y="660"/>
      <point x="641" y="552"/>
      <point x="641" y="318" type="curve" smooth="yes"/>
      <point x="641" y="165"/>
      <point x="539" y="40"/>
    </contour>
  </outline>
</glyph>
<glyph name="P" format="2">
  <advance width="602"/>
  <unicode hex="0050"/>
  <outline>
    <contour>
      <point x="30" y="0" type="line"/>
      <point x="343" y="0" type="line"/>
      <point x="343" y="27" type="line"/>
      <point x="266" y="36"/>
      <point x="216" y="55"/>
      <point x="216" y="141" type="curve" smooth="yes"/>
      <point x="216" y="647" type="line"/>
      <point x="244" y="647" type="line" smooth="yes"/>
      <point x="398" y="647"/>
      <point x="470" y="590"/>
      <point x="470" y="484" type="curve" smooth="yes"/>
      <point x="470" y="384"/>
      <point x="405" y="310"/>
      <point x="293" y="297" type="curve"/>
      <point x="295" y="265" type="line"/>
      <point x="440" y="266"/>
      <point x="572" y="359"/>
      <point x="572" y="493" type="curve" smooth="yes"/>
      <point x="572" y="622"/>
      <point x="451" y="700"/>
      <point x="244" y="700" type="curve" smooth="yes"/>
      <point x="30" y="700" type="line"/>
      <point x="30" y="673" type="line"/>
      <point x="87" y="662"/>
      <point x="118" y="643"/>
      <point x="118" y="557" type="curve" smooth="yes"/>
      <point x="118" y="141" type="line" smooth="yes"/>
      <point x="118" y="55"/>
      <point x="87" y="38"/>
      <point x="30" y="27" type="curve"/>
    </contour>
  </outline>
</glyph>
<glyph name="R" format="2">
  <advance width="646"/>
  <unicode hex="0052"/>
  <anchor x="371" y="0" name="bottom"/>
  <outline>
    <contour>
      <point x="30" y="0" type="line"/>
      <point x="317" y="0" type="line"/>
      <point x="317" y="27" type="line"/>
      <point x="266" y="36"/>
      <point x="216" y="53"/>
      <point x="216" y="140" type="curve" smooth="yes"/>
      <point x="216" y="311" type="line"/>
      <point x="245" y="311" type="line" smooth="yes"/>
      <point x="282" y="311"/>
      <point x="317" y="296"/>
      <point x="351" y="246" type="curve" smooth="yes"/>
      <point x="517" y="0" type="line"/>
      <point x="681" y="0" type="line"/>
      <point x="681" y="24" type="line"/>
      <point x="661" y="30" type="line" smooth="yes"/>
      <point x="549" y="64"/>
      <point x="482" y="281"/>
      <point x="386" y="333" type="curve"/>
      <point x="469" y="356"/>
      <point x="548" y="433"/>
      <point x="548" y="518" type="curve" smooth="yes"/>
      <point x="548" y="644"/>
      <point x="412" y="700"/>
      <point x="250" y="700" type="curve" smooth="yes"/>
      <point x="30" y="700" type="line"/>
      <point x="30" y="673" type="line"/>
      <point x="87" y="662"/>
      <point x="118" y="643"/>
      <point x="118" y="557" type="curve" smooth="yes"/>
      <point x="118" y="140" type="line" smooth="yes"/>
      <point x="118" y="55"/>
      <point x="87" y="38"/>
      <point x="30" y="27" type="curve"/>
    </contour>
    <contour>
      <point x="216" y="364" type="line"/>
      <point x="216" y="647" type="line"/>
      <point x="239" y="647" type="line" smooth="yes"/>
      <point x="377" y="647"/>
      <point x="448" y="602"/>
      <point x="448" y="509" type="curve" smooth="yes"/>
      <point x="448" y="433"/>
      <point x="381" y="364"/>
      <point x="254" y="364" type="curve" smooth="yes"/>
    </contour>
  </outline>
</glyph>
<glyph name="S" format="2">
  <advance width="561"/>
  <unicode hex="0053"/>
  <anchor x="291" y="-9" name="bottom"/>
  <outline>
    <contour>
      <point x="275" y="-14" type="curve" smooth="yes"/>
      <point x="413" y="-14"/>
      <point x="516" y="61"/>
      <point x="516" y="182" type="curve" smooth="yes"/>
      <point x="516" y="254"/>
      <point x="480" y="309"/>
      <point x="389" y="362" type="curve" smooth="yes"/>
      <point x="245" y="446" type="line" smooth="yes"/>
      <point x="190" y="478"/>
      <point x="165" y="514"/>
      <point x="165" y="558" type="curve" smooth="yes"/>
      <point x="165" y="619"/>
      <point x="209" y="658"/>
      <point x="272" y="658" type="curve" smooth="yes"/>
      <point x="353" y="658"/>
      <point x="417" y="600"/>
      <point x="464" y="479" type="curve"/>
      <point x="488" y="485" type="line"/>
      <point x="483" y="670" type="line"/>
      <point x="435" y="690"/>
      <point x="375" y="713"/>
      <point x="300" y="713" type="curve" smooth="yes"/>
      <point x="160" y="713"/>
      <point x="72" y="634"/>
      <point x="72" y="529" type="curve" smooth="yes"/>
      <point x="72" y="464"/>
      <point x="105" y="407"/>
      <point x="181" y="364" type="curve" smooth="yes"/>
      <point x="341" y="273" type="line" smooth="yes"/>
      <point x="396" y="242"/>
      <point x="424" y="206"/>
      <point x="424" y="154" type="curve" smooth="yes"/>
      <point x="424" y="91"/>
      <point x="384" y="47"/>
      <point x="314" y="47" type="curve" smooth="yes"/>
      <point x="226" y="47"/>
      <point x="127" y="115"/>
      <point x="88" y="264" type="curve"/>
      <point x="63" y="261" type="line"/>
      <point x="60" y="71" type="line"/>
      <point x="114" y="17"/>
      <point x="187" y="-14"/>
    </contour>
  </outline>
</glyph>
<glyph name="T" format="2">
  <advance width="682"/>
  <unicode hex="0054"/>
  <anchor x="345" y="0" name="bottom"/>
  <outline>
    <contour>
      <point x="197" y="0" type="line"/>
      <point x="488" y="0" type="line"/>
      <point x="488" y="27" type="line"/>
      <point x="437" y="38"/>
      <point x="393" y="55"/>
      <point x="393" y="141" type="curve"/>
      <point x="295" y="141" type="line"/>
      <point x="295" y="55"/>
      <point x="254" y="42"/>
      <point x="197" y="31" type="curve"/>
    </contour>
    <contour>
      <point x="295" y="49" type="line"/>
      <point x="393" y="49" type="line"/>
      <point x="393" y="653" type="line"/>
      <point x="295" y="653" type="line"/>
    </contour>
    <component base="mi_barre_T" xOffset="-11"/>
    <component base="mi_barre_T" xScale="-1" xOffset="693"/>
  </outline>
</glyph>
<glyph name="U" format="2">
  <advance width="724"/>
  <unicode hex="0055"/>
  <anchor x="381" y="-14" name="bottom"/>
  <anchor x="384" y="700" name="top"/>
  <outline>
    <contour>
      <point x="372" y="-14" type="curve" smooth="yes"/>
      <point x="510" y="-14"/>
      <point x="635" y="88"/>
      <point x="635" y="246" type="curve" smooth="yes"/>
      <point x="635" y="554" type="line" smooth="yes"/>
      <point x="635" y="645"/>
      <point x="661" y="662"/>
      <point x="714" y="673" type="curve"/>
      <point x="714" y="700" type="line"/>
      <point x="465" y="700" type="line"/>
      <point x="465" y="673" type="line"/>
      <point x="532" y="666"/>
      <point x="573" y="645"/>
      <point x="573" y="554" type="curve" smooth="yes"/>
      <point x="573" y="249" type="line" smooth="yes"/>
      <point x="573" y="126"/>
      <point x="491" y="54"/>
      <point x="393" y="54" type="curve" smooth="yes"/>
      <point x="270" y="54"/>
      <point x="196" y="138"/>
      <point x="196" y="259" type="curve" smooth="yes"/>
      <point x="196" y="625" type="line"/>
      <point x="98" y="625" type="line"/>
      <point x="98" y="244" type="line" smooth="yes"/>
      <point x="98" y="78"/>
      <point x="226" y="-14"/>
    </contour>
    <contour>
      <point x="98" y="554" type="curve"/>
      <point x="196" y="554" type="line"/>
      <point x="196" y="635"/>
      <point x="239" y="666"/>
      <point x="312" y="673" type="curve"/>
      <point x="312" y="700" type="line"/>
      <point x="10" y="700" type="line"/>
      <point x="10" y="673" type="line"/>
      <point x="67" y="662"/>
      <point x="98" y="635"/>
    </contour>
  </outline>
</glyph>
<glyph name="V" format="2">
  <advance width="642"/>
  <unicode hex="0056"/>
  <anchor x="319" y="0" name="bottom"/>
  <outline>
    <contour>
      <point x="303" y="0" type="line"/>
      <point x="341" y="0" type="line"/>
      <point x="563" y="571" type="line" smooth="yes"/>
      <point x="585" y="628"/>
      <point x="632" y="668"/>
      <point x="667" y="671" type="curve"/>
      <point x="667" y="700" type="line"/>
      <point x="421" y="700" type="line"/>
      <point x="421" y="672" type="line"/>
      <point x="495" y="670"/>
      <point x="521" y="624"/>
      <point x="494" y="554" type="curve" smooth="yes"/>
      <point x="328" y="126" type="line"/>
      <point x="359" y="125" type="line"/>
      <point x="194" y="554" type="line" smooth="yes"/>
      <point x="167" y="624"/>
      <point x="204" y="669"/>
      <point x="271" y="671" type="curve"/>
      <point x="271" y="700" type="line"/>
      <point x="-20" y="700" type="line"/>
      <point x="-20" y="673" type="line"/>
      <point x="37" y="660"/>
      <point x="59" y="629"/>
      <point x="85" y="563" type="curve" smooth="yes"/>
    </contour>
  </outline>
</glyph>
<glyph name="W" format="2">
  <advance width="956"/>
  <unicode hex="0057"/>
  <anchor x="476" y="700" name="top"/>
  <outline>
    <contour>
      <point x="635" y="0" type="line"/>
      <point x="673" y="0" type="line"/>
      <point x="883" y="571" type="line" smooth="yes"/>
      <point x="904" y="628"/>
      <point x="951" y="668"/>
      <point x="986" y="671" type="curve"/>
      <point x="986" y="700" type="line"/>
      <point x="726" y="700" type="line"/>
      <point x="726" y="672" type="line"/>
      <point x="806" y="672"/>
      <point x="841" y="624"/>
      <point x="810" y="540" type="curve" smooth="yes"/>
      <point x="658" y="126" type="line"/>
      <point x="694" y="125" type="line"/>
      <point x="535" y="558" type="line" smooth="yes"/>
      <point x="509" y="630"/>
      <point x="548" y="671"/>
      <point x="621" y="671" type="curve"/>
      <point x="621" y="700" type="line"/>
      <point x="335" y="700" type="line"/>
      <point x="335" y="673" type="line"/>
      <point x="392" y="660"/>
      <point x="406" y="630"/>
      <point x="430" y="563" type="curve" smooth="yes"/>
    </contour>
    <component base="boutW" xOffset="-15"/>
  </outline>
</glyph>
<glyph name="X" format="2">
  <advance width="683"/>
  <unicode hex="0058"/>
  <anchor x="335" y="0" name="bottom"/>
  <outline>
    <contour>
      <point x="409" y="0" type="line"/>
      <point x="693" y="0" type="line"/>
      <point x="693" y="28" type="line"/>
      <point x="636" y="40"/>
      <point x="594" y="76"/>
      <point x="552" y="137" type="curve" smooth="yes"/>
      <point x="252" y="576" type="line" smooth="yes"/>
      <point x="215" y="630"/>
      <point x="240" y="669"/>
      <point x="288" y="672" type="curve"/>
      <point x="288" y="700" type="line"/>
      <point x="7" y="700" type="line"/>
      <point x="7" y="672" type="line"/>
      <point x="64" y="660"/>
      <point x="98" y="628"/>
      <point x="142" y="563" type="curve" smooth="yes"/>
      <point x="438" y="131" type="line" smooth="yes"/>
      <point x="477" y="74"/>
      <point x="460" y="32"/>
      <point x="409" y="28" type="curve"/>
    </contour>
    <contour>
      <point x="-10" y="0" type="line"/>
      <point x="235" y="0" type="line"/>
      <point x="235" y="28" type="line"/>
      <point x="184" y="33"/>
      <point x="166" y="78"/>
      <point x="204" y="133" type="curve" smooth="yes"/>
      <point x="350" y="343" type="line"/>
      <point x="315" y="395" type="line"/>
      <point x="131" y="129" type="line" smooth="yes"/>
      <point x="85" y="63"/>
      <point x="25" y="32"/>
      <point x="-10" y="28" type="curve"/>
    </contour>
    <contour>
      <point x="342" y="312" type="line"/>
      <point x="521" y="571" type="line" smooth="yes"/>
      <point x="562" y="630"/>
      <point x="621" y="668"/>
      <point x="656" y="672" type="curve"/>
      <point x="656" y="700" type="line"/>
      <point x="426" y="700" type="line"/>
      <point x="426" y="672" type="line"/>
      <point x="482" y="667"/>
      <point x="484" y="621"/>
      <point x="450" y="571" type="curve" smooth="yes"/>
      <point x="308" y="364" type="line"/>
    </contour>
  </outline>
</glyph>
<glyph name="Y" format="2">
  <advance width="597"/>
  <unicode hex="0059"/>
  <anchor x="324" y="700" name="top"/>
  <outline>
    <contour>
      <point x="294" y="233" type="line"/>
      <point x="332" y="233" type="line"/>
      <point x="519" y="571" type="line" smooth="yes"/>
      <point x="555" y="636"/>
      <point x="587" y="668"/>
      <point x="622" y="672" type="curve"/>
      <point x="622" y="700" type="line"/>
      <point x="397" y="700" type="line"/>
      <point x="397" y="672" type="line"/>
      <point x="465" y="670"/>
      <point x="484" y="628"/>
      <point x="452" y="570" type="curve" smooth="yes"/>
      <point x="310" y="312" type="line"/>
      <point x="361" y="312" type="line"/>
      <point x="208" y="571" type="line" smooth="yes"/>
      <point x="173" y="630"/>
      <point x="196" y="671"/>
      <point x="261" y="672" type="curve"/>
      <point x="261" y="700" type="line"/>
      <point x="-20" y="700" type="line"/>
      <point x="-20" y="672" type="line"/>
      <point x="34" y="666"/>
      <point x="61" y="626"/>
      <point x="91" y="576" type="curve" smooth="yes"/>
    </contour>
    <contour>
      <point x="179" y="0" type="line"/>
      <point x="452" y="0" type="line"/>
      <point x="452" y="27" type="line"/>
      <point x="399" y="38"/>
      <point x="365" y="55"/>
      <point x="365" y="141" type="curve"/>
      <point x="267" y="141" type="line"/>
      <point x="267" y="55"/>
      <point x="236" y="38"/>
      <point x="179" y="27" type="curve"/>
    </contour>
    <contour>
      <point x="267" y="49" type="line"/>
      <point x="365" y="49" type="line"/>
      <point x="365" y="328" type="line"/>
      <point x="267" y="328" type="line"/>
    </contour>
  </outline>
</glyph>
<glyph name="Z" format="2">
  <advance width="617"/>
  <unicode hex="005A"/>
  <outline>
    <contour>
      <point x="43" y="0" type="line"/>
      <point x="566" y="0" type="line"/>
      <point x="587" y="216" type="line"/>
      <point x="559" y="220" type="line"/>
      <point x="522" y="104"/>
      <point x="474" y="53"/>
      <point x="382" y="53" type="curve" smooth="yes"/>
      <point x="164" y="53" type="line"/>
      <point x="560" y="675" type="line"/>
      <point x="549" y="700" type="line"/>
      <point x="203" y="700" type="line" smooth="yes"/>
      <point x="127" y="700"/>
      <point x="104" y="702"/>
      <point x="97" y="732" type="curve"/>
      <point x="69" y="732" type="line"/>
      <point x="38" y="501" type="line"/>
      <point x="65" y="497" type="line"/>
      <point x="91" y="584"/>
      <point x="141" y="647"/>
      <point x="227" y="647" type="curve" smooth="yes"/>
      <point x="426" y="647" type="line"/>
      <point x="30" y="26" type="line"/>
    </contour>
  </outline>
</glyph>
<glyph name="bracketleft" format="2">
  <advance width="287"/>
  <unicode hex="005B"/>
  <outline>
    <contour>
      <point x="40" y="700" type="line"/>
      <point x="40" y="-164" type="line"/>
      <point x="120" y="-164" type="line"/>
      <point x="120" y="700" type="line"/>
    </contour>
    <contour>
      <point x="82" y="700" type="line"/>
      <point x="82" y="647" type="line"/>
      <point x="287" y="647" type="line"/>
      <point x="287" y="700" type="line"/>
    </contour>
    <contour>
      <point x="82" y="-111" type="line"/>
      <point x="82" y="-164" type="line"/>
      <point x="287" y="-164" type="line"/>
      <point x="287" y="-111" type="line"/>
    </contour>
  </outline>
</glyph>
<glyph name="a" format="2">
  <advance width="489"/>
  <unicode hex="0061"/>
  <note>
a
</note>
  <anchor x="260" y="0" name="bottom"/>
  <anchor x="239" y="470" name="top"/>
  <outline>
    <contour>
      <point x="377" y="-14" type="curve" smooth="yes"/>
      <point x="413" y="-14"/>
      <point x="453" y="22"/>
      <point x="479" y="52" type="curve"/>
      <point x="461" y="73" type="line"/>
      <point x="448" y="63"/>
      <point x="433" y="52"/>
      <point x="421" y="52" type="curve" smooth="yes"/>
      <point x="406" y="52"/>
      <point x="397" y="62"/>
      <point x="397" y="82" type="curve" smooth="yes"/>
      <point x="397" y="349" type="line" smooth="yes"/>
      <point x="397" y="431"/>
      <point x="349" y="484"/>
      <point x="274" y="484" type="curve" smooth="yes"/>
      <point x="182" y="484"/>
      <point x="55" y="400"/>
      <point x="55" y="338" type="curve" smooth="yes"/>
      <point x="55" y="315"/>
      <point x="63" y="298"/>
      <point x="79" y="280" type="curve"/>
      <point x="157" y="313" type="line"/>
      <point x="149" y="329"/>
      <point x="144" y="347"/>
      <point x="144" y="361" type="curve" smooth="yes"/>
      <point x="144" y="398"/>
      <point x="187" y="426"/>
      <point x="224" y="426" type="curve" smooth="yes"/>
      <point x="287" y="426"/>
      <point x="309" y="389"/>
      <point x="309" y="317" type="curve" smooth="yes"/>
      <point x="309" y="63" type="line" smooth="yes"/>
      <point x="309" y="11"/>
      <point x="343" y="-14"/>
    </contour>
    <contour>
      <point x="177" y="-14" type="curve" smooth="yes"/>
      <point x="242" y="-14"/>
      <point x="291" y="34"/>
      <point x="327" y="72" type="curve"/>
      <point x="324" y="117" type="line"/>
      <point x="302" y="86"/>
      <point x="261" y="52"/>
      <point x="219" y="52" type="curve" smooth="yes"/>
      <point x="181" y="52"/>
      <point x="152" y="76"/>
      <point x="152" y="113" type="curve" smooth="yes"/>
      <point x="152" y="143"/>
      <point x="167" y="168"/>
      <point x="213" y="183" type="curve" smooth="yes"/>
      <point x="325" y="220" type="line"/>
      <point x="325" y="264" type="line"/>
      <point x="168" y="214" type="line" smooth="yes"/>
      <point x="97" y="191"/>
      <point x="57" y="158"/>
      <point x="57" y="93" type="curve" smooth="yes"/>
      <point x="57" y="30"/>
      <point x="116" y="-14"/>
    </contour>
  </outline>
</glyph>
<glyph name="b" format="2">
  <advance width="517"/>
  <unicode hex="0062"/>
  <note>
b
</note>
  <outline>
    <contour>
      <point x="156" y="-2" type="curve"/>
      <point x="156" y="676" type="line"/>
      <point x="68" y="676" type="line"/>
      <point x="68" y="178" type="line" smooth="yes"/>
      <point x="68" y="111"/>
      <point x="67" y="80"/>
      <point x="56" y="25" type="curve"/>
      <point x="69" y="10" type="line"/>
      <point x="97" y="10"/>
      <point x="122" y="5"/>
    </contour>
    <component base="empattement_haut" xOffset="12" yOffset="4"/>
    <component base="panse" xOffset="-32"/>
  </outline>
</glyph>
<glyph name="c" format="2">
  <advance width="420"/>
  <unicode hex="0063"/>
  <note>
c
</note>
  <anchor x="234" y="-9" name="bottom"/>
  <outline>
    <contour>
      <point x="225" y="-13" type="curve" smooth="yes"/>
      <point x="297" y="-13"/>
      <point x="367" y="38"/>
      <point x="405" y="103" type="curve"/>
      <point x="382" y="123" type="line"/>
      <point x="352" y="90"/>
      <point x="316" y="64"/>
      <point x="270" y="64" type="curve" smooth="yes"/>
      <point x="191" y="64"/>
      <point x="121" y="160"/>
      <point x="121" y="269" type="curve" smooth="yes"/>
      <point x="121" y="368"/>
      <point x="169" y="429"/>
      <point x="219" y="429" type="curve" smooth="yes"/>
      <point x="270" y="429"/>
      <point x="308" y="382"/>
      <point x="343" y="330" type="curve"/>
      <point x="400" y="421" type="line"/>
      <point x="370" y="452"/>
      <point x="317" y="483"/>
      <point x="249" y="483" type="curve" smooth="yes"/>
      <point x="122" y="483"/>
      <point x="30" y="373"/>
      <point x="30" y="232" type="curve" smooth="yes"/>
      <point x="30" y="92"/>
      <point x="121" y="-13"/>
    </contour>
  </outline>
</glyph>
<glyph name="d" format="2">
  <advance width="540"/>
  <unicode hex="0064"/>
  <note>
d
</note>
  <outline>
    <component base="empattement_decale" xScale="-1" yScale="-1" xOffset="551" yOffset="473"/>
    <contour>
      <point x="360" y="103" type="line"/>
      <point x="448" y="103" type="line"/>
      <point x="448" y="665" type="line"/>
      <point x="360" y="665" type="line"/>
    </contour>
    <component base="empattement_haut" xOffset="304" yOffset="4"/>
    <component base="panse" xScale="-1" yScale="-1" xOffset="549" yOffset="470"/>
  </outline>
</glyph>
<glyph name="e" format="2">
  <advance width="436"/>
  <unicode hex="0065"/>
  <note>
e
</note>
  <anchor x="232" y="0" name="bottom"/>
  <anchor x="236" y="470" name="top"/>
  <outline>
    <contour>
      <point x="234" y="-13" type="curve" smooth="yes"/>
      <point x="308" y="-13"/>
      <point x="368" y="35"/>
      <point x="416" y="99" type="curve"/>
      <point x="395" y="122" type="line"/>
      <point x="351" y="84"/>
      <point x="323" y="65"/>
      <point x="275" y="65" type="curve" smooth="yes"/>
      <point x="180" y="65"/>
      <point x="123" y="154"/>
      <point x="123" y="267" type="curve" smooth="yes"/>
      <point x="123" y="362"/>
      <point x="163" y="434"/>
      <point x="221" y="434" type="curve" smooth="yes"/>
      <point x="276" y="434"/>
      <point x="312" y="370"/>
      <point x="312" y="304" type="curve"/>
      <point x="86" y="304" type="line"/>
      <point x="86" y="259" type="line"/>
      <point x="413" y="259" type="line"/>
      <point x="413" y="361"/>
      <point x="375" y="484"/>
      <point x="245" y="484" type="curve" smooth="yes"/>
      <point x="118" y="484"/>
      <point x="30" y="365"/>
      <point x="30" y="228" type="curve" smooth="yes"/>
      <point x="30" y="80"/>
      <point x="132" y="-13"/>
    </contour>
  </outline>
</glyph>
<glyph name="f" format="2">
  <advance width="341"/>
  <unicode hex="0066"/>
  <note>
f
</note>
  <anchor x="161" y="0" name="bottom"/>
  <outline>
    <component base="empattement_bas_long" xOffset="16" yOffset="250"/>
    <contour>
      <point x="98" y="366" type="curve"/>
      <point x="180" y="413" type="line"/>
      <point x="305" y="413" type="line"/>
      <point x="329" y="452" type="line"/>
      <point x="322" y="470" type="line"/>
      <point x="164" y="470" type="line"/>
      <point x="110" y="476" type="line"/>
      <point x="30" y="446" type="line"/>
      <point x="30" y="423" type="line"/>
      <point x="81" y="421"/>
      <point x="98" y="404"/>
    </contour>
    <component base="f-haut" xOffset="10"/>
    <contour>
      <point x="186" y="468" type="line"/>
      <point x="98" y="468" type="line"/>
      <point x="98" y="24" type="line"/>
      <point x="186" y="24" type="line"/>
    </contour>
  </outline>
</glyph>
<glyph name="g" format="2">
  <advance width="502"/>
  <unicode hex="0067"/>
  <note>
g
</note>
  <outline>
    <contour>
      <point x="212" y="-264" type="curve" smooth="yes"/>
      <point x="336" y="-264"/>
      <point x="464" y="-170"/>
      <point x="464" y="-61" type="curve" smooth="yes"/>
      <point x="464" y="8"/>
      <point x="415" y="45"/>
      <point x="333" y="55" type="curve" smooth="yes"/>
      <point x="189" y="73" type="line" smooth="yes"/>
      <point x="158" y="77"/>
      <point x="146" y="93"/>
      <point x="146" y="112" type="curve" smooth="yes"/>
      <point x="146" y="132"/>
      <point x="162" y="148"/>
      <point x="188" y="169" type="curve"/>
      <point x="151" y="188" type="line"/>
      <point x="103" y="145"/>
      <point x="64" y="104"/>
      <point x="64" y="71" type="curve" smooth="yes"/>
      <point x="64" y="38"/>
      <point x="84" y="0"/>
      <point x="150" y="-7" type="curve" smooth="yes"/>
      <point x="290" y="-21" type="line" smooth="yes"/>
      <point x="357" y="-28"/>
      <point x="387" y="-58"/>
      <point x="387" y="-102" type="curve" smooth="yes"/>
      <point x="387" y="-155"/>
      <point x="322" y="-200"/>
      <point x="252" y="-200" type="curve" smooth="yes"/>
      <point x="176" y="-200"/>
      <point x="113" y="-158"/>
      <point x="113" y="-111" type="curve" smooth="yes"/>
      <point x="113" y="-74"/>
      <point x="166" y="-25"/>
      <point x="206" y="6" type="curve"/>
      <point x="165" y="15" type="line"/>
      <point x="104" y="-18"/>
      <point x="25" y="-86"/>
      <point x="25" y="-136" type="curve" smooth="yes"/>
      <point x="25" y="-216"/>
      <point x="111" y="-264"/>
    </contour>
    <contour>
      <point x="233" y="138" type="curve" smooth="yes"/>
      <point x="340" y="138"/>
      <point x="428" y="222"/>
      <point x="428" y="314" type="curve" smooth="yes"/>
      <point x="428" y="415"/>
      <point x="350" y="484"/>
      <point x="247" y="484" type="curve" smooth="yes"/>
      <point x="140" y="484"/>
      <point x="61" y="399"/>
      <point x="61" y="310" type="curve" smooth="yes"/>
      <point x="61" y="210"/>
      <point x="130" y="138"/>
    </contour>
    <contour>
      <point x="263" y="188" type="curve" smooth="yes"/>
      <point x="204" y="188"/>
      <point x="153" y="259"/>
      <point x="153" y="330" type="curve" smooth="yes"/>
      <point x="153" y="377"/>
      <point x="170" y="438"/>
      <point x="224" y="438" type="curve" smooth="yes"/>
      <point x="288" y="438"/>
      <point x="338" y="366"/>
      <point x="338" y="299" type="curve" smooth="yes"/>
      <point x="338" y="236"/>
      <point x="315" y="188"/>
    </contour>
    <contour>
      <point x="346" y="413" type="line"/>
      <point x="463" y="413" type="line"/>
      <point x="487" y="452" type="line"/>
      <point x="480" y="470" type="line"/>
      <point x="320" y="470" type="line"/>
    </contour>
  </outline>
</glyph>
<glyph name="i" format="2">
  <advance width="269"/>
  <unicode hex="0069"/>
  <note>
i
</note>
  <outline>
    <contour>
      <point x="98" y="27" type="line"/>
      <point x="186" y="27" type="line"/>
      <point x="186" y="345" type="line"/>
      <point x="98" y="345" type="line"/>
    </contour>
    <component base="empattement_bas" xScale="-1" xOffset="278"/>
    <component base="empattement_haut" xOffset="42" yOffset="-256"/>
    <component base="point_ij" xOffset="19"/>
  </outline>
</glyph>
<glyph name="j" format="2">
  <advance width="252"/>
  <unicode hex="006A"/>
  <note>
j
</note>
  <outline>
    <contour>
      <point x="-17" y="-247" type="line"/>
      <point x="62" y="-177"/>
      <point x="179" y="-59"/>
      <point x="179" y="40" type="curve" smooth="yes"/>
      <point x="179" y="371" type="line"/>
      <point x="91" y="371" type="line"/>
      <point x="91" y="31" type="line" smooth="yes"/>
      <point x="91" y="-65"/>
      <point x="34" y="-149"/>
      <point x="-35" y="-226" type="curve"/>
    </contour>
    <component base="empattement_haut" xOffset="35" yOffset="-256"/>
    <component base="point_ij" xOffset="13"/>
  </outline>
</glyph>
<glyph name="l" format="2">
  <advance width="249"/>
  <unicode hex="006C"/>
  <note>
l
</note>
  <anchor x="130" y="0" name="bottom"/>
  <outline>
    <contour>
      <point x="78" y="39" type="line"/>
      <point x="166" y="39" type="line"/>
      <point x="166" y="645" type="line"/>
      <point x="78" y="645" type="line"/>
    </contour>
    <component base="empattement_bas" xOffset="-14"/>
    <component base="empattement_haut" xOffset="22" yOffset="4"/>
  </outline>
</glyph>
<glyph name="n" format="2">
  <advance width="560"/>
  <unicode hex="006E"/>
  <note>
n
</note>
  <anchor x="295" y="0" name="bottom"/>
  <anchor x="298" y="470" name="top"/>
  <outline>
    <contour>
      <point x="102" y="27" type="line"/>
      <point x="190" y="27" type="line"/>
      <point x="190" y="354" type="line"/>
      <point x="102" y="354" type="line"/>
    </contour>
    <component base="empattement_bas" xOffset="10"/>
    <component base="empattement_decale" xOffset="-1" yOffset="-3"/>
    <component base="empattement_bas" xScale="-1" xOffset="574"/>
    <component base="epaule" xOffset="-5"/>
  </outline>
</glyph>
<glyph name="o" format="2">
  <advance width="506"/>
  <unicode hex="006F"/>
  <note>
o
</note>
  <anchor x="277" y="0" name="bottom"/>
  <anchor x="238" y="470" name="top"/>
  <outline>
    <contour>
      <point x="256" y="-14" type="curve" smooth="yes"/>
      <point x="385" y="-14"/>
      <point x="476" y="108"/>
      <point x="476" y="239" type="curve" smooth="yes"/>
      <point x="476" y="377"/>
      <point x="373" y="484"/>
      <point x="251" y="484" type="curve" smooth="yes"/>
      <point x="120" y="484"/>
      <point x="30" y="364"/>
      <point x="30" y="234" type="curve" smooth="yes"/>
      <point x="30" y="97"/>
      <point x="132" y="-14"/>
    </contour>
    <contour>
      <point x="278" y="40" type="curve" smooth="yes"/>
      <point x="195" y="40"/>
      <point x="130" y="149"/>
      <point x="130" y="271" type="curve" smooth="yes"/>
      <point x="130" y="362"/>
      <point x="165" y="430"/>
      <point x="230" y="430" type="curve" smooth="yes"/>
      <point x="313" y="430"/>
      <point x="377" y="320"/>
      <point x="377" y="197" type="curve" smooth="yes"/>
      <point x="377" y="107"/>
      <point x="343" y="40"/>
    </contour>
  </outline>
</glyph>
<glyph name="p" format="2">
  <advance width="548"/>
  <unicode hex="0070"/>
  <note>
p
</note>
  <outline>
    <component base="empattement_bas_long" xOffset="19"/>
    <contour>
      <point x="101" y="-138" type="line"/>
      <point x="189" y="-138" type="line"/>
      <point x="189" y="353" type="line"/>
      <point x="101" y="353" type="line"/>
    </contour>
    <component base="empattement_decale" xOffset="-1"/>
    <component base="panse" xOffset="-1"/>
  </outline>
</glyph>
<glyph name="q" format="2">
  <advance width="504"/>
  <unicode hex="0071"/>
  <note>
q
</note>
  <anchor x="280" y="470" name="top"/>
  <outline>
    <component base="empattement_bas_long" xScale="-1" xOffset="521"/>
    <contour>
      <point x="399" y="460" type="line"/>
      <point x="351" y="395" type="line"/>
      <point x="351" y="-191" type="line"/>
      <point x="439" y="-191" type="line"/>
      <point x="439" y="298" type="line" smooth="yes"/>
      <point x="439" y="359"/>
      <point x="444" y="393"/>
      <point x="452" y="428" type="curve"/>
      <point x="439" y="449" type="line"/>
    </contour>
    <component base="panse" xScale="-1" yScale="-1" xOffset="549" yOffset="470"/>
  </outline>
</glyph>
<glyph name="r" format="2">
  <advance width="396"/>
  <unicode hex="0072"/>
  <note>
r
</note>
  <anchor x="152" y="0" name="bottom"/>
  <outline>
    <contour>
      <point x="180" y="273" type="line"/>
      <point x="200" y="328"/>
      <point x="236" y="388"/>
      <point x="285" y="388" type="curve" smooth="yes"/>
      <point x="310" y="388"/>
      <point x="340" y="371"/>
      <point x="362" y="350" type="curve"/>
      <point x="401" y="441" type="line"/>
      <point x="388" y="457"/>
      <point x="353" y="478"/>
      <point x="315" y="478" type="curve" smooth="yes"/>
      <point x="246" y="478"/>
      <point x="194" y="380"/>
      <point x="171" y="313" type="curve"/>
    </contour>
    <component base="empattement_bas_long" xOffset="20" yOffset="250"/>
    <contour>
      <point x="102" y="51" type="line"/>
      <point x="190" y="51" type="line"/>
      <point x="190" y="347" type="line"/>
      <point x="102" y="347" type="line"/>
    </contour>
    <component base="empattement_decale" xOffset="-1"/>
  </outline>
</glyph>
<glyph name="s" format="2">
  <advance width="412"/>
  <unicode hex="0073"/>
  <note>
s
</note>
  <anchor x="218" y="0" name="bottom"/>
  <outline>
    <contour>
      <point x="204" y="-14" type="curve" smooth="yes"/>
      <point x="290" y="-14"/>
      <point x="382" y="40"/>
      <point x="382" y="134" type="curve" smooth="yes"/>
      <point x="382" y="183"/>
      <point x="357" y="227"/>
      <point x="294" y="254" type="curve" smooth="yes"/>
      <point x="207" y="291" type="line" smooth="yes"/>
      <point x="141" y="319"/>
      <point x="126" y="344"/>
      <point x="126" y="369" type="curve" smooth="yes"/>
      <point x="126" y="402"/>
      <point x="153" y="432"/>
      <point x="193" y="432" type="curve" smooth="yes"/>
      <point x="241" y="432"/>
      <point x="289" y="389"/>
      <point x="324" y="348" type="curve"/>
      <point x="361" y="448" type="line"/>
      <point x="326" y="468"/>
      <point x="281" y="484"/>
      <point x="222" y="484" type="curve" smooth="yes"/>
      <point x="126" y="484"/>
      <point x="49" y="427"/>
      <point x="49" y="339" type="curve" smooth="yes"/>
      <point x="49" y="287"/>
      <point x="76" y="249"/>
      <point x="146" y="219" type="curve" smooth="yes"/>
      <point x="235" y="181" type="line" smooth="yes"/>
      <point x="287" y="159"/>
      <point x="307" y="139"/>
      <point x="307" y="107" type="curve" smooth="yes"/>
      <point x="307" y="67"/>
      <point x="273" y="40"/>
      <point x="231" y="40" type="curve" smooth="yes"/>
      <point x="175" y="40"/>
      <point x="122" y="88"/>
      <point x="87" y="148" type="curve"/>
      <point x="25" y="51" type="line"/>
      <point x="60" y="17"/>
      <point x="134" y="-14"/>
    </contour>
  </outline>
</glyph>
<glyph name="t" format="2">
  <advance width="321"/>
  <unicode hex="0074"/>
  <note>
t
</note>
  <anchor x="189" y="0" name="bottom"/>
  <outline>
    <contour>
      <point x="186" y="-14" type="curve" smooth="yes"/>
      <point x="234" y="-14"/>
      <point x="286" y="28"/>
      <point x="316" y="63" type="curve"/>
      <point x="297" y="84" type="line"/>
      <point x="272" y="66"/>
      <point x="249" y="50"/>
      <point x="223" y="50" type="curve" smooth="yes"/>
      <point x="186" y="50"/>
      <point x="168" y="77"/>
      <point x="168" y="127" type="curve" smooth="yes"/>
      <point x="168" y="456" type="line"/>
      <point x="80" y="456" type="line"/>
      <point x="80" y="113" type="line" smooth="yes"/>
      <point x="80" y="20"/>
      <point x="130" y="-14"/>
    </contour>
    <contour>
      <point x="16" y="413" type="line"/>
      <point x="281" y="413" type="line"/>
      <point x="305" y="451" type="line"/>
      <point x="298" y="470" type="line"/>
      <point x="169" y="470" type="line"/>
      <point x="169" y="580" type="line"/>
      <point x="140" y="580" type="line"/>
      <point x="10" y="440" type="line"/>
    </contour>
  </outline>
</glyph>
<glyph name="u" format="2">
  <advance width="545"/>
  <unicode hex="0075"/>
  <note>
u
</note>
  <anchor x="270" y="0" name="bottom"/>
  <anchor x="269" y="470" name="top"/>
  <outline>
    <contour>
      <point x="365" y="102" type="line"/>
      <point x="453" y="102" type="line"/>
      <point x="453" y="418" type="line"/>
      <point x="365" y="418" type="line"/>
    </contour>
    <component base="epaule" xScale="-1" yScale="-1" xOffset="575" yOffset="470"/>
    <component base="empattement_haut" xOffset="32" yOffset="-256"/>
    <component base="empattement_decale" xScale="-1" yScale="-1" xOffset="556" yOffset="470"/>
    <component base="empattement_haut" xOffset="309" yOffset="-256"/>
  </outline>
</glyph>
<glyph name="v" format="2">
  <advance width="489"/>
  <unicode hex="0076"/>
  <note>
v
</note>
  <anchor x="239" y="0" name="bottom"/>
  <outline>
    <contour>
      <point x="228" y="-9" type="line"/>
      <point x="265" y="-9" type="line"/>
      <point x="425" y="373" type="line" smooth="yes"/>
      <point x="445" y="421"/>
      <point x="477" y="439"/>
      <point x="499" y="443" type="curve"/>
      <point x="499" y="470" type="line"/>
      <point x="301" y="470" type="line"/>
      <point x="301" y="443" type="line"/>
      <point x="347" y="442"/>
      <point x="390" y="425"/>
      <point x="364" y="359" type="curve" smooth="yes"/>
      <point x="254" y="77" type="line"/>
      <point x="285" y="80" type="line"/>
      <point x="163" y="361" type="line" smooth="yes"/>
      <point x="136" y="423"/>
      <point x="185" y="442"/>
      <point x="223" y="443" type="curve"/>
      <point x="223" y="470" type="line"/>
      <point x="-15" y="470" type="line"/>
      <point x="-15" y="443" type="line"/>
      <point x="18" y="438"/>
      <point x="38" y="420"/>
      <point x="62" y="366" type="curve" smooth="yes"/>
    </contour>
  </outline>
</glyph>
<glyph name="w" format="2">
  <advance width="763"/>
  <unicode hex="0077"/>
  <note>
w
</note>
  <anchor x="397" y="470" name="top"/>
  <outline>
    <contour>
      <point x="515" y="-9" type="line"/>
      <point x="552" y="-9" type="line"/>
      <point x="699" y="373" type="line" smooth="yes"/>
      <point x="717" y="420"/>
      <point x="751" y="439"/>
      <point x="773" y="443" type="curve"/>
      <point x="773" y="470" type="line"/>
      <point x="580" y="470" type="line"/>
      <point x="580" y="443" type="line"/>
      <point x="621" y="442"/>
      <point x="663" y="426"/>
      <point x="639" y="359" type="curve" smooth="yes"/>
      <point x="540" y="77" type="line"/>
      <point x="572" y="80" type="line"/>
      <point x="462" y="361" type="line" smooth="yes"/>
      <point x="437" y="424"/>
      <point x="485" y="442"/>
      <point x="518" y="443" type="curve"/>
      <point x="518" y="470" type="line"/>
      <point x="283" y="470" type="line"/>
      <point x="283" y="443" type="line"/>
      <point x="318" y="438"/>
      <point x="339" y="420"/>
      <point x="361" y="366" type="curve" smooth="yes"/>
    </contour>
    <component base="boutw" xOffset="-15"/>
  </outline>
</glyph>
<glyph name="x" format="2">
  <advance width="483"/>
  <unicode hex="0078"/>
  <note>
x
</note>
  <anchor x="222" y="0" name="bottom"/>
  <outline>
    <contour>
      <point x="277" y="0" type="line"/>
      <point x="483" y="0" type="line"/>
      <point x="483" y="27" type="line"/>
      <point x="466" y="31"/>
      <point x="430" y="60"/>
      <point x="393" y="110" type="curve" smooth="yes"/>
      <point x="192" y="383" type="line" smooth="yes"/>
      <point x="170" y="413"/>
      <point x="173" y="440"/>
      <point x="213" y="443" type="curve"/>
      <point x="213" y="470" type="line"/>
      <point x="14" y="470" type="line"/>
      <point x="14" y="443" type="line"/>
      <point x="37" y="441"/>
      <point x="68" y="410"/>
      <point x="92" y="377" type="curve" smooth="yes"/>
      <point x="301" y="98" type="line" smooth="yes"/>
      <point x="331" y="57"/>
      <point x="318" y="30"/>
      <point x="277" y="27" type="curve"/>
    </contour>
    <contour>
      <point x="-5" y="0" type="line"/>
      <point x="181" y="0" type="line"/>
      <point x="181" y="27" type="line"/>
      <point x="129" y="32"/>
      <point x="130" y="67"/>
      <point x="154" y="97" type="curve" smooth="yes"/>
      <point x="273" y="248" type="line"/>
      <point x="228" y="271" type="line"/>
      <point x="129" y="139" type="line" smooth="yes"/>
      <point x="96" y="94"/>
      <point x="22" y="28"/>
      <point x="-5" y="27" type="curve"/>
    </contour>
    <contour>
      <point x="257" y="214" type="line"/>
      <point x="349" y="331" type="line" smooth="yes"/>
      <point x="383" y="374"/>
      <point x="440" y="439"/>
      <point x="475" y="443" type="curve"/>
      <point x="475" y="470" type="line"/>
      <point x="305" y="470" type="line"/>
      <point x="305" y="443" type="line"/>
      <point x="351" y="441"/>
      <point x="357" y="415"/>
      <point x="333" y="385" type="curve" smooth="yes"/>
      <point x="213" y="231" type="line"/>
    </contour>
  </outline>
</glyph>
<glyph name="y" format="2">
  <advance width="497"/>
  <unicode hex="0079"/>
  <note>
y
</note>
  <anchor x="266" y="470" name="top"/>
  <outline>
    <contour>
      <point x="-15" y="-245" type="line"/>
      <point x="14" y="-254"/>
      <point x="40" y="-259"/>
      <point x="63" y="-259" type="curve" smooth="yes"/>
      <point x="134" y="-259"/>
      <point x="180" y="-218"/>
      <point x="206" y="-157" type="curve" smooth="yes"/>
      <point x="437" y="373" type="line" smooth="yes"/>
      <point x="460" y="425"/>
      <point x="485" y="440"/>
      <point x="507" y="443" type="curve"/>
      <point x="507" y="470" type="line"/>
      <point x="309" y="470" type="line"/>
      <point x="309" y="443" type="line"/>
      <point x="355" y="442"/>
      <point x="408" y="432"/>
      <point x="377" y="359" type="curve" smooth="yes"/>
      <point x="177" y="-113" type="line" smooth="yes"/>
      <point x="161" y="-150"/>
      <point x="136" y="-171"/>
      <point x="98" y="-171" type="curve" smooth="yes"/>
      <point x="76" y="-171"/>
      <point x="48" y="-162"/>
      <point x="16" y="-140" type="curve"/>
    </contour>
    <contour>
      <point x="245" y="-17" type="line"/>
      <point x="291" y="96" type="line"/>
      <point x="176" y="361" type="line" smooth="yes"/>
      <point x="148" y="425"/>
      <point x="197" y="442"/>
      <point x="235" y="443" type="curve"/>
      <point x="235" y="470" type="line"/>
      <point x="-6" y="470" type="line"/>
      <point x="-6" y="443" type="line"/>
      <point x="29" y="439"/>
      <point x="50" y="420"/>
      <point x="74" y="366" type="curve" smooth="yes"/>
    </contour>
  </outline>
</glyph>
<glyph name="z" format="2">
  <advance width="458"/>
  <unicode hex="007A"/>
  <outline>
    <contour>
      <point x="36" y="-1" type="line"/>
      <point x="381" y="-1" type="line"/>
      <point x="418" y="157" type="line"/>
      <point x="395" y="164" type="line"/>
      <point x="366" y="109"/>
      <point x="331" y="83"/>
      <point x="273" y="83" type="curve" smooth="yes"/>
      <point x="134" y="83" type="line"/>
      <point x="415" y="446" type="line"/>
      <point x="405" y="470" type="line"/>
      <point x="91" y="470" type="line"/>
      <point x="44" y="316" type="line"/>
      <point x="68" y="306" type="line"/>
      <point x="98" y="362"/>
      <point x="129" y="386"/>
      <point x="174" y="386" type="curve" smooth="yes"/>
      <point x="311" y="386" type="line"/>
      <point x="25" y="24" type="line"/>
    </contour>
  </outline>
</glyph>
<glyph name="bar" format="2">
  <advance width="138"/>
  <unicode hex="007C"/>
  <outline>
    <contour>
      <point x="30" y="700" type="line"/>
      <point x="30" y="-152" type="line"/>
      <point x="108" y="-152" type="line"/>
      <point x="108" y="700" type="line"/>
    </contour>
  </outline>
</glyph>
<glyph name="cent" format="2">
  <advance width="420"/>
  <unicode hex="00A2"/>
  <outline>
    <component base="c" yOffset="112"/>
    <contour>
      <point x="213" y="700" type="line"/>
      <point x="213" y="574" type="line"/>
      <point x="263" y="574" type="line"/>
      <point x="263" y="700" type="line"/>
    </contour>
    <contour>
      <point x="213" y="128" type="line"/>
      <point x="213" y="2" type="line"/>
      <point x="263" y="2" type="line"/>
      <point x="263" y="128" type="line"/>
    </contour>
  </outline>
</glyph>
<glyph name="sterling" format="2">
  <advance width="564"/>
  <unicode hex="00A3"/>
  <outline>
    <contour>
      <point x="544" y="637" type="line"/>
      <point x="484" y="700"/>
      <point x="439" y="714"/>
      <point x="389" y="714" type="curve" smooth="yes"/>
      <point x="289" y="714"/>
      <point x="191" y="620"/>
      <point x="171" y="424" type="curve" smooth="yes"/>
      <point x="160" y="317" type="line" smooth="yes"/>
      <point x="149" y="210"/>
      <point x="127" y="138"/>
      <point x="104" y="86" type="curve"/>
      <point x="53" y="73"/>
      <point x="15" y="43"/>
      <point x="15" y="10" type="curve" smooth="yes"/>
      <point x="15" y="-3"/>
      <point x="25" y="-14"/>
      <point x="42" y="-14" type="curve" smooth="yes"/>
      <point x="78" y="-14"/>
      <point x="108" y="26"/>
      <point x="132" y="60" type="curve"/>
      <point x="214" y="42"/>
      <point x="273" y="-14"/>
      <point x="381" y="-14" type="curve" smooth="yes"/>
      <point x="468" y="-14"/>
      <point x="532" y="55"/>
      <point x="532" y="138" type="curve" smooth="yes"/>
      <point x="532" y="182"/>
      <point x="515" y="207"/>
      <point x="493" y="227" type="curve"/>
      <point x="430" y="164" type="line"/>
      <point x="459" y="145"/>
      <point x="481" y="126"/>
      <point x="481" y="100" type="curve" smooth="yes"/>
      <point x="481" y="79"/>
      <point x="464" y="60"/>
      <point x="432" y="60" type="curve" smooth="yes"/>
      <point x="356" y="60"/>
      <point x="291" y="119"/>
      <point x="222" y="119" type="curve" smooth="yes"/>
      <point x="195" y="119"/>
      <point x="165" y="104"/>
      <point x="148" y="93" type="curve"/>
      <point x="190" y="148"/>
      <point x="250" y="214"/>
      <point x="261" y="382" type="curve" smooth="yes"/>
      <point x="268" y="485" type="line" smooth="yes"/>
      <point x="277" y="617"/>
      <point x="307" y="651"/>
      <point x="349" y="651" type="curve" smooth="yes"/>
      <point x="391" y="651"/>
      <point x="432" y="614"/>
      <point x="477" y="556" type="curve"/>
    </contour>
    <contour>
      <point x="69" y="382" type="line"/>
      <point x="55" y="332" type="line"/>
      <point x="431" y="332" type="line"/>
      <point x="445" y="382" type="line"/>
    </contour>
  </outline>
</glyph>
<glyph name="currency" format="2">
  <advance width="448"/>
  <unicode hex="00A4"/>
  <outline>
    <component base="degree" xScale="1.1" yScale="1.1" xOffset="58" yOffset="-301"/>
    <contour>
      <point x="25" y="506" type="line"/>
      <point x="126" y="404" type="line"/>
      <point x="165" y="443" type="line"/>
      <point x="64" y="544" type="line"/>
    </contour>
    <contour>
      <point x="283" y="248" type="line"/>
      <point x="385" y="146" type="line"/>
      <point x="423" y="185" type="line"/>
      <point x="322" y="287" type="line"/>
    </contour>
    <contour>
      <point x="384" y="544" type="line"/>
      <point x="282" y="443" type="line"/>
      <point x="321" y="404" type="line"/>
      <point x="423" y="506" type="line"/>
    </contour>
    <contour>
      <point x="126" y="286" type="line"/>
      <point x="25" y="185" type="line"/>
      <point x="63" y="146" type="line"/>
      <point x="165" y="247" type="line"/>
    </contour>
  </outline>
</glyph>
<glyph name="yen" format="2">
  <advance width="597"/>
  <unicode hex="00A5"/>
  <outline>
    <component base="Y"/>
    <contour>
      <point x="68" y="470" type="line"/>
      <point x="68" y="409" type="line"/>
      <point x="244" y="409" type="line"/>
      <point x="244" y="470" type="line"/>
    </contour>
    <contour>
      <point x="68" y="312" type="line"/>
      <point x="68" y="251" type="line"/>
      <point x="564" y="251" type="line"/>
      <point x="564" y="312" type="line"/>
    </contour>
    <contour>
      <point x="428" y="470" type="line"/>
      <point x="428" y="409" type="line"/>
      <point x="564" y="409" type="line"/>
      <point x="564" y="470" type="line"/>
    </contour>
  </outline>
</glyph>
<glyph name="section" format="2">
  <advance width="489"/>
  <unicode hex="00A7"/>
  <outline>
    <contour>
      <point x="268" y="88" type="line"/>
      <point x="346" y="120"/>
      <point x="439" y="181"/>
      <point x="439" y="266" type="curve" smooth="yes"/>
      <point x="439" y="315"/>
      <point x="408" y="367"/>
      <point x="351" y="407" type="curve" smooth="yes"/>
      <point x="232" y="490" type="line" smooth="yes"/>
      <point x="169" y="534"/>
      <point x="151" y="563"/>
      <point x="151" y="592" type="curve" smooth="yes"/>
      <point x="151" y="630"/>
      <point x="178" y="660"/>
      <point x="217" y="660" type="curve" smooth="yes"/>
      <point x="266" y="660"/>
      <point x="314" y="619"/>
      <point x="349" y="578" type="curve"/>
      <point x="386" y="678" type="line"/>
      <point x="351" y="698"/>
      <point x="305" y="714"/>
      <point x="251" y="714" type="curve" smooth="yes"/>
      <point x="151" y="714"/>
      <point x="69" y="647"/>
      <point x="69" y="562" type="curve" smooth="yes"/>
      <point x="69" y="497"/>
      <point x="107" y="462"/>
      <point x="171" y="418" type="curve" smooth="yes"/>
      <point x="292" y="335" type="line" smooth="yes"/>
      <point x="340" y="302"/>
      <point x="360" y="272"/>
      <point x="360" y="242" type="curve" smooth="yes"/>
      <point x="360" y="200"/>
      <point x="320" y="162"/>
      <point x="253" y="123" type="curve"/>
    </contour>
    <contour>
      <point x="241" y="-220" type="curve" smooth="yes"/>
      <point x="329" y="-220"/>
      <point x="424" y="-159"/>
      <point x="424" y="-62" type="curve" smooth="yes"/>
      <point x="424" y="-15"/>
      <point x="400" y="32"/>
      <point x="333" y="77" type="curve" smooth="yes"/>
      <point x="193" y="171" type="line" smooth="yes"/>
      <point x="154" y="197"/>
      <point x="127" y="227"/>
      <point x="127" y="267" type="curve" smooth="yes"/>
      <point x="127" y="301"/>
      <point x="155" y="342"/>
      <point x="228" y="390" type="curve"/>
      <point x="220" y="430" type="line"/>
      <point x="126" y="392"/>
      <point x="49" y="317"/>
      <point x="49" y="237" type="curve" smooth="yes"/>
      <point x="49" y="174"/>
      <point x="85" y="131"/>
      <point x="133" y="99" type="curve" smooth="yes"/>
      <point x="274" y="4" type="line" smooth="yes"/>
      <point x="319" y="-26"/>
      <point x="347" y="-51"/>
      <point x="347" y="-91" type="curve" smooth="yes"/>
      <point x="347" y="-135"/>
      <point x="307" y="-166"/>
      <point x="266" y="-166" type="curve" smooth="yes"/>
      <point x="212" y="-166"/>
      <point x="161" y="-120"/>
      <point x="126" y="-58" type="curve"/>
      <point x="64" y="-155" type="line"/>
      <point x="99" y="-189"/>
      <point x="174" y="-220"/>
    </contour>
  </outline>
</glyph>
<glyph name="copyright" format="2">
  <advance width="610"/>
  <unicode hex="00A9"/>
  <outline>
    <contour>
      <point x="298" y="275" type="curve" smooth="yes"/>
      <point x="344" y="275"/>
      <point x="389" y="307"/>
      <point x="414" y="349" type="curve"/>
      <point x="398" y="366" type="line"/>
      <point x="378" y="345"/>
      <point x="355" y="328"/>
      <point x="326" y="328" type="curve" smooth="yes"/>
      <point x="275" y="328"/>
      <point x="230" y="386"/>
      <point x="230" y="456" type="curve" smooth="yes"/>
      <point x="230" y="520"/>
      <point x="261" y="557"/>
      <point x="294" y="557" type="curve" smooth="yes"/>
      <point x="327" y="557"/>
      <point x="350" y="524"/>
      <point x="373" y="491" type="curve"/>
      <point x="410" y="555" type="line"/>
      <point x="391" y="575"/>
      <point x="357" y="595"/>
      <point x="313" y="595" type="curve" smooth="yes"/>
      <point x="231" y="595"/>
      <point x="168" y="524"/>
      <point x="168" y="433" type="curve" smooth="yes"/>
      <point x="168" y="342"/>
      <point x="230" y="275"/>
    </contour>
    <contour>
      <point x="305" y="143" type="curve" smooth="yes"/>
      <point x="465" y="143"/>
      <point x="590" y="270"/>
      <point x="590" y="429" type="curve" smooth="yes"/>
      <point x="590" y="588"/>
      <point x="465" y="714"/>
      <point x="305" y="714" type="curve" smooth="yes"/>
      <point x="145" y="714"/>
      <point x="20" y="588"/>
      <point x="20" y="429" type="curve" smooth="yes"/>
      <point x="20" y="270"/>
      <point x="145" y="143"/>
    </contour>
    <contour>
      <point x="305" y="191" type="curve" smooth="yes"/>
      <point x="173" y="191"/>
      <point x="68" y="297"/>
      <point x="68" y="429" type="curve" smooth="yes"/>
      <point x="68" y="560"/>
      <point x="173" y="666"/>
      <point x="305" y="666" type="curve" smooth="yes"/>
      <point x="437" y="666"/>
      <point x="542" y="560"/>
      <point x="542" y="429" type="curve" smooth="yes"/>
      <point x="542" y="297"/>
      <point x="437" y="191"/>
    </contour>
  </outline>
</glyph>
<glyph name="registered" format="2">
  <advance width="610"/>
  <unicode hex="00AE"/>
  <outline>
    <contour>
      <point x="305" y="143" type="curve" smooth="yes"/>
      <point x="465" y="143"/>
      <point x="590" y="270"/>
      <point x="590" y="429" type="curve" smooth="yes"/>
      <point x="590" y="588"/>
      <point x="465" y="714"/>
      <point x="305" y="714" type="curve" smooth="yes"/>
      <point x="145" y="714"/>
      <point x="20" y="588"/>
      <point x="20" y="429" type="curve" smooth="yes"/>
      <point x="20" y="270"/>
      <point x="145" y="143"/>
    </contour>
    <contour>
      <point x="305" y="191" type="curve" smooth="yes"/>
      <point x="173" y="191"/>
      <point x="68" y="297"/>
      <point x="68" y="429" type="curve" smooth="yes"/>
      <point x="68" y="560"/>
      <point x="173" y="666"/>
      <point x="305" y="666" type="curve" smooth="yes"/>
      <point x="437" y="666"/>
      <point x="542" y="560"/>
      <point x="542" y="429" type="curve" smooth="yes"/>
      <point x="542" y="297"/>
      <point x="437" y="191"/>
    </contour>
    <contour>
      <point x="188" y="293" type="line"/>
      <point x="307" y="293" type="line"/>
      <point x="307" y="304" type="line"/>
      <point x="286" y="307"/>
      <point x="274" y="314"/>
      <point x="274" y="349" type="curve" smooth="yes"/>
      <point x="274" y="417" type="line"/>
      <point x="288" y="417" type="line" smooth="yes"/>
      <point x="298" y="417"/>
      <point x="304" y="411"/>
      <point x="310" y="402" type="curve" smooth="yes"/>
      <point x="382" y="293" type="line"/>
      <point x="463" y="293" type="line"/>
      <point x="463" y="303" type="line"/>
      <point x="456" y="306" type="line" smooth="yes"/>
      <point x="436" y="315"/>
      <point x="368" y="416"/>
      <point x="353" y="431" type="curve"/>
      <point x="382" y="441"/>
      <point x="415" y="468"/>
      <point x="415" y="499" type="curve" smooth="yes"/>
      <point x="415" y="546"/>
      <point x="369" y="573"/>
      <point x="281" y="573" type="curve" smooth="yes"/>
      <point x="188" y="573" type="line"/>
      <point x="188" y="562" type="line"/>
      <point x="207" y="558"/>
      <point x="211" y="550"/>
      <point x="211" y="516" type="curve" smooth="yes"/>
      <point x="211" y="349" type="line" smooth="yes"/>
      <point x="211" y="315"/>
      <point x="207" y="308"/>
      <point x="188" y="304" type="curve"/>
    </contour>
    <contour>
      <point x="274" y="439" type="line"/>
      <point x="274" y="552" type="line"/>
      <point x="280" y="552" type="line" smooth="yes"/>
      <point x="322" y="552"/>
      <point x="350" y="530"/>
      <point x="350" y="496" type="curve" smooth="yes"/>
      <point x="350" y="462"/>
      <point x="323" y="439"/>
      <point x="288" y="439" type="curve" smooth="yes"/>
    </contour>
  </outline>
</glyph>
<glyph name="degree" format="2">
  <advance width="301"/>
  <unicode hex="00B0"/>
  <outline>
    <contour>
      <point x="151" y="510" type="curve" smooth="yes"/>
      <point x="109" y="510"/>
      <point x="73" y="545"/>
      <point x="73" y="588" type="curve" smooth="yes"/>
      <point x="73" y="629"/>
      <point x="109" y="664"/>
      <point x="151" y="664" type="curve" smooth="yes"/>
      <point x="193" y="664"/>
      <point x="228" y="629"/>
      <point x="228" y="588" type="curve" smooth="yes"/>
      <point x="228" y="545"/>
      <point x="193" y="510"/>
    </contour>
    <contour>
      <point x="151" y="460" type="curve" smooth="yes"/>
      <point x="220" y="460"/>
      <point x="277" y="518"/>
      <point x="277" y="588" type="curve" smooth="yes"/>
      <point x="277" y="657"/>
      <point x="220" y="714"/>
      <point x="151" y="714" type="curve" smooth="yes"/>
      <point x="81" y="714"/>
      <point x="24" y="657"/>
      <point x="24" y="588" type="curve" smooth="yes"/>
      <point x="24" y="518"/>
      <point x="81" y="460"/>
    </contour>
  </outline>
</glyph>
<glyph name="paragraph" format="2">
  <advance width="647"/>
  <unicode hex="00B6"/>
  <outline>
    <contour>
      <point x="304" y="-250" type="line"/>
      <point x="359" y="-250" type="line"/>
      <point x="359" y="647" type="line"/>
      <point x="454" y="647" type="line"/>
      <point x="454" y="-250" type="line"/>
      <point x="509" y="-250" type="line"/>
      <point x="509" y="568" type="line" smooth="yes"/>
      <point x="509" y="643"/>
      <point x="540" y="662"/>
      <point x="597" y="673" type="curve"/>
      <point x="597" y="700" type="line"/>
      <point x="304" y="700" type="line" smooth="yes"/>
      <point x="153" y="700"/>
      <point x="50" y="597"/>
      <point x="50" y="470" type="curve" smooth="yes"/>
      <point x="50" y="343"/>
      <point x="153" y="238"/>
      <point x="304" y="238" type="curve"/>
    </contour>
  </outline>
</glyph>
<glyph name="germandbls" format="2">
  <advance width="609"/>
  <unicode hex="00DF"/>
  <outline>
    <contour>
      <point x="420" y="-14" type="curve" smooth="yes"/>
      <point x="503" y="-14"/>
      <point x="589" y="42"/>
      <point x="589" y="135" type="curve" smooth="yes"/>
      <point x="589" y="187"/>
      <point x="551" y="230"/>
      <point x="505" y="258" type="curve" smooth="yes"/>
      <point x="430" y="304" type="line" smooth="yes"/>
      <point x="397" y="324"/>
      <point x="377" y="344"/>
      <point x="377" y="375" type="curve" smooth="yes"/>
      <point x="377" y="451"/>
      <point x="522" y="493"/>
      <point x="522" y="603" type="curve" smooth="yes"/>
      <point x="522" y="684"/>
      <point x="442" y="744"/>
      <point x="342" y="744" type="curve" smooth="yes"/>
      <point x="200" y="744"/>
      <point x="98" y="639"/>
      <point x="98" y="471" type="curve" smooth="yes"/>
      <point x="98" y="460" type="line"/>
      <point x="186" y="460" type="line"/>
      <point x="186" y="507" type="line" smooth="yes"/>
      <point x="186" y="628"/>
      <point x="241" y="691"/>
      <point x="319" y="691" type="curve" smooth="yes"/>
      <point x="381" y="691"/>
      <point x="420" y="645"/>
      <point x="420" y="580" type="curve" smooth="yes"/>
      <point x="420" y="469"/>
      <point x="294" y="426"/>
      <point x="294" y="337" type="curve" smooth="yes"/>
      <point x="294" y="287"/>
      <point x="332" y="259"/>
      <point x="397" y="219" type="curve" smooth="yes"/>
      <point x="453" y="185" type="line" smooth="yes"/>
      <point x="494" y="160"/>
      <point x="515" y="139"/>
      <point x="515" y="106" type="curve" smooth="yes"/>
      <point x="515" y="65"/>
      <point x="481" y="40"/>
      <point x="445" y="40" type="curve" smooth="yes"/>
      <point x="388" y="40"/>
      <point x="348" y="93"/>
      <point x="313" y="153" type="curve"/>
      <point x="250" y="77" type="line"/>
      <point x="286" y="22"/>
      <point x="347" y="-14"/>
    </contour>
    <contour>
      <point x="35" y="0" type="line"/>
      <point x="186" y="0" type="line"/>
      <point x="186" y="137" type="line"/>
      <point x="98" y="137" type="line"/>
      <point x="98" y="53"/>
      <point x="78" y="36"/>
      <point x="35" y="27" type="curve"/>
    </contour>
    <contour>
      <point x="98" y="24" type="line"/>
      <point x="186" y="24" type="line"/>
      <point x="186" y="468" type="line"/>
      <point x="98" y="468" type="line"/>
    </contour>
    <contour>
      <point x="98" y="366" type="curve"/>
      <point x="180" y="413" type="line"/>
      <point x="164" y="470" type="line"/>
      <point x="110" y="476" type="line"/>
      <point x="30" y="446" type="line"/>
      <point x="30" y="423" type="line"/>
      <point x="81" y="421"/>
      <point x="98" y="404"/>
    </contour>
  </outline>
</glyph>
<glyph name="idotless" format="2">
  <advance width="269"/>
  <unicode hex="0131"/>
  <anchor x="127" y="470" name="top"/>
  <outline>
    <contour>
      <point x="98" y="27" type="line"/>
      <point x="186" y="27" type="line"/>
      <point x="186" y="345" type="line"/>
      <point x="98" y="345" type="line"/>
    </contour>
    <component base="empattement_bas" xScale="-1" xOffset="278"/>
    <component base="empattement_haut" xOffset="42" yOffset="-256"/>
  </outline>
</glyph>
<glyph name="OE" format="2">
  <advance width="1012"/>
  <unicode hex="0152"/>
  <outline>
    <contour>
      <point x="375" y="0" type="curve" smooth="yes"/>
      <point x="627" y="0" type="line"/>
      <point x="627" y="700" type="line"/>
      <point x="456" y="700" type="line" smooth="yes"/>
      <point x="200" y="700"/>
      <point x="30" y="540"/>
      <point x="30" y="338" type="curve" smooth="yes"/>
      <point x="30" y="124"/>
      <point x="187" y="0"/>
    </contour>
    <contour>
      <point x="400" y="48" type="curve" smooth="yes"/>
      <point x="256" y="48"/>
      <point x="136" y="169"/>
      <point x="136" y="349" type="curve" smooth="yes"/>
      <point x="136" y="534"/>
      <point x="260" y="647"/>
      <point x="452" y="647" type="curve" smooth="yes"/>
      <point x="529" y="647" type="line"/>
      <point x="529" y="134" type="line" smooth="yes"/>
      <point x="529" y="65"/>
      <point x="492" y="48"/>
    </contour>
    <contour>
      <point x="529" y="49" type="line"/>
      <point x="627" y="49" type="line"/>
      <point x="627" y="700" type="line"/>
      <point x="455" y="700" type="line"/>
      <point x="445" y="647" type="line"/>
      <point x="492" y="646"/>
      <point x="529" y="645"/>
      <point x="529" y="559" type="curve" smooth="yes"/>
    </contour>
    <component base="E" xOffset="411"/>
  </outline>
</glyph>
<glyph name="oe" format="2">
  <advance width="796"/>
  <unicode hex="0153"/>
  <outline>
    <contour>
      <point x="262" y="-14" type="curve" smooth="yes"/>
      <point x="356" y="-14"/>
      <point x="434" y="52"/>
      <point x="469" y="140" type="curve"/>
      <point x="464" y="347" type="line"/>
      <point x="424" y="429"/>
      <point x="343" y="484"/>
      <point x="257" y="484" type="curve" smooth="yes"/>
      <point x="128" y="484"/>
      <point x="30" y="364"/>
      <point x="30" y="234" type="curve" smooth="yes"/>
      <point x="30" y="97"/>
      <point x="140" y="-14"/>
    </contour>
    <contour>
      <point x="291" y="40" type="curve" smooth="yes"/>
      <point x="213" y="40"/>
      <point x="128" y="133"/>
      <point x="128" y="264" type="curve" smooth="yes"/>
      <point x="128" y="360"/>
      <point x="163" y="430"/>
      <point x="227" y="430" type="curve" smooth="yes"/>
      <point x="307" y="430"/>
      <point x="390" y="341"/>
      <point x="390" y="204" type="curve" smooth="yes"/>
      <point x="390" y="111"/>
      <point x="357" y="40"/>
    </contour>
    <component base="e" xOffset="360" identifier="4555F6B8"/>
  </outline>
</glyph>
<glyph name="longs" format="2">
  <advance width="341"/>
  <unicode hex="017F"/>
  <anchor x="161" y="0" name="bottom"/>
  <outline>
    <component base="empattement_bas_long" xOffset="16" yOffset="250"/>
    <contour>
      <point x="98" y="366" type="curve"/>
      <point x="180" y="413" type="line"/>
      <point x="164" y="470" type="line"/>
      <point x="110" y="476" type="line"/>
      <point x="30" y="446" type="line"/>
      <point x="30" y="423" type="line"/>
      <point x="81" y="421"/>
      <point x="98" y="404"/>
    </contour>
    <component base="f-haut" xOffset="10"/>
    <contour>
      <point x="186" y="468" type="line"/>
      <point x="98" y="468" type="line"/>
      <point x="98" y="24" type="line"/>
      <point x="186" y="24" type="line"/>
    </contour>
  </outline>
</glyph>
<glyph name="acutecomb" format="2">
  <advance width="211"/>
  <unicode hex="0301"/>
  <anchor x="85" y="470" name="_top"/>
  <outline>
    <contour>
      <point x="62" y="533" type="line"/>
      <point x="223" y="715" type="line"/>
      <point x="103" y="715" type="line"/>
      <point x="38" y="547" type="line"/>
    </contour>
  </outline>
</glyph>
<glyph name="circumflexcomb" format="2">
  <advance width="278"/>
  <unicode hex="0302"/>
  <guideline x="139" y="266" angle="90"/>
  <anchor x="124" y="470" name="_top"/>
  <outline>
    <contour>
      <point x="13" y="531" type="line"/>
      <point x="131" y="655" type="line"/>
      <point x="107" y="655" type="line"/>
      <point x="227" y="532" type="line"/>
      <point x="256" y="554" type="line"/>
      <point x="159" y="714" type="line"/>
      <point x="84" y="714" type="line"/>
      <point x="-16" y="553" type="line"/>
    </contour>
  </outline>
</glyph>
<glyph name="tildecomb" format="2">
  <advance width="600"/>
  <unicode hex="0303"/>
  <anchor x="238" y="470" name="_top"/>
  <outline>
    <contour>
      <point x="105" y="577" type="line"/>
      <point x="120" y="607"/>
      <point x="141" y="627"/>
      <point x="172" y="627" type="curve" smooth="yes"/>
      <point x="214" y="627"/>
      <point x="273" y="582"/>
      <point x="323" y="582" type="curve" smooth="yes"/>
      <point x="370" y="582"/>
      <point x="401" y="636"/>
      <point x="421" y="693" type="curve"/>
      <point x="396" y="704" type="line"/>
      <point x="381" y="674"/>
      <point x="360" y="654"/>
      <point x="329" y="654" type="curve" smooth="yes"/>
      <point x="287" y="654"/>
      <point x="228" y="699"/>
      <point x="178" y="699" type="curve" smooth="yes"/>
      <point x="131" y="699"/>
      <point x="100" y="645"/>
      <point x="80" y="588" type="curve"/>
    </contour>
  </outline>
</glyph>
<glyph name="macroncomb" format="2">
  <advance width="362"/>
  <unicode hex="0304"/>
  <guideline x="181" y="568" angle="270"/>
  <anchor x="181" y="470" name="_top"/>
  <outline>
    <contour>
      <point x="55" y="570" type="line"/>
      <point x="309" y="570" type="line"/>
      <point x="309" y="625" type="line"/>
      <point x="55" y="625" type="line"/>
    </contour>
  </outline>
</glyph>
<glyph name="dieresiscomb" format="2">
  <advance width="330"/>
  <unicode hex="0308"/>
  <anchor x="154" y="470" name="_top"/>
  <outline>
    <contour>
      <point x="239" y="583" type="curve" smooth="yes"/>
      <point x="270" y="583"/>
      <point x="300" y="612"/>
      <point x="300" y="650" type="curve" smooth="yes"/>
      <point x="300" y="678"/>
      <point x="276" y="704"/>
      <point x="245" y="704" type="curve" smooth="yes"/>
      <point x="212" y="704"/>
      <point x="184" y="677"/>
      <point x="184" y="639" type="curve" smooth="yes"/>
      <point x="184" y="606"/>
      <point x="211" y="583"/>
    </contour>
    <contour>
      <point x="70" y="583" type="curve" smooth="yes"/>
      <point x="101" y="583"/>
      <point x="130" y="612"/>
      <point x="130" y="650" type="curve" smooth="yes"/>
      <point x="130" y="678"/>
      <point x="107" y="704"/>
      <point x="75" y="704" type="curve" smooth="yes"/>
      <point x="43" y="704"/>
      <point x="14" y="677"/>
      <point x="14" y="639" type="curve" smooth="yes"/>
      <point x="14" y="606"/>
      <point x="42" y="583"/>
    </contour>
  </outline>
</glyph>
<glyph name="commaaccentcomb" format="2">
  <advance width="278"/>
  <unicode hex="0326"/>
  <anchor x="138" y="0" name="_bottom"/>
  <outline>
    <contour>
      <point x="82" y="-264" type="line"/>
      <point x="173" y="-227"/>
      <point x="209" y="-176"/>
      <point x="209" y="-127" type="curve" smooth="yes"/>
      <point x="209" y="-85"/>
      <point x="181" y="-49"/>
      <point x="138" y="-49" type="curve" smooth="yes"/>
      <point x="100" y="-49"/>
      <point x="74" y="-90"/>
      <point x="79" y="-126" type="curve"/>
      <point x="118" y="-128"/>
      <point x="138" y="-144"/>
      <point x="138" y="-171" type="curve" smooth="yes"/>
      <point x="138" y="-199"/>
      <point x="113" y="-221"/>
      <point x="74" y="-244" type="curve"/>
    </contour>
  </outline>
</glyph>
<glyph name="cedillacomb" format="2">
  <advance width="600"/>
  <unicode hex="0327"/>
  <anchor x="275" y="0" name="_bottom"/>
  <outline>
    <contour>
      <point x="244" y="-264" type="curve" smooth="yes"/>
      <point x="310" y="-264"/>
      <point x="369" y="-221"/>
      <point x="369" y="-155" type="curve" smooth="yes"/>
      <point x="369" y="-110"/>
      <point x="341" y="-77"/>
      <point x="282" y="-57" type="curve" smooth="yes"/>
      <point x="253" y="-47" type="line"/>
      <point x="280" y="14" type="line"/>
      <point x="239" y="19" type="line"/>
      <point x="180" y="-76" type="line"/>
      <point x="192" y="-98" type="line"/>
      <point x="242" y="-114" type="line" smooth="yes"/>
      <point x="293" y="-130"/>
      <point x="312" y="-152"/>
      <point x="312" y="-177" type="curve" smooth="yes"/>
      <point x="312" y="-199"/>
      <point x="296" y="-219"/>
      <point x="268" y="-219" type="curve" smooth="yes"/>
      <point x="232" y="-219"/>
      <point x="193" y="-188"/>
      <point x="176" y="-138" type="curve"/>
      <point x="116" y="-188" type="line"/>
      <point x="146" y="-237"/>
      <point x="191" y="-264"/>
    </contour>
  </outline>
</glyph>
<glyph name="endash" format="2">
  <advance width="475"/>
  <unicode hex="2013"/>
  <outline>
    <contour>
      <point x="0" y="268" type="line"/>
      <point x="475" y="268" type="line"/>
      <point x="475" y="313" type="line"/>
      <point x="0" y="313" type="line"/>
    </contour>
  </outline>
</glyph>
<glyph name="dagger" format="2">
  <advance width="347"/>
  <unicode hex="2020"/>
  <outline>
    <contour>
      <point x="174" y="541" type="curve" smooth="yes"/>
      <point x="183" y="541"/>
      <point x="190" y="548"/>
      <point x="190" y="558" type="curve" smooth="yes"/>
      <point x="190" y="567"/>
      <point x="183" y="574"/>
      <point x="174" y="574" type="curve" smooth="yes"/>
      <point x="165" y="574"/>
      <point x="158" y="567"/>
      <point x="158" y="558" type="curve" smooth="yes"/>
      <point x="158" y="548"/>
      <point x="165" y="541"/>
    </contour>
    <component base="bout_asterisk" xScale="0.1392" xyScale="-0.9903" yScale="-0.1392" yxScale="-0.9903" xOffset="687" yOffset="939"/>
    <component base="bout_asterisk" xOffset="-125" yOffset="11"/>
    <contour>
      <point x="165" y="-44" type="line"/>
      <point x="185" y="-44" type="line"/>
      <point x="237" y="388" type="line"/>
      <point x="180" y="567" type="line"/>
      <point x="165" y="567" type="line"/>
      <point x="113" y="388" type="line"/>
    </contour>
    <component base="bout_asterisk" xScale="-0.1392" xyScale="-0.9903" yScale="-0.1392" yxScale="0.9903" xOffset="-340" yOffset="939"/>
  </outline>
</glyph>
<glyph name="daggerdbl" format="2">
  <advance width="350"/>
  <unicode hex="2021"/>
  <outline>
    <contour>
      <point x="174" y="541" type="curve" smooth="yes"/>
      <point x="183" y="541"/>
      <point x="190" y="548"/>
      <point x="190" y="558" type="curve" smooth="yes"/>
      <point x="190" y="567"/>
      <point x="183" y="574"/>
      <point x="174" y="574" type="curve" smooth="yes"/>
      <point x="165" y="574"/>
      <point x="158" y="567"/>
      <point x="158" y="558" type="curve" smooth="yes"/>
      <point x="158" y="548"/>
      <point x="165" y="541"/>
    </contour>
    <component base="bout_asterisk" xScale="0.1392" xyScale="-0.9903" yScale="-0.1392" yxScale="-0.9903" xOffset="687" yOffset="939"/>
    <component base="bout_asterisk" xOffset="-125" yOffset="11"/>
    <contour>
      <point x="165" y="336" type="line"/>
      <point x="185" y="336" type="line"/>
      <point x="237" y="418" type="line"/>
      <point x="180" y="567" type="line"/>
      <point x="165" y="567" type="line"/>
      <point x="113" y="418" type="line"/>
    </contour>
    <component base="bout_asterisk" xScale="-0.1392" xyScale="-0.9903" yScale="-0.1392" yxScale="0.9903" xOffset="-340" yOffset="939"/>
    <contour>
      <point x="173" y="145" type="curve" smooth="yes"/>
      <point x="164" y="145"/>
      <point x="157" y="138"/>
      <point x="157" y="128" type="curve" smooth="yes"/>
      <point x="157" y="119"/>
      <point x="164" y="112"/>
      <point x="173" y="112" type="curve" smooth="yes"/>
      <point x="182" y="112"/>
      <point x="189" y="119"/>
      <point x="189" y="128" type="curve" smooth="yes"/>
      <point x="189" y="138"/>
      <point x="182" y="145"/>
    </contour>
    <component base="bout_asterisk" xScale="-0.1392" xyScale="0.9903" yScale="0.1392" yxScale="0.9903" xOffset="-337" yOffset="-253"/>
    <component base="bout_asterisk" xScale="-1" yScale="-1" xOffset="475" yOffset="675"/>
    <contour>
      <point x="185" y="350" type="line"/>
      <point x="165" y="350" type="line"/>
      <point x="113" y="268" type="line"/>
      <point x="170" y="119" type="line"/>
      <point x="185" y="119" type="line"/>
      <point x="237" y="268" type="line"/>
    </contour>
    <component base="bout_asterisk" xScale="0.1392" xyScale="0.9903" yScale="0.1392" yxScale="-0.9903" xOffset="690" yOffset="-253"/>
  </outline>
</glyph>
<glyph name="bullet" format="2">
  <advance width="267"/>
  <unicode hex="2022"/>
  <guideline x="112" y="384"/>
  <guideline x="112" y="332"/>
  <outline>
    <contour>
      <point x="134" y="249" type="curve" smooth="yes"/>
      <point x="194" y="249"/>
      <point x="237" y="294"/>
      <point x="237" y="352" type="curve" smooth="yes"/>
      <point x="237" y="408"/>
      <point x="194" y="456"/>
      <point x="134" y="456" type="curve" smooth="yes"/>
      <point x="75" y="456"/>
      <point x="30" y="408"/>
      <point x="30" y="352" type="curve" smooth="yes"/>
      <point x="30" y="294"/>
      <point x="75" y="249"/>
    </contour>
  </outline>
</glyph>
<glyph name="guilsinglleft" format="2">
  <advance width="329"/>
  <unicode hex="2039"/>
  <outline>
    <contour>
      <point x="265" y="44" type="line"/>
      <point x="289" y="70" type="line"/>
      <point x="120" y="277" type="line"/>
      <point x="120" y="248" type="line"/>
      <point x="289" y="455" type="line"/>
      <point x="265" y="480" type="line"/>
      <point x="30" y="284" type="line"/>
      <point x="30" y="240" type="line"/>
    </contour>
  </outline>
</glyph>
<glyph name="euro" format="2">
  <advance width="621"/>
  <unicode hex="20AC"/>
  <outline>
    <contour>
      <point x="395" y="-14" type="curve" smooth="yes"/>
      <point x="462" y="-14"/>
      <point x="530" y="12"/>
      <point x="579" y="44" type="curve"/>
      <point x="596" y="215" type="line"/>
      <point x="571" y="219" type="line"/>
      <point x="539" y="111"/>
      <point x="493" y="40"/>
      <point x="428" y="40" type="curve" smooth="yes"/>
      <point x="312" y="40"/>
      <point x="215" y="177"/>
      <point x="215" y="372" type="curve" smooth="yes"/>
      <point x="215" y="523"/>
      <point x="271" y="659"/>
      <point x="370" y="659" type="curve" smooth="yes"/>
      <point x="454" y="659"/>
      <point x="517" y="601"/>
      <point x="568" y="484" type="curve"/>
      <point x="591" y="492" type="line"/>
      <point x="574" y="668" type="line"/>
      <point x="525" y="697"/>
      <point x="456" y="714"/>
      <point x="399" y="714" type="curve" smooth="yes"/>
      <point x="230" y="714"/>
      <point x="104" y="548"/>
      <point x="104" y="349" type="curve" smooth="yes"/>
      <point x="104" y="150"/>
      <point x="233" y="-14"/>
    </contour>
    <contour>
      <point x="34" y="450" type="line"/>
      <point x="20" y="400" type="line"/>
      <point x="506" y="400" type="line"/>
      <point x="520" y="450" type="line"/>
    </contour>
    <contour>
      <point x="34" y="312" type="line"/>
      <point x="20" y="262" type="line"/>
      <point x="476" y="262" type="line"/>
      <point x="490" y="312" type="line"/>
    </contour>
  </outline>
</glyph>
<glyph name="trademark" format="2">
  <advance width="904"/>
  <unicode hex="2122"/>
  <outline>
    <contour>
      <point x="117" y="332" type="line"/>
      <point x="280" y="332" type="line"/>
      <point x="280" y="346" type="line"/>
      <point x="257" y="350"/>
      <point x="242" y="365"/>
      <point x="242" y="406" type="curve"/>
      <point x="157" y="406" type="line"/>
      <point x="157" y="360"/>
      <point x="141" y="349"/>
      <point x="117" y="346" type="curve"/>
    </contour>
    <contour>
      <point x="157" y="358" type="line"/>
      <point x="242" y="358" type="line"/>
      <point x="242" y="684" type="line"/>
      <point x="157" y="684" type="line"/>
    </contour>
    <contour>
      <point x="197" y="673" type="line"/>
      <point x="271" y="673" type="line" smooth="yes"/>
      <point x="319" y="673"/>
      <point x="346" y="641"/>
      <point x="361" y="587" type="curve"/>
      <point x="376" y="590" type="line"/>
      <point x="369" y="716" type="line"/>
      <point x="353" y="716" type="line"/>
      <point x="349" y="703"/>
      <point x="336" y="701"/>
      <point x="296" y="701" type="curve" smooth="yes"/>
      <point x="197" y="701" type="line"/>
    </contour>
    <contour>
      <point x="198" y="673" type="line"/>
      <point x="198" y="701" type="line"/>
      <point x="99" y="701" type="line" smooth="yes"/>
      <point x="60" y="701"/>
      <point x="47" y="703"/>
      <point x="43" y="716" type="curve"/>
      <point x="27" y="716" type="line"/>
      <point x="20" y="590" type="line"/>
      <point x="34" y="587" type="line"/>
      <point x="46" y="629"/>
      <point x="70" y="673"/>
      <point x="124" y="673" type="curve" smooth="yes"/>
    </contour>
    <contour>
      <point x="396" y="332" type="line"/>
      <point x="533" y="332" type="line"/>
      <point x="533" y="346" type="line"/>
      <point x="493" y="350"/>
      <point x="467" y="368"/>
      <point x="471" y="411" type="curve" smooth="yes"/>
      <point x="493" y="628" type="line"/>
      <point x="493" y="628" type="line"/>
      <point x="608" y="360" type="line"/>
      <point x="637" y="360" type="line"/>
      <point x="755" y="656" type="line"/>
      <point x="738" y="701" type="line"/>
      <point x="647" y="477" type="line"/>
      <point x="649" y="477" type="line"/>
      <point x="551" y="701" type="line"/>
      <point x="420" y="701" type="line"/>
      <point x="420" y="688" type="line"/>
      <point x="447" y="686"/>
      <point x="462" y="666"/>
      <point x="458" y="631" type="curve" smooth="yes"/>
      <point x="438" y="413" type="line" smooth="yes"/>
      <point x="433" y="370"/>
      <point x="424" y="358"/>
      <point x="396" y="346" type="curve"/>
    </contour>
    <contour>
      <point x="728" y="332" type="line"/>
      <point x="884" y="332" type="line"/>
      <point x="884" y="346" type="line"/>
      <point x="862" y="351"/>
      <point x="855" y="362"/>
      <point x="850" y="406" type="curve" smooth="yes"/>
      <point x="825" y="626" type="line" smooth="yes"/>
      <point x="820" y="664"/>
      <point x="829" y="680"/>
      <point x="854" y="687" type="curve"/>
      <point x="854" y="701" type="line"/>
      <point x="737" y="701" type="line"/>
      <point x="765" y="406" type="line" smooth="yes"/>
      <point x="770" y="360"/>
      <point x="750" y="352"/>
      <point x="728" y="346" type="curve"/>
    </contour>
  </outline>
</glyph>
<glyph name="HandPointingRight" format="2">
  <advance width="1460"/>
  <unicode hex="261E"/>
  <outline>
    <contour>
      <point x="171" y="48" type="line"/>
      <point x="47" y="44" type="line"/>
      <point x="124" y="146" type="line"/>
      <point x="19" y="175" type="line"/>
      <point x="114" y="247" type="line"/>
      <point x="10" y="266" type="line"/>
      <point x="114" y="320" type="line"/>
      <point x="19" y="375" type="line"/>
      <point x="127" y="403" type="line"/>
      <point x="47" y="505" type="line"/>
      <point x="180" y="463" type="line"/>
      <point x="134" y="602" type="line"/>
      <point x="326" y="466" type="line"/>
      <point x="432" y="530"/>
      <point x="578" y="597"/>
      <point x="642" y="617" type="curve"/>
      <point x="721" y="602"/>
      <point x="901" y="551"/>
      <point x="948" y="497" type="curve"/>
      <point x="1269" y="463" type="line" smooth="yes"/>
      <point x="1345" y="455"/>
      <point x="1415" y="445"/>
      <point x="1440" y="383" type="curve"/>
      <point x="1423" y="308"/>
      <point x="1349" y="300"/>
      <point x="1275" y="299" type="curve" smooth="yes"/>
      <point x="1042" y="295" type="line"/>
      <point x="1056" y="275"/>
      <point x="1064" y="247"/>
      <point x="1064" y="225" type="curve" smooth="yes"/>
      <point x="1064" y="187"/>
      <point x="1029" y="136"/>
      <point x="977" y="136" type="curve"/>
      <point x="982" y="123"/>
      <point x="986" y="107"/>
      <point x="986" y="92" type="curve" smooth="yes"/>
      <point x="986" y="32"/>
      <point x="914" y="-17"/>
      <point x="866" y="7" type="curve"/>
      <point x="868" y="-1"/>
      <point x="866" y="-10"/>
      <point x="866" y="-17" type="curve" smooth="yes"/>
      <point x="866" y="-52"/>
      <point x="821" y="-76"/>
      <point x="770" y="-76" type="curve" smooth="yes"/>
      <point x="747" y="-76"/>
      <point x="704" y="-71"/>
      <point x="668" y="-56" type="curve"/>
      <point x="646" y="-55"/>
      <point x="526" y="-30"/>
      <point x="481" y="-6" type="curve" smooth="yes"/>
      <point x="332" y="73" type="line"/>
      <point x="138" y="-76" type="line"/>
    </contour>
    <contour>
      <point x="699" y="-31" type="line"/>
      <point x="827" y="-36" type="line"/>
      <point x="841" y="12" type="line"/>
      <point x="650" y="155" type="line"/>
      <point x="618" y="147" type="line"/>
      <point x="593" y="90" type="line"/>
    </contour>
    <contour>
      <point x="667" y="184" type="line"/>
      <point x="872" y="45" type="line"/>
      <point x="919" y="37" type="line"/>
      <point x="957" y="73" type="line"/>
      <point x="941" y="125" type="line"/>
      <point x="696" y="247" type="line"/>
    </contour>
    <contour>
      <point x="721" y="321" type="line"/>
      <point x="746" y="268" type="line"/>
      <point x="951" y="163" type="line"/>
      <point x="1019" y="185" type="line"/>
      <point x="1029" y="238" type="line"/>
      <point x="996" y="283" type="line"/>
      <point x="943" y="272" type="line"/>
      <point x="852" y="300" type="line"/>
      <point x="770" y="379" type="line"/>
    </contour>
    <contour>
      <point x="650" y="-26" type="line"/>
      <point x="559" y="89" type="line"/>
      <point x="592" y="169" type="line"/>
      <point x="630" y="189" type="line"/>
      <point x="662" y="270" type="line"/>
      <point x="704" y="279" type="line"/>
      <point x="695" y="307" type="line"/>
      <point x="590" y="259" type="line"/>
      <point x="441" y="259" type="line"/>
      <point x="439" y="294" type="line"/>
      <point x="576" y="299" type="line"/>
      <point x="672" y="344" type="line"/>
      <point x="754" y="419" type="line"/>
      <point x="817" y="395" type="line"/>
      <point x="883" y="332" type="line"/>
      <point x="955" y="317" type="line"/>
      <point x="985" y="344" type="line"/>
      <point x="978" y="375" type="line"/>
      <point x="953" y="357" type="line"/>
      <point x="923" y="366" type="line"/>
      <point x="895" y="416" type="line"/>
      <point x="936" y="444" type="line"/>
      <point x="886" y="506" type="line"/>
      <point x="641" y="579" type="line"/>
      <point x="532" y="542"/>
      <point x="424" y="485"/>
      <point x="316" y="414" type="curve"/>
      <point x="295" y="268" type="line"/>
      <point x="330" y="121" type="line"/>
      <point x="511" y="22" type="line"/>
    </contour>
    <contour>
      <point x="969" y="451" type="line"/>
      <point x="1011" y="394" type="line"/>
      <point x="1022" y="334" type="line"/>
      <point x="1370" y="338" type="line"/>
      <point x="1401" y="370" type="line"/>
      <point x="1370" y="412" type="line"/>
    </contour>
    <contour>
      <point x="684" y="185" type="line"/>
      <point x="704" y="229" type="line"/>
      <point x="763" y="199" type="line"/>
      <point x="740" y="152" type="line"/>
    </contour>
    <contour>
      <point x="609" y="94" type="line"/>
      <point x="625" y="130" type="line"/>
      <point x="647" y="136" type="line"/>
      <point x="697" y="101" type="line"/>
      <point x="646" y="45" type="line"/>
    </contour>
    <contour>
      <point x="734" y="317" type="line"/>
      <point x="769" y="358" type="line"/>
      <point x="821" y="313" type="line"/>
      <point x="786" y="261" type="line"/>
      <point x="757" y="280" type="line"/>
    </contour>
  </outline>
</glyph>
<glyph name="A_E" format="2">
  <advance width="929"/>
  <unicode hex="F1010"/>
  <outline>
    <contour>
      <point x="-25" y="0" type="line"/>
      <point x="221" y="0" type="line"/>
      <point x="221" y="26" type="line"/>
      <point x="144" y="34"/>
      <point x="127" y="87"/>
      <point x="167" y="156" type="curve" smooth="yes"/>
      <point x="469" y="672" type="line"/>
      <point x="446" y="678" type="line"/>
      <point x="446" y="49" type="line"/>
      <point x="544" y="49" type="line"/>
      <point x="544" y="700" type="line"/>
      <point x="308" y="700" type="line"/>
      <point x="308" y="673" type="line"/>
      <point x="360" y="671"/>
      <point x="390" y="651"/>
      <point x="361" y="602" type="curve" smooth="yes"/>
      <point x="84" y="129" type="line" smooth="yes"/>
      <point x="51" y="73"/>
      <point x="0" y="30"/>
      <point x="-25" y="27" type="curve"/>
    </contour>
    <contour>
      <point x="192" y="215" type="line"/>
      <point x="460" y="215" type="line"/>
      <point x="460" y="268" type="line"/>
      <point x="192" y="268" type="line"/>
    </contour>
    <contour>
      <point x="368" y="0" type="line"/>
      <point x="886" y="0" type="line"/>
      <point x="909" y="173" type="line"/>
      <point x="883" y="177" type="line"/>
      <point x="855" y="88"/>
      <point x="794" y="53"/>
      <point x="665" y="53" type="curve" smooth="yes"/>
      <point x="571" y="53"/>
      <point x="544" y="95"/>
      <point x="544" y="141" type="curve"/>
      <point x="446" y="141" type="line"/>
      <point x="446" y="55"/>
      <point x="415" y="36"/>
      <point x="368" y="25" type="curve"/>
    </contour>
    <contour>
      <point x="727" y="237" type="curve"/>
      <point x="754" y="237" type="line"/>
      <point x="754" y="485" type="line"/>
      <point x="727" y="485" type="line"/>
      <point x="719" y="429"/>
      <point x="697" y="388"/>
      <point x="611" y="388" type="curve" smooth="yes"/>
      <point x="529" y="388" type="line"/>
      <point x="529" y="335" type="line"/>
      <point x="611" y="335" type="line" smooth="yes"/>
      <point x="697" y="335"/>
      <point x="718" y="297"/>
    </contour>
    <contour>
      <point x="863" y="513" type="curve"/>
      <point x="889" y="520" type="line"/>
      <point x="863" y="700" type="line"/>
      <point x="509" y="700" type="line"/>
      <point x="509" y="647" type="line"/>
      <point x="676" y="647" type="line" smooth="yes"/>
      <point x="764" y="647"/>
      <point x="822" y="605"/>
    </contour>
  </outline>
</glyph>
<glyph name="C_H" format="2">
  <advance width="1121"/>
  <unicode hex="F1410"/>
  <outline>
    <contour>
      <point x="383" y="254" type="line"/>
      <point x="410" y="254" type="line"/>
      <point x="423" y="311"/>
      <point x="458" y="332"/>
      <point x="531" y="332" type="curve" smooth="yes"/>
      <point x="967" y="332" type="line"/>
      <point x="967" y="385" type="line"/>
      <point x="531" y="385" type="line" smooth="yes"/>
      <point x="458" y="385"/>
      <point x="423" y="406"/>
      <point x="410" y="463" type="curve"/>
      <point x="383" y="463" type="line"/>
    </contour>
    <component base="C"/>
    <contour>
      <point x="798" y="0" type="line"/>
      <point x="1091" y="0" type="line"/>
      <point x="1091" y="27" type="line"/>
      <point x="1038" y="38"/>
      <point x="1004" y="57"/>
      <point x="1004" y="141" type="curve"/>
      <point x="906" y="141" type="line"/>
      <point x="906" y="57"/>
      <point x="865" y="34"/>
      <point x="798" y="27" type="curve"/>
    </contour>
    <contour>
      <point x="906" y="49" type="line"/>
      <point x="1004" y="49" type="line"/>
      <point x="1004" y="625" type="line"/>
      <point x="906" y="625" type="line"/>
    </contour>
    <contour>
      <point x="906" y="557" type="curve"/>
      <point x="1004" y="557" type="line"/>
      <point x="1004" y="643"/>
      <point x="1038" y="662"/>
      <point x="1091" y="673" type="curve"/>
      <point x="1091" y="700" type="line"/>
      <point x="798" y="700" type="line"/>
      <point x="798" y="673" type="line"/>
      <point x="865" y="666"/>
      <point x="906" y="643"/>
    </contour>
  </outline>
</glyph>
<glyph name="c_h" format="2">
  <advance width="783"/>
  <unicode hex="F1510"/>
  <outline>
    <contour>
      <point x="247" y="429" type="curve"/>
      <point x="247" y="484" type="line"/>
      <point x="107" y="484"/>
      <point x="25" y="366"/>
      <point x="25" y="232" type="curve" smooth="yes"/>
      <point x="25" y="91"/>
      <point x="116" y="-13"/>
      <point x="234" y="-13" type="curve" smooth="yes"/>
      <point x="315" y="-13"/>
      <point x="391" y="40"/>
      <point x="434" y="104" type="curve"/>
      <point x="411" y="124" type="line"/>
      <point x="376" y="91"/>
      <point x="330" y="62"/>
      <point x="275" y="62" type="curve" smooth="yes"/>
      <point x="176" y="62"/>
      <point x="118" y="156"/>
      <point x="118" y="272" type="curve" smooth="yes"/>
      <point x="118" y="366"/>
      <point x="156" y="425"/>
    </contour>
    <contour>
      <point x="323" y="178" type="line"/>
      <point x="348" y="178" type="line"/>
      <point x="411" y="228" type="line"/>
      <point x="411" y="645" type="line"/>
      <point x="323" y="645" type="line"/>
    </contour>
    <component base="empattement_haut" xOffset="267" yOffset="4"/>
    <component base="epaule" xOffset="216" identifier="EA2F4323"/>
    <component base="empattement_bas_long" xScale="-1" xOffset="785" yOffset="250"/>
  </outline>
</glyph>
<glyph name="c_q" format="2">
  <advance width="430"/>
  <unicode hex="F1540"/>
  <outline>
    <contour>
      <point x="317" y="-191" type="line"/>
      <point x="405" y="-191" type="line"/>
      <point x="405" y="103" type="line"/>
      <point x="317" y="49" type="line"/>
    </contour>
    <component base="empattement_bas_long" xScale="-1" xOffset="487"/>
    <component base="c"/>
  </outline>
</glyph>
<glyph name="D_U_D_E_L_A" format="2">
  <advance width="2470"/>
  <unicode hex="F1630"/>
  <outline>
    <component base="D"/>
    <contour>
      <point x="978" y="384" type="curve" smooth="yes"/>
      <point x="1075" y="384"/>
      <point x="1153" y="456"/>
      <point x="1153" y="542" type="curve" smooth="yes"/>
      <point x="1153" y="597" type="line" smooth="yes"/>
      <point x="1153" y="661"/>
      <point x="1171" y="672"/>
      <point x="1208" y="680" type="curve"/>
      <point x="1208" y="699" type="line"/>
      <point x="1034" y="699" type="line"/>
      <point x="1034" y="680" type="line"/>
      <point x="1080" y="675"/>
      <point x="1109" y="661"/>
      <point x="1109" y="597" type="curve" smooth="yes"/>
      <point x="1109" y="544" type="line" smooth="yes"/>
      <point x="1109" y="482"/>
      <point x="1062" y="432"/>
      <point x="993" y="432" type="curve" smooth="yes"/>
      <point x="914" y="432"/>
      <point x="870" y="491"/>
      <point x="870" y="551" type="curve" smooth="yes"/>
      <point x="870" y="647" type="line"/>
      <point x="797" y="647" type="line"/>
      <point x="797" y="541" type="line" smooth="yes"/>
      <point x="797" y="449"/>
      <point x="883" y="384"/>
    </contour>
    <contour>
      <point x="797" y="597" type="curve"/>
      <point x="870" y="597" type="line"/>
      <point x="870" y="654"/>
      <point x="895" y="675"/>
      <point x="946" y="680" type="curve"/>
      <point x="946" y="699" type="line"/>
      <point x="735" y="699" type="line"/>
      <point x="735" y="680" type="line"/>
      <point x="775" y="672"/>
      <point x="797" y="654"/>
    </contour>
    <contour>
      <point x="857" y="34" type="line"/>
      <point x="925" y="34" type="line"/>
      <point x="925" y="321" type="line"/>
      <point x="795" y="321" type="line"/>
      <point x="795" y="304" type="line"/>
      <point x="835" y="296"/>
      <point x="857" y="283"/>
      <point x="857" y="222" type="curve" smooth="yes"/>
    </contour>
    <contour>
      <point x="795" y="0" type="line"/>
      <point x="1145" y="0" type="line"/>
      <point x="1161" y="121" type="line"/>
      <point x="1143" y="124" type="line"/>
      <point x="1123" y="62"/>
      <point x="1080" y="37"/>
      <point x="999" y="37" type="curve" smooth="yes"/>
      <point x="944" y="37"/>
      <point x="925" y="67"/>
      <point x="925" y="99" type="curve"/>
      <point x="857" y="99" type="line"/>
      <point x="857" y="39"/>
      <point x="835" y="25"/>
      <point x="795" y="18" type="curve"/>
    </contour>
    <contour>
      <point x="1027" y="96" type="curve"/>
      <point x="1046" y="96" type="line"/>
      <point x="1046" y="229" type="line"/>
      <point x="1027" y="229" type="line"/>
      <point x="1022" y="190"/>
      <point x="1006" y="181"/>
      <point x="966" y="181" type="curve" smooth="yes"/>
      <point x="916" y="181" type="line"/>
      <point x="916" y="144" type="line"/>
      <point x="966" y="144" type="line" smooth="yes"/>
      <point x="1006" y="144"/>
      <point x="1021" y="138"/>
    </contour>
    <contour>
      <point x="1129" y="190" type="curve"/>
      <point x="1147" y="195" type="line"/>
      <point x="1129" y="321" type="line"/>
      <point x="901" y="321" type="line"/>
      <point x="901" y="284" type="line"/>
      <point x="998" y="284" type="line" smooth="yes"/>
      <point x="1059" y="284"/>
      <point x="1100" y="255"/>
    </contour>
    <component base="L" xOffset="1226"/>
    <component base="A" xOffset="1828"/>
  </outline>
</glyph>
<glyph name="d_u_d_e_l_a" format="2">
  <advance width="1809"/>
  <unicode hex="F1730"/>
  <outline>
    <component base="panse" xScale="-1" yScale="-1" xOffset="549" yOffset="220"/>
    <contour>
      <point x="360" y="-147" type="line"/>
      <point x="448" y="-147" type="line"/>
      <point x="448" y="665" type="line"/>
      <point x="360" y="665" type="line"/>
    </contour>
    <component base="empattement_haut" xOffset="304" yOffset="4"/>
    <component base="empattement_decale" xScale="-1" yScale="-1" xOffset="551" yOffset="223"/>
    <component base="u" yScale="0.93" xOffset="540" yOffset="294"/>
    <component base="e" yScale="0.93" xOffset="600" yOffset="-252"/>
    <contour>
      <point x="1168" y="-211" type="line"/>
      <point x="1256" y="-211" type="line"/>
      <point x="1256" y="645" type="line"/>
      <point x="1168" y="645" type="line"/>
    </contour>
    <component base="empattement_haut" xOffset="1112" yOffset="4"/>
    <component base="empattement_bas" xOffset="1076" yOffset="-250"/>
    <component base="a" xOffset="1320"/>
  </outline>
</glyph>
<glyph name="Enb" format="2">
  <advance width="567"/>
  <unicode hex="F1800"/>
  <outline>
    <contour>
      <point x="298" y="-10" type="curve" smooth="yes"/>
      <point x="381" y="-10"/>
      <point x="469" y="17"/>
      <point x="530" y="47" type="curve"/>
      <point x="552" y="215" type="line"/>
      <point x="529" y="219" type="line"/>
      <point x="483" y="117"/>
      <point x="417" y="45"/>
      <point x="330" y="45" type="curve" smooth="yes"/>
      <point x="231" y="45"/>
      <point x="154" y="106"/>
      <point x="154" y="196" type="curve" smooth="yes"/>
      <point x="154" y="273"/>
      <point x="218" y="336"/>
      <point x="304" y="336" type="curve" smooth="yes"/>
      <point x="352" y="336"/>
      <point x="390" y="301"/>
      <point x="396" y="239" type="curve"/>
      <point x="423" y="239" type="line"/>
      <point x="423" y="479" type="line"/>
      <point x="399" y="479" type="line"/>
      <point x="394" y="418"/>
      <point x="357" y="386"/>
      <point x="309" y="386" type="curve" smooth="yes"/>
      <point x="230" y="386"/>
      <point x="146" y="447"/>
      <point x="146" y="529" type="curve" smooth="yes"/>
      <point x="146" y="609"/>
      <point x="215" y="658"/>
      <point x="296" y="658" type="curve" smooth="yes"/>
      <point x="374" y="658"/>
      <point x="447" y="617"/>
      <point x="512" y="508" type="curve"/>
      <point x="535" y="516" type="line"/>
      <point x="520" y="666" type="line"/>
      <point x="458" y="697"/>
      <point x="399" y="712"/>
      <point x="319" y="712" type="curve" smooth="yes"/>
      <point x="175" y="712"/>
      <point x="47" y="640"/>
      <point x="47" y="512" type="curve" smooth="yes"/>
      <point x="47" y="433"/>
      <point x="112" y="369"/>
      <point x="180" y="349" type="curve"/>
      <point x="110" y="330"/>
      <point x="45" y="256"/>
      <point x="45" y="176" type="curve" smooth="yes"/>
      <point x="45" y="65"/>
      <point x="156" y="-10"/>
    </contour>
  </outline>
</glyph>
<glyph name="E_A" format="2">
  <advance width="1138"/>
  <unicode hex="F1810"/>
  <outline>
    <contour>
      <point x="30" y="0" type="line"/>
      <point x="715" y="0" type="line"/>
      <point x="715" y="28" type="line"/>
      <point x="623" y="32"/>
      <point x="615" y="76"/>
      <point x="640" y="140" type="curve" smooth="yes"/>
      <point x="807" y="573" type="line"/>
      <point x="779" y="573" type="line"/>
      <point x="942" y="151" type="line" smooth="yes"/>
      <point x="974" y="67"/>
      <point x="935" y="30"/>
      <point x="861" y="29" type="curve"/>
      <point x="861" y="0" type="line"/>
      <point x="1158" y="0" type="line"/>
      <point x="1158" y="27" type="line"/>
      <point x="1101" y="40"/>
      <point x="1079" y="71"/>
      <point x="1053" y="137" type="curve" smooth="yes"/>
      <point x="835" y="700" type="line"/>
      <point x="795" y="700" type="line"/>
      <point x="576" y="136" type="line" smooth="yes"/>
      <point x="545" y="55"/>
      <point x="480" y="45"/>
      <point x="397" y="45" type="curve" smooth="yes"/>
      <point x="240" y="45"/>
      <point x="216" y="83"/>
      <point x="216" y="141" type="curve"/>
      <point x="118" y="141" type="line"/>
      <point x="118" y="55"/>
      <point x="87" y="36"/>
      <point x="30" y="25" type="curve"/>
    </contour>
    <contour>
      <point x="118" y="49" type="line"/>
      <point x="216" y="49" type="line"/>
      <point x="216" y="700" type="line"/>
      <point x="30" y="700" type="line"/>
      <point x="30" y="675" type="line"/>
      <point x="87" y="664"/>
      <point x="118" y="645"/>
      <point x="118" y="559" type="curve" smooth="yes"/>
    </contour>
    <contour>
      <point x="395" y="237" type="curve"/>
      <point x="422" y="237" type="line"/>
      <point x="422" y="485" type="line"/>
      <point x="395" y="485" type="line"/>
      <point x="387" y="429"/>
      <point x="365" y="388"/>
      <point x="279" y="388" type="curve" smooth="yes"/>
      <point x="199" y="388" type="line"/>
      <point x="199" y="335" type="line"/>
      <point x="279" y="335" type="line" smooth="yes"/>
      <point x="365" y="335"/>
      <point x="386" y="297"/>
    </contour>
    <contour>
      <point x="553" y="513" type="curve"/>
      <point x="579" y="520" type="line"/>
      <point x="553" y="700" type="line"/>
      <point x="181" y="700" type="line"/>
      <point x="181" y="647" type="line"/>
      <point x="366" y="647" type="line" smooth="yes"/>
      <point x="454" y="647"/>
      <point x="512" y="605"/>
    </contour>
    <contour>
      <point x="660" y="215" type="line"/>
      <point x="928" y="215" type="line"/>
      <point x="928" y="268" type="line"/>
      <point x="660" y="268" type="line"/>
    </contour>
  </outline>
</glyph>
<glyph name="E_S_S" format="2">
  <advance width="1781"/>
  <unicode hex="F18E0"/>
  <outline>
    <contour>
      <point x="880" y="-14" type="curve" smooth="yes"/>
      <point x="1014" y="-14"/>
      <point x="1127" y="60"/>
      <point x="1127" y="184" type="curve" smooth="yes"/>
      <point x="1127" y="255"/>
      <point x="1090" y="309"/>
      <point x="1000" y="362" type="curve" smooth="yes"/>
      <point x="856" y="446" type="line" smooth="yes"/>
      <point x="801" y="478"/>
      <point x="776" y="514"/>
      <point x="776" y="558" type="curve" smooth="yes"/>
      <point x="776" y="619"/>
      <point x="820" y="658"/>
      <point x="883" y="658" type="curve" smooth="yes"/>
      <point x="961" y="658"/>
      <point x="1025" y="599"/>
      <point x="1083" y="483" type="curve" smooth="yes"/>
      <point x="1249" y="150" type="line" smooth="yes"/>
      <point x="1304" y="40"/>
      <point x="1395" y="-14"/>
      <point x="1515" y="-14" type="curve" smooth="yes"/>
      <point x="1627" y="-14"/>
      <point x="1736" y="61"/>
      <point x="1736" y="184" type="curve" smooth="yes"/>
      <point x="1736" y="254"/>
      <point x="1700" y="309"/>
      <point x="1609" y="362" type="curve" smooth="yes"/>
      <point x="1465" y="446" type="line" smooth="yes"/>
      <point x="1410" y="478"/>
      <point x="1385" y="514"/>
      <point x="1385" y="558" type="curve" smooth="yes"/>
      <point x="1385" y="619"/>
      <point x="1429" y="658"/>
      <point x="1492" y="658" type="curve" smooth="yes"/>
      <point x="1573" y="658"/>
      <point x="1637" y="600"/>
      <point x="1684" y="479" type="curve"/>
      <point x="1708" y="485" type="line"/>
      <point x="1703" y="670" type="line"/>
      <point x="1655" y="690"/>
      <point x="1595" y="713"/>
      <point x="1520" y="713" type="curve" smooth="yes"/>
      <point x="1380" y="713"/>
      <point x="1292" y="634"/>
      <point x="1292" y="529" type="curve" smooth="yes"/>
      <point x="1292" y="464"/>
      <point x="1325" y="407"/>
      <point x="1401" y="364" type="curve" smooth="yes"/>
      <point x="1561" y="273" type="line" smooth="yes"/>
      <point x="1616" y="242"/>
      <point x="1644" y="206"/>
      <point x="1644" y="154" type="curve" smooth="yes"/>
      <point x="1644" y="91"/>
      <point x="1604" y="47"/>
      <point x="1536" y="47" type="curve" smooth="yes"/>
      <point x="1446" y="47"/>
      <point x="1372" y="121"/>
      <point x="1323" y="220" type="curve" smooth="yes"/>
      <point x="1158" y="551" type="line" smooth="yes"/>
      <point x="1099" y="670"/>
      <point x="1010" y="713"/>
      <point x="902" y="713" type="curve" smooth="yes"/>
      <point x="771" y="713"/>
      <point x="683" y="634"/>
      <point x="683" y="529" type="curve" smooth="yes"/>
      <point x="683" y="464"/>
      <point x="716" y="407"/>
      <point x="792" y="364" type="curve" smooth="yes"/>
      <point x="952" y="273" type="line" smooth="yes"/>
      <point x="1006" y="242"/>
      <point x="1035" y="207"/>
      <point x="1035" y="156" type="curve" smooth="yes"/>
      <point x="1035" y="89"/>
      <point x="979" y="47"/>
      <point x="910" y="47" type="curve" smooth="yes"/>
      <point x="811" y="47"/>
      <point x="685" y="117"/>
      <point x="656" y="256" type="curve"/>
      <point x="631" y="256" type="line"/>
      <point x="588" y="139"/>
      <point x="487" y="53"/>
      <point x="371" y="53" type="curve" smooth="yes"/>
      <point x="274" y="53"/>
      <point x="216" y="95"/>
      <point x="216" y="141" type="curve" smooth="yes"/>
      <point x="216" y="333" type="line"/>
      <point x="303" y="333" type="line" smooth="yes"/>
      <point x="389" y="333"/>
      <point x="410" y="295"/>
      <point x="419" y="235" type="curve"/>
      <point x="446" y="235" type="line"/>
      <point x="446" y="483" type="line"/>
      <point x="419" y="483" type="line"/>
      <point x="411" y="427"/>
      <point x="389" y="386"/>
      <point x="303" y="386" type="curve" smooth="yes"/>
      <point x="216" y="386" type="line"/>
      <point x="216" y="647" type="line"/>
      <point x="348" y="647" type="line" smooth="yes"/>
      <point x="436" y="647"/>
      <point x="494" y="605"/>
      <point x="535" y="513" type="curve"/>
      <point x="561" y="520" type="line"/>
      <point x="535" y="700" type="line"/>
      <point x="30" y="700" type="line"/>
      <point x="30" y="675" type="line"/>
      <point x="87" y="664"/>
      <point x="118" y="645"/>
      <point x="118" y="559" type="curve" smooth="yes"/>
      <point x="118" y="141" type="line" smooth="yes"/>
      <point x="118" y="55"/>
      <point x="87" y="36"/>
      <point x="30" y="25" type="curve"/>
      <point x="30" y="0" type="line"/>
      <point x="332" y="0" type="line" smooth="yes"/>
      <point x="495" y="0"/>
      <point x="581" y="46"/>
      <point x="628" y="93" type="curve"/>
      <point x="670" y="52"/>
      <point x="749" y="-14"/>
    </contour>
  </outline>
</glyph>
<glyph name="enb" format="2">
  <advance width="410"/>
  <unicode hex="F1900"/>
  <outline>
    <contour>
      <point x="202" y="-14" type="curve" smooth="yes"/>
      <point x="297" y="-14"/>
      <point x="358" y="46"/>
      <point x="400" y="105" type="curve"/>
      <point x="379" y="123" type="line"/>
      <point x="342" y="87"/>
      <point x="302" y="57"/>
      <point x="248" y="57" type="curve" smooth="yes"/>
      <point x="196" y="57"/>
      <point x="140" y="84"/>
      <point x="140" y="137" type="curve" smooth="yes"/>
      <point x="140" y="187"/>
      <point x="191" y="214"/>
      <point x="257" y="214" type="curve" smooth="yes"/>
      <point x="306" y="214" type="line"/>
      <point x="329" y="254" type="line"/>
      <point x="322" y="272" type="line"/>
      <point x="236" y="272" type="line" smooth="yes"/>
      <point x="178" y="272"/>
      <point x="129" y="308"/>
      <point x="129" y="359" type="curve" smooth="yes"/>
      <point x="129" y="394"/>
      <point x="152" y="425"/>
      <point x="203" y="425" type="curve" smooth="yes"/>
      <point x="250" y="425"/>
      <point x="294" y="399"/>
      <point x="343" y="345" type="curve"/>
      <point x="399" y="430" type="line"/>
      <point x="344" y="472"/>
      <point x="289" y="484"/>
      <point x="236" y="484" type="curve" smooth="yes"/>
      <point x="128" y="484"/>
      <point x="35" y="425"/>
      <point x="35" y="349" type="curve" smooth="yes"/>
      <point x="35" y="293"/>
      <point x="78" y="253"/>
      <point x="146" y="236" type="curve"/>
      <point x="81" y="220"/>
      <point x="42" y="169"/>
      <point x="42" y="114" type="curve" smooth="yes"/>
      <point x="42" y="39"/>
      <point x="113" y="-14"/>
    </contour>
  </outline>
</glyph>
<glyph name="e_a" format="2">
  <advance width="834"/>
  <unicode hex="F1910"/>
  <outline>
    <contour>
      <point x="234" y="-13" type="curve" smooth="yes"/>
      <point x="297" y="-13"/>
      <point x="362" y="20"/>
      <point x="405" y="69" type="curve"/>
      <point x="418" y="19"/>
      <point x="469" y="-14"/>
      <point x="522" y="-14" type="curve" smooth="yes"/>
      <point x="587" y="-14"/>
      <point x="636" y="34"/>
      <point x="672" y="72" type="curve"/>
      <point x="669" y="117" type="line"/>
      <point x="647" y="86"/>
      <point x="606" y="52"/>
      <point x="564" y="52" type="curve" smooth="yes"/>
      <point x="526" y="52"/>
      <point x="497" y="76"/>
      <point x="497" y="113" type="curve" smooth="yes"/>
      <point x="497" y="143"/>
      <point x="512" y="168"/>
      <point x="558" y="183" type="curve" smooth="yes"/>
      <point x="670" y="220" type="line"/>
      <point x="670" y="264" type="line"/>
      <point x="513" y="214" type="line" smooth="yes"/>
      <point x="452" y="195"/>
      <point x="413" y="167"/>
      <point x="404" y="118" type="curve"/>
      <point x="366" y="80"/>
      <point x="324" y="65"/>
      <point x="285" y="65" type="curve" smooth="yes"/>
      <point x="193" y="65"/>
      <point x="128" y="149"/>
      <point x="125" y="259" type="curve"/>
      <point x="415" y="259" type="line"/>
      <point x="421" y="359"/>
      <point x="376" y="484"/>
      <point x="249" y="484" type="curve" smooth="yes"/>
      <point x="120" y="484"/>
      <point x="30" y="367"/>
      <point x="30" y="226" type="curve" smooth="yes"/>
      <point x="30" y="82"/>
      <point x="134" y="-13"/>
    </contour>
    <contour>
      <point x="127" y="304" type="line"/>
      <point x="136" y="380"/>
      <point x="174" y="434"/>
      <point x="219" y="434" type="curve" smooth="yes"/>
      <point x="285" y="434"/>
      <point x="314" y="362"/>
      <point x="314" y="304" type="curve"/>
    </contour>
    <contour>
      <point x="449" y="413" type="curve"/>
      <point x="465" y="385" type="line"/>
      <point x="504" y="408"/>
      <point x="543" y="422"/>
      <point x="572" y="422" type="curve" smooth="yes"/>
      <point x="632" y="422"/>
      <point x="654" y="389"/>
      <point x="654" y="317" type="curve" smooth="yes"/>
      <point x="654" y="63" type="line" smooth="yes"/>
      <point x="654" y="11"/>
      <point x="688" y="-14"/>
      <point x="722" y="-14" type="curve" smooth="yes"/>
      <point x="758" y="-14"/>
      <point x="798" y="22"/>
      <point x="824" y="52" type="curve"/>
      <point x="806" y="73" type="line"/>
      <point x="793" y="63"/>
      <point x="778" y="52"/>
      <point x="766" y="52" type="curve" smooth="yes"/>
      <point x="751" y="52"/>
      <point x="742" y="62"/>
      <point x="742" y="82" type="curve" smooth="yes"/>
      <point x="742" y="349" type="line" smooth="yes"/>
      <point x="742" y="431"/>
      <point x="694" y="484"/>
      <point x="619" y="484" type="curve" smooth="yes"/>
      <point x="567" y="484"/>
      <point x="502" y="457"/>
    </contour>
  </outline>
</glyph>
<glyph name="e_s_s" format="2">
  <advance width="1339"/>
  <unicode hex="F19E0"/>
  <outline>
    <contour>
      <point x="649" y="-14" type="curve" smooth="yes"/>
      <point x="747" y="-14"/>
      <point x="832" y="40"/>
      <point x="832" y="134" type="curve" smooth="yes"/>
      <point x="832" y="183"/>
      <point x="807" y="227"/>
      <point x="744" y="254" type="curve" smooth="yes"/>
      <point x="657" y="291" type="line" smooth="yes"/>
      <point x="591" y="319"/>
      <point x="576" y="344"/>
      <point x="576" y="369" type="curve" smooth="yes"/>
      <point x="576" y="402"/>
      <point x="604" y="432"/>
      <point x="654" y="432" type="curve" smooth="yes"/>
      <point x="727" y="432"/>
      <point x="801" y="339"/>
      <point x="882" y="189" type="curve" smooth="yes"/>
      <point x="976" y="15"/>
      <point x="1064" y="-14"/>
      <point x="1131" y="-14" type="curve" smooth="yes"/>
      <point x="1226" y="-14"/>
      <point x="1309" y="44"/>
      <point x="1309" y="134" type="curve" smooth="yes"/>
      <point x="1309" y="183"/>
      <point x="1284" y="227"/>
      <point x="1221" y="254" type="curve" smooth="yes"/>
      <point x="1134" y="291" type="line" smooth="yes"/>
      <point x="1068" y="319"/>
      <point x="1053" y="344"/>
      <point x="1053" y="369" type="curve" smooth="yes"/>
      <point x="1053" y="402"/>
      <point x="1080" y="432"/>
      <point x="1120" y="432" type="curve" smooth="yes"/>
      <point x="1168" y="432"/>
      <point x="1216" y="389"/>
      <point x="1251" y="348" type="curve"/>
      <point x="1288" y="448" type="line"/>
      <point x="1253" y="468"/>
      <point x="1207" y="484"/>
      <point x="1153" y="484" type="curve" smooth="yes"/>
      <point x="1052" y="484"/>
      <point x="976" y="427"/>
      <point x="976" y="339" type="curve" smooth="yes"/>
      <point x="976" y="287"/>
      <point x="1003" y="249"/>
      <point x="1073" y="219" type="curve" smooth="yes"/>
      <point x="1162" y="181" type="line" smooth="yes"/>
      <point x="1214" y="159"/>
      <point x="1234" y="139"/>
      <point x="1234" y="107" type="curve" smooth="yes"/>
      <point x="1234" y="67"/>
      <point x="1201" y="40"/>
      <point x="1156" y="40" type="curve" smooth="yes"/>
      <point x="1103" y="40"/>
      <point x="1038" y="78"/>
      <point x="943" y="248" type="curve" smooth="yes"/>
      <point x="826" y="458"/>
      <point x="749" y="484"/>
      <point x="671" y="484" type="curve" smooth="yes"/>
      <point x="567" y="484"/>
      <point x="499" y="423"/>
      <point x="499" y="339" type="curve" smooth="yes"/>
      <point x="499" y="287"/>
      <point x="526" y="249"/>
      <point x="596" y="219" type="curve" smooth="yes"/>
      <point x="685" y="181" type="line" smooth="yes"/>
      <point x="737" y="159"/>
      <point x="757" y="139"/>
      <point x="757" y="107" type="curve" smooth="yes"/>
      <point x="757" y="67"/>
      <point x="721" y="40"/>
      <point x="679" y="40" type="curve" smooth="yes"/>
      <point x="613" y="40"/>
      <point x="541" y="89"/>
      <point x="488" y="178" type="curve"/>
      <point x="459" y="181" type="line"/>
      <point x="428" y="135"/>
      <point x="362" y="65"/>
      <point x="285" y="65" type="curve" smooth="yes"/>
      <point x="193" y="65"/>
      <point x="128" y="149"/>
      <point x="125" y="259" type="curve"/>
      <point x="415" y="259" type="line"/>
      <point x="415" y="362"/>
      <point x="376" y="484"/>
      <point x="249" y="484" type="curve" smooth="yes"/>
      <point x="120" y="484"/>
      <point x="30" y="367"/>
      <point x="30" y="226" type="curve" smooth="yes"/>
      <point x="30" y="82"/>
      <point x="134" y="-13"/>
      <point x="234" y="-13" type="curve" smooth="yes"/>
      <point x="324" y="-13"/>
      <point x="393" y="39"/>
      <point x="442" y="88" type="curve"/>
      <point x="511" y="12"/>
      <point x="573" y="-14"/>
    </contour>
    <contour>
      <point x="127" y="304" type="line"/>
      <point x="136" y="380"/>
      <point x="174" y="434"/>
      <point x="219" y="434" type="curve" smooth="yes"/>
      <point x="285" y="434"/>
      <point x="314" y="362"/>
      <point x="314" y="304" type="curve"/>
    </contour>
  </outline>
</glyph>
<glyph name="F_V" format="2">
  <advance width="1114"/>
  <unicode hex="F2050"/>
  <outline>
    <contour>
      <point x="118" y="49" type="line"/>
      <point x="216" y="49" type="line"/>
      <point x="216" y="700" type="line"/>
      <point x="30" y="700" type="line"/>
      <point x="30" y="675" type="line"/>
      <point x="87" y="664"/>
      <point x="118" y="645"/>
      <point x="118" y="559" type="curve" smooth="yes"/>
    </contour>
    <contour>
      <point x="30" y="0" type="line"/>
      <point x="343" y="0" type="line"/>
      <point x="343" y="27" type="line"/>
      <point x="268" y="36"/>
      <point x="216" y="45"/>
      <point x="216" y="141" type="curve"/>
      <point x="118" y="141" type="line"/>
      <point x="118" y="55"/>
      <point x="78" y="37"/>
      <point x="30" y="27" type="curve"/>
    </contour>
    <contour>
      <point x="408" y="224" type="curve"/>
      <point x="435" y="224" type="line"/>
      <point x="435" y="482" type="line"/>
      <point x="408" y="482" type="line"/>
      <point x="400" y="425"/>
      <point x="378" y="385"/>
      <point x="292" y="385" type="curve" smooth="yes"/>
      <point x="179" y="385" type="line"/>
      <point x="179" y="332" type="line"/>
      <point x="292" y="332" type="line" smooth="yes"/>
      <point x="378" y="332"/>
      <point x="398" y="288"/>
    </contour>
    <contour>
      <point x="575" y="555" type="curve"/>
      <point x="626" y="555" type="line"/>
      <point x="626" y="700" type="line"/>
      <point x="169" y="700" type="line"/>
      <point x="169" y="647" type="line"/>
      <point x="443" y="647" type="line" smooth="yes"/>
      <point x="521" y="647"/>
      <point x="551" y="617"/>
    </contour>
    <component base="V" xOffset="472"/>
  </outline>
</glyph>
<glyph name="G_U" format="2">
  <advance width="1193"/>
  <unicode hex="F2210"/>
  <outline>
    <contour>
      <point x="406" y="-14" type="curve" smooth="yes"/>
      <point x="491" y="-14"/>
      <point x="566" y="9"/>
      <point x="654" y="49" type="curve"/>
      <point x="704" y="8"/>
      <point x="770" y="-14"/>
      <point x="841" y="-14" type="curve" smooth="yes"/>
      <point x="979" y="-14"/>
      <point x="1104" y="88"/>
      <point x="1104" y="246" type="curve" smooth="yes"/>
      <point x="1104" y="554" type="line" smooth="yes"/>
      <point x="1104" y="645"/>
      <point x="1130" y="662"/>
      <point x="1183" y="673" type="curve"/>
      <point x="1183" y="700" type="line"/>
      <point x="934" y="700" type="line"/>
      <point x="934" y="673" type="line"/>
      <point x="1001" y="666"/>
      <point x="1042" y="645"/>
      <point x="1042" y="554" type="curve" smooth="yes"/>
      <point x="1042" y="249" type="line" smooth="yes"/>
      <point x="1042" y="126"/>
      <point x="960" y="54"/>
      <point x="862" y="54" type="curve" smooth="yes"/>
      <point x="760" y="54"/>
      <point x="665" y="87"/>
      <point x="665" y="219" type="curve" smooth="yes"/>
      <point x="665" y="224" type="line" smooth="yes"/>
      <point x="665" y="309"/>
      <point x="682" y="325"/>
      <point x="730" y="335" type="curve"/>
      <point x="730" y="362" type="line"/>
      <point x="416" y="362" type="line"/>
      <point x="416" y="335" type="line"/>
      <point x="512" y="329"/>
      <point x="571" y="304"/>
      <point x="571" y="219" type="curve" smooth="yes"/>
      <point x="571" y="75" type="line"/>
      <point x="529" y="54"/>
      <point x="486" y="43"/>
      <point x="448" y="43" type="curve" smooth="yes"/>
      <point x="290" y="43"/>
      <point x="139" y="182"/>
      <point x="139" y="384" type="curve" smooth="yes"/>
      <point x="139" y="535"/>
      <point x="240" y="664"/>
      <point x="371" y="664" type="curve" smooth="yes"/>
      <point x="476" y="664"/>
      <point x="556" y="591"/>
      <point x="625" y="484" type="curve"/>
      <point x="648" y="492" type="line"/>
      <point x="626" y="664" type="line"/>
      <point x="565" y="693"/>
      <point x="479" y="714"/>
      <point x="395" y="714" type="curve" smooth="yes"/>
      <point x="188" y="714"/>
      <point x="30" y="550"/>
      <point x="30" y="351" type="curve" smooth="yes"/>
      <point x="30" y="152"/>
      <point x="188" y="-14"/>
    </contour>
  </outline>
</glyph>
<glyph name="g_u" format="2">
  <advance width="1029"/>
  <unicode hex="F2310"/>
  <outline>
    <contour>
      <point x="212" y="-264" type="curve" smooth="yes"/>
      <point x="336" y="-264"/>
      <point x="464" y="-170"/>
      <point x="464" y="-61" type="curve" smooth="yes"/>
      <point x="464" y="8"/>
      <point x="415" y="45"/>
      <point x="333" y="55" type="curve" smooth="yes"/>
      <point x="189" y="73" type="line" smooth="yes"/>
      <point x="158" y="77"/>
      <point x="146" y="93"/>
      <point x="146" y="112" type="curve" smooth="yes"/>
      <point x="146" y="132"/>
      <point x="162" y="148"/>
      <point x="188" y="169" type="curve"/>
      <point x="151" y="188" type="line"/>
      <point x="103" y="145"/>
      <point x="64" y="104"/>
      <point x="64" y="71" type="curve" smooth="yes"/>
      <point x="64" y="38"/>
      <point x="84" y="0"/>
      <point x="150" y="-7" type="curve" smooth="yes"/>
      <point x="290" y="-21" type="line" smooth="yes"/>
      <point x="357" y="-28"/>
      <point x="387" y="-58"/>
      <point x="387" y="-102" type="curve" smooth="yes"/>
      <point x="387" y="-155"/>
      <point x="322" y="-200"/>
      <point x="252" y="-200" type="curve" smooth="yes"/>
      <point x="176" y="-200"/>
      <point x="113" y="-158"/>
      <point x="113" y="-111" type="curve" smooth="yes"/>
      <point x="113" y="-74"/>
      <point x="166" y="-25"/>
      <point x="206" y="6" type="curve"/>
      <point x="165" y="15" type="line"/>
      <point x="104" y="-18"/>
      <point x="25" y="-86"/>
      <point x="25" y="-136" type="curve" smooth="yes"/>
      <point x="25" y="-216"/>
      <point x="111" y="-264"/>
    </contour>
    <contour>
      <point x="233" y="138" type="curve" smooth="yes"/>
      <point x="340" y="138"/>
      <point x="428" y="222"/>
      <point x="428" y="314" type="curve" smooth="yes"/>
      <point x="428" y="415"/>
      <point x="350" y="484"/>
      <point x="247" y="484" type="curve" smooth="yes"/>
      <point x="140" y="484"/>
      <point x="61" y="399"/>
      <point x="61" y="310" type="curve" smooth="yes"/>
      <point x="61" y="210"/>
      <point x="130" y="138"/>
    </contour>
    <contour>
      <point x="263" y="188" type="curve" smooth="yes"/>
      <point x="204" y="188"/>
      <point x="153" y="259"/>
      <point x="153" y="330" type="curve" smooth="yes"/>
      <point x="153" y="377"/>
      <point x="170" y="438"/>
      <point x="224" y="438" type="curve" smooth="yes"/>
      <point x="288" y="438"/>
      <point x="338" y="366"/>
      <point x="338" y="299" type="curve" smooth="yes"/>
      <point x="338" y="236"/>
      <point x="315" y="188"/>
    </contour>
    <contour>
      <point x="346" y="413" type="line"/>
      <point x="469" y="413" type="line" smooth="yes"/>
      <point x="538" y="413"/>
      <point x="572" y="402"/>
      <point x="572" y="315" type="curve"/>
      <point x="660" y="315" type="line"/>
      <point x="660" y="363"/>
      <point x="662" y="438"/>
      <point x="667" y="467" type="curve"/>
      <point x="646" y="484" type="line"/>
      <point x="609" y="463"/>
      <point x="515" y="470"/>
      <point x="462" y="470" type="curve" smooth="yes"/>
      <point x="320" y="470" type="line"/>
    </contour>
    <contour>
      <point x="849" y="102" type="line"/>
      <point x="937" y="102" type="line"/>
      <point x="937" y="418" type="line"/>
      <point x="849" y="418" type="line"/>
    </contour>
    <component base="epaule" xScale="-1" yScale="-1" xOffset="1059" yOffset="470"/>
    <component base="empattement_decale" xScale="-1" yScale="-1" xOffset="1040" yOffset="470"/>
    <component base="empattement_haut" xOffset="793" yOffset="-256"/>
  </outline>
</glyph>
<glyph name="L_E" format="2">
  <advance width="1053"/>
  <unicode hex="F3210"/>
  <outline>
    <contour>
      <point x="30" y="0" type="line"/>
      <point x="1010" y="0" type="line"/>
      <point x="1033" y="173" type="line"/>
      <point x="1007" y="177" type="line"/>
      <point x="979" y="88"/>
      <point x="918" y="53"/>
      <point x="802" y="53" type="curve" smooth="yes"/>
      <point x="695" y="53"/>
      <point x="668" y="95"/>
      <point x="668" y="141" type="curve"/>
      <point x="570" y="141" type="line"/>
      <point x="570" y="67"/>
      <point x="525" y="52"/>
      <point x="386" y="52" type="curve" smooth="yes"/>
      <point x="233" y="52"/>
      <point x="216" y="85"/>
      <point x="216" y="141" type="curve" smooth="yes"/>
      <point x="216" y="557" type="line" smooth="yes"/>
      <point x="216" y="643"/>
      <point x="253" y="664"/>
      <point x="303" y="673" type="curve"/>
      <point x="303" y="700" type="line"/>
      <point x="30" y="700" type="line"/>
      <point x="30" y="673" type="line"/>
      <point x="87" y="662"/>
      <point x="118" y="643"/>
      <point x="118" y="557" type="curve" smooth="yes"/>
      <point x="118" y="143" type="line" smooth="yes"/>
      <point x="118" y="57"/>
      <point x="87" y="38"/>
      <point x="30" y="27" type="curve"/>
    </contour>
    <contour>
      <point x="570" y="49" type="line"/>
      <point x="668" y="49" type="line"/>
      <point x="668" y="700" type="line"/>
      <point x="482" y="700" type="line"/>
      <point x="482" y="675" type="line"/>
      <point x="539" y="664"/>
      <point x="570" y="645"/>
      <point x="570" y="559" type="curve" smooth="yes"/>
    </contour>
    <contour>
      <point x="871" y="235" type="curve"/>
      <point x="898" y="235" type="line"/>
      <point x="898" y="483" type="line"/>
      <point x="871" y="483" type="line"/>
      <point x="863" y="427"/>
      <point x="841" y="386"/>
      <point x="755" y="386" type="curve" smooth="yes"/>
      <point x="655" y="386" type="line"/>
      <point x="655" y="333" type="line"/>
      <point x="755" y="333" type="line" smooth="yes"/>
      <point x="841" y="333"/>
      <point x="862" y="295"/>
    </contour>
    <contour>
      <point x="987" y="513" type="curve"/>
      <point x="1013" y="520" type="line"/>
      <point x="987" y="700" type="line"/>
      <point x="633" y="700" type="line"/>
      <point x="633" y="647" type="line"/>
      <point x="800" y="647" type="line" smooth="yes"/>
      <point x="888" y="647"/>
      <point x="946" y="605"/>
    </contour>
  </outline>
</glyph>
<glyph name="L_L" format="2">
  <advance width="1034"/>
  <unicode hex="F3220"/>
  <outline>
    <component base="L" xOffset="452"/>
    <contour>
      <point x="30" y="0" type="line"/>
      <point x="659" y="0" type="line"/>
      <point x="570" y="141" type="line"/>
      <point x="570" y="67"/>
      <point x="525" y="52"/>
      <point x="386" y="52" type="curve" smooth="yes"/>
      <point x="233" y="52"/>
      <point x="216" y="85"/>
      <point x="216" y="141" type="curve" smooth="yes"/>
      <point x="216" y="557" type="line" smooth="yes"/>
      <point x="216" y="643"/>
      <point x="253" y="664"/>
      <point x="303" y="673" type="curve"/>
      <point x="303" y="700" type="line"/>
      <point x="30" y="700" type="line"/>
      <point x="30" y="673" type="line"/>
      <point x="87" y="662"/>
      <point x="118" y="643"/>
      <point x="118" y="557" type="curve" smooth="yes"/>
      <point x="118" y="143" type="line" smooth="yes"/>
      <point x="118" y="57"/>
      <point x="87" y="38"/>
      <point x="30" y="27" type="curve"/>
    </contour>
  </outline>
</glyph>
<glyph name="L_U" format="2">
  <advance width="1192"/>
  <unicode hex="F3250"/>
  <outline>
    <contour>
      <point x="30" y="0" type="line"/>
      <point x="608" y="0" type="line"/>
      <point x="611" y="14" type="line"/>
      <point x="587" y="33"/>
      <point x="550" y="76"/>
      <point x="543" y="107" type="curve"/>
      <point x="526" y="110" type="line"/>
      <point x="498" y="73"/>
      <point x="435" y="53"/>
      <point x="351" y="53" type="curve" smooth="yes"/>
      <point x="244" y="53"/>
      <point x="216" y="85"/>
      <point x="216" y="141" type="curve" smooth="yes"/>
      <point x="216" y="557" type="line" smooth="yes"/>
      <point x="216" y="643"/>
      <point x="258" y="664"/>
      <point x="291" y="673" type="curve"/>
      <point x="291" y="700" type="line"/>
      <point x="30" y="700" type="line"/>
      <point x="30" y="673" type="line"/>
      <point x="87" y="662"/>
      <point x="118" y="643"/>
      <point x="118" y="557" type="curve" smooth="yes"/>
      <point x="118" y="143" type="line" smooth="yes"/>
      <point x="118" y="57"/>
      <point x="87" y="38"/>
      <point x="30" y="27" type="curve"/>
    </contour>
    <component base="U" xOffset="468"/>
  </outline>
</glyph>
<glyph name="l_e" format="2">
  <advance width="484"/>
  <unicode hex="F3311"/>
  <outline>
    <component base="empattement_haut" xOffset="22" identifier="29BC4A6C"/>
    <component base="e" xOffset="48"/>
    <contour>
      <point x="78" y="590" type="line"/>
      <point x="78" y="227" type="line"/>
      <point x="166" y="237" type="line"/>
      <point x="166" y="590" type="line"/>
    </contour>
  </outline>
</glyph>
<glyph name="l_l" format="2">
  <advance width="498"/>
  <unicode hex="F3320"/>
  <guideline x="247" y="412" angle="270"/>
  <outline>
    <contour>
      <point x="78" y="39" type="line"/>
      <point x="166" y="39" type="line"/>
      <point x="166" y="645" type="line"/>
      <point x="78" y="645" type="line"/>
    </contour>
    <contour>
      <point x="15" y="0" type="line"/>
      <point x="478" y="0" type="line"/>
      <point x="478" y="27" type="line"/>
      <point x="435" y="36"/>
      <point x="415" y="53"/>
      <point x="415" y="137" type="curve"/>
      <point x="327" y="137" type="line"/>
      <point x="327" y="53"/>
      <point x="290" y="32"/>
      <point x="247" y="32" type="curve" smooth="yes"/>
      <point x="205" y="32"/>
      <point x="166" y="53"/>
      <point x="166" y="137" type="curve"/>
      <point x="78" y="137" type="line"/>
      <point x="78" y="53"/>
      <point x="60" y="36"/>
      <point x="15" y="27" type="curve"/>
    </contour>
    <component base="empattement_haut" xOffset="22" yOffset="4"/>
    <contour>
      <point x="327" y="39" type="line"/>
      <point x="415" y="39" type="line"/>
      <point x="415" y="645" type="line"/>
      <point x="327" y="645" type="line"/>
    </contour>
    <component base="empattement_haut" xOffset="271" yOffset="4"/>
  </outline>
</glyph>
<glyph name="l_u" format="2">
  <advance width="535"/>
  <unicode hex="F3350"/>
  <outline>
    <contour>
      <point x="78" y="239" type="line"/>
      <point x="166" y="239" type="line"/>
      <point x="166" y="645" type="line"/>
      <point x="78" y="645" type="line"/>
    </contour>
    <component base="epaule" xScale="-1" yScale="-1" xOffset="565" yOffset="470"/>
    <component base="empattement_decale" xScale="-1" yScale="-1" xOffset="546" yOffset="473"/>
    <contour>
      <point x="355" y="102" type="line"/>
      <point x="443" y="102" type="line"/>
      <point x="443" y="418" type="line"/>
      <point x="355" y="418" type="line"/>
    </contour>
    <component base="empattement_haut" xOffset="22" yOffset="4"/>
    <component base="empattement_haut" xOffset="299" yOffset="-256"/>
  </outline>
</glyph>
<glyph name="M_P" format="2">
  <advance width="1181"/>
  <unicode hex="F3410"/>
  <outline>
    <contour>
      <point x="15" y="0" type="line"/>
      <point x="265" y="0" type="line"/>
      <point x="265" y="27" type="line"/>
      <point x="208" y="33"/>
      <point x="153" y="64"/>
      <point x="161" y="141" type="curve" smooth="yes"/>
      <point x="210" y="609" type="line"/>
      <point x="192" y="606" type="line"/>
      <point x="440" y="53" type="line"/>
      <point x="464" y="53" type="line"/>
      <point x="709" y="626" type="line"/>
      <point x="731" y="700" type="line"/>
      <point x="677" y="700" type="line"/>
      <point x="453" y="174" type="line"/>
      <point x="493" y="174" type="line"/>
      <point x="257" y="700" type="line"/>
      <point x="64" y="700" type="line"/>
      <point x="64" y="674" type="line"/>
      <point x="123" y="658"/>
      <point x="153" y="631"/>
      <point x="146" y="569" type="curve" smooth="yes"/>
      <point x="102" y="154" type="line" smooth="yes"/>
      <point x="93" y="68"/>
      <point x="73" y="47"/>
      <point x="15" y="27" type="curve"/>
    </contour>
    <contour>
      <point x="639" y="0" type="line"/>
      <point x="945" y="0" type="line"/>
      <point x="945" y="27" type="line"/>
      <point x="875" y="36"/>
      <point x="830" y="55"/>
      <point x="825" y="141" type="curve" smooth="yes"/>
      <point x="795" y="647" type="line"/>
      <point x="823" y="647" type="line" smooth="yes"/>
      <point x="977" y="647"/>
      <point x="1049" y="590"/>
      <point x="1049" y="484" type="curve" smooth="yes"/>
      <point x="1049" y="384"/>
      <point x="984" y="310"/>
      <point x="878" y="297" type="curve"/>
      <point x="880" y="265" type="line"/>
      <point x="1019" y="266"/>
      <point x="1151" y="359"/>
      <point x="1151" y="493" type="curve" smooth="yes"/>
      <point x="1151" y="622"/>
      <point x="1030" y="700"/>
      <point x="823" y="700" type="curve" smooth="yes"/>
      <point x="697" y="700" type="line"/>
      <point x="727" y="141" type="line" smooth="yes"/>
      <point x="732" y="55"/>
      <point x="696" y="38"/>
      <point x="639" y="27" type="curve"/>
    </contour>
  </outline>
</glyph>
<glyph name="m_p" format="2">
  <advance width="1120"/>
  <unicode hex="F3510"/>
  <outline>
    <component base="n"/>
    <component base="epaule" xOffset="274" identifier="D72FADD7"/>
    <component base="empattement_bas_long" xOffset="591"/>
    <contour>
      <point x="673" y="-138" type="line"/>
      <point x="761" y="-138" type="line"/>
      <point x="761" y="353" type="line"/>
      <point x="673" y="353" type="line"/>
    </contour>
    <component base="panse" xOffset="571"/>
  </outline>
</glyph>
<glyph name="N_N" format="2">
  <advance width="1274"/>
  <unicode hex="F3640"/>
  <outline>
    <contour>
      <point x="1126" y="0" type="line"/>
      <point x="1140" y="139" type="line"/>
      <point x="685" y="700" type="line"/>
      <point x="520" y="700" type="line"/>
      <point x="520" y="674" type="line"/>
      <point x="578" y="656"/>
      <point x="615" y="630"/>
      <point x="660" y="575" type="curve" smooth="yes"/>
    </contour>
    <contour>
      <point x="41" y="0" type="line"/>
      <point x="295" y="0" type="line"/>
      <point x="295" y="27" type="line"/>
      <point x="216" y="47"/>
      <point x="182" y="75"/>
      <point x="182" y="148" type="curve" smooth="yes"/>
      <point x="182" y="700" type="line"/>
      <point x="120" y="700" type="line"/>
      <point x="120" y="148" type="line" smooth="yes"/>
      <point x="120" y="75"/>
      <point x="98" y="40"/>
      <point x="41" y="27" type="curve"/>
    </contour>
    <contour>
      <point x="631" y="0" type="line"/>
      <point x="645" y="139" type="line"/>
      <point x="190" y="700" type="line"/>
      <point x="25" y="700" type="line"/>
      <point x="25" y="674" type="line"/>
      <point x="83" y="656"/>
      <point x="120" y="630"/>
      <point x="165" y="575" type="curve" smooth="yes"/>
    </contour>
    <contour>
      <point x="631" y="0" type="line"/>
      <point x="677" y="0" type="line"/>
      <point x="677" y="700" type="line"/>
      <point x="615" y="700" type="line"/>
      <point x="615" y="70" type="line"/>
    </contour>
    <contour>
      <point x="1126" y="0" type="line"/>
      <point x="1172" y="0" type="line"/>
      <point x="1172" y="536" type="line" smooth="yes"/>
      <point x="1172" y="622"/>
      <point x="1196" y="657"/>
      <point x="1249" y="673" type="curve"/>
      <point x="1249" y="700" type="line"/>
      <point x="997" y="700" type="line"/>
      <point x="997" y="673" type="line"/>
      <point x="1078" y="657"/>
      <point x="1110" y="622"/>
      <point x="1110" y="536" type="curve" smooth="yes"/>
      <point x="1110" y="70" type="line"/>
    </contour>
  </outline>
</glyph>
<glyph name="n_n" format="2">
  <advance width="1110"/>
  <unicode hex="F3740"/>
  <outline>
    <component base="n"/>
    <component base="n" xOffset="550"/>
    <contour>
      <point x="331" y="0" type="line"/>
      <point x="803" y="0" type="line"/>
      <point x="803" y="27" type="line"/>
      <point x="760" y="36"/>
      <point x="740" y="53"/>
      <point x="740" y="137" type="curve"/>
      <point x="652" y="137" type="line"/>
      <point x="652" y="53"/>
      <point x="611" y="32"/>
      <point x="568" y="32" type="curve" smooth="yes"/>
      <point x="526" y="32"/>
      <point x="482" y="53"/>
      <point x="482" y="137" type="curve"/>
      <point x="394" y="137" type="line"/>
      <point x="394" y="53"/>
      <point x="376" y="36"/>
      <point x="331" y="27" type="curve"/>
    </contour>
  </outline>
</glyph>
<glyph name="O_T" format="2">
  <advance width="842"/>
  <unicode hex="F3840"/>
  <outline>
    <contour>
      <point x="428" y="-14" type="curve" smooth="yes"/>
      <point x="575" y="-14"/>
      <point x="700" y="109"/>
      <point x="700" y="256" type="curve" smooth="yes"/>
      <point x="700" y="403"/>
      <point x="575" y="525"/>
      <point x="428" y="525" type="curve" smooth="yes"/>
      <point x="281" y="525"/>
      <point x="157" y="403"/>
      <point x="157" y="256" type="curve" smooth="yes"/>
      <point x="157" y="109"/>
      <point x="281" y="-14"/>
    </contour>
    <contour>
      <point x="445" y="40" type="curve" smooth="yes"/>
      <point x="352" y="40"/>
      <point x="255" y="146"/>
      <point x="255" y="278" type="curve" smooth="yes"/>
      <point x="255" y="382"/>
      <point x="325" y="470"/>
      <point x="411" y="470" type="curve" smooth="yes"/>
      <point x="492" y="470"/>
      <point x="602" y="394"/>
      <point x="602" y="233" type="curve" smooth="yes"/>
      <point x="602" y="129"/>
      <point x="532" y="40"/>
    </contour>
    <contour>
      <point x="379" y="490" type="line"/>
      <point x="477" y="490" type="line"/>
      <point x="477" y="653" type="line"/>
      <point x="379" y="653" type="line"/>
    </contour>
    <component base="mi_barre_T" xOffset="134"/>
    <component base="mi_barre_T" xScale="-1" xOffset="708"/>
  </outline>
</glyph>
<glyph name="O_Idieresis" format="2">
  <advance width="776"/>
  <unicode hex="F3870"/>
  <outline>
    <contour>
      <point x="348" y="221" type="line"/>
      <point x="428" y="221" type="line"/>
      <point x="428" y="466" type="line"/>
      <point x="348" y="466" type="line"/>
    </contour>
    <contour>
      <point x="285" y="180" type="line"/>
      <point x="490" y="180" type="line"/>
      <point x="490" y="201" type="line"/>
      <point x="456" y="210"/>
      <point x="428" y="226"/>
      <point x="428" y="296" type="curve"/>
      <point x="348" y="296" type="line"/>
      <point x="348" y="226"/>
      <point x="323" y="210"/>
      <point x="285" y="201" type="curve"/>
    </contour>
    <contour>
      <point x="348" y="412" type="curve"/>
      <point x="428" y="412" type="line"/>
      <point x="428" y="482"/>
      <point x="456" y="498"/>
      <point x="490" y="507" type="curve"/>
      <point x="490" y="529" type="line"/>
      <point x="285" y="529" type="line"/>
      <point x="285" y="507" type="line"/>
      <point x="323" y="498"/>
      <point x="348" y="482"/>
    </contour>
    <component base="Odieresis"/>
  </outline>
</glyph>
<glyph name="o_f" format="2">
  <advance width="611"/>
  <unicode hex="F3910"/>
  <outline>
    <component base="o"/>
    <contour>
      <point x="454" y="470" type="line"/>
      <point x="470" y="413" type="line"/>
      <point x="595" y="413" type="line"/>
      <point x="619" y="452" type="line"/>
      <point x="612" y="470" type="line"/>
    </contour>
    <component base="f-haut" xOffset="300"/>
    <contour>
      <point x="476" y="468" type="line"/>
      <point x="388" y="468" type="line"/>
      <point x="388" y="224" type="line"/>
      <point x="476" y="224" type="line"/>
    </contour>
  </outline>
</glyph>
<glyph name="o_t" format="2">
  <advance width="801"/>
  <unicode hex="F3940"/>
  <outline>
    <component base="o"/>
    <contour>
      <point x="586" y="113" type="line"/>
      <point x="674" y="127" type="line"/>
      <point x="674" y="456" type="line"/>
      <point x="586" y="456" type="line"/>
    </contour>
    <contour>
      <point x="522" y="413" type="line"/>
      <point x="787" y="413" type="line"/>
      <point x="811" y="451" type="line"/>
      <point x="804" y="470" type="line"/>
      <point x="675" y="470" type="line"/>
      <point x="675" y="580" type="line"/>
      <point x="646" y="580" type="line"/>
      <point x="516" y="440" type="line"/>
    </contour>
    <contour>
      <point x="586" y="120" type="line" smooth="yes"/>
      <point x="586" y="65"/>
      <point x="554" y="40"/>
      <point x="511" y="40" type="curve" smooth="yes"/>
      <point x="470" y="40"/>
      <point x="437" y="61"/>
      <point x="415" y="89" type="curve"/>
      <point x="385" y="43" type="line"/>
      <point x="420" y="7"/>
      <point x="468" y="-14"/>
      <point x="521" y="-14" type="curve" smooth="yes"/>
      <point x="571" y="-14"/>
      <point x="674" y="8"/>
      <point x="674" y="106" type="curve" smooth="yes"/>
      <point x="674" y="345" type="line"/>
      <point x="586" y="345" type="line"/>
    </contour>
  </outline>
</glyph>
<glyph name="o_idieresis" format="2">
  <advance width="757"/>
  <unicode hex="F3970"/>
  <outline>
    <component base="o" identifier="8413CDDB"/>
    <contour>
      <point x="592" y="120" type="line" smooth="yes"/>
      <point x="592" y="65"/>
      <point x="560" y="40"/>
      <point x="517" y="40" type="curve" smooth="yes"/>
      <point x="476" y="40"/>
      <point x="443" y="61"/>
      <point x="421" y="89" type="curve"/>
      <point x="391" y="43" type="line"/>
      <point x="426" y="7"/>
      <point x="474" y="-14"/>
      <point x="527" y="-14" type="curve" smooth="yes"/>
      <point x="577" y="-14"/>
      <point x="680" y="8"/>
      <point x="680" y="106" type="curve" smooth="yes"/>
      <point x="680" y="345" type="line"/>
      <point x="592" y="345" type="line"/>
    </contour>
    <component base="empattement_haut" xOffset="536" yOffset="-256" identifier="AC1C9966"/>
    <component base="dieresiscomb" xOffset="467" identifier="E243D39E"/>
  </outline>
</glyph>
<glyph name="P_M" format="2">
  <advance width="1174"/>
  <unicode hex="F4010"/>
  <outline>
    <contour>
      <point x="30" y="0" type="line"/>
      <point x="343" y="0" type="line"/>
      <point x="343" y="27" type="line"/>
      <point x="266" y="36"/>
      <point x="216" y="55"/>
      <point x="216" y="141" type="curve" smooth="yes"/>
      <point x="216" y="647" type="line"/>
      <point x="244" y="647" type="line" smooth="yes"/>
      <point x="398" y="647"/>
      <point x="470" y="590"/>
      <point x="470" y="484" type="curve" smooth="yes"/>
      <point x="470" y="384"/>
      <point x="405" y="310"/>
      <point x="293" y="297" type="curve"/>
      <point x="295" y="265" type="line"/>
      <point x="394" y="266"/>
      <point x="486" y="309"/>
      <point x="532" y="384" type="curve"/>
      <point x="680" y="53" type="line"/>
      <point x="704" y="53" type="line"/>
      <point x="949" y="626" type="line"/>
      <point x="917" y="700" type="line"/>
      <point x="712" y="220" type="line"/>
      <point x="570" y="538" type="line" smooth="yes"/>
      <point x="522" y="646"/>
      <point x="434" y="700"/>
      <point x="244" y="700" type="curve" smooth="yes"/>
      <point x="30" y="700" type="line"/>
      <point x="30" y="673" type="line"/>
      <point x="87" y="662"/>
      <point x="118" y="643"/>
      <point x="118" y="557" type="curve" smooth="yes"/>
      <point x="118" y="141" type="line" smooth="yes"/>
      <point x="118" y="55"/>
      <point x="87" y="38"/>
      <point x="30" y="27" type="curve"/>
    </contour>
    <contour>
      <point x="877" y="0" type="line"/>
      <point x="1164" y="0" type="line"/>
      <point x="1164" y="27" type="line"/>
      <point x="1108" y="38"/>
      <point x="1079" y="72"/>
      <point x="1071" y="141" type="curve" smooth="yes"/>
      <point x="1020" y="557" type="line" smooth="yes"/>
      <point x="1011" y="633"/>
      <point x="1050" y="662"/>
      <point x="1103" y="673" type="curve"/>
      <point x="1103" y="700" type="line"/>
      <point x="918" y="700" type="line"/>
      <point x="973" y="141" type="line" smooth="yes"/>
      <point x="981" y="55"/>
      <point x="921" y="37"/>
      <point x="877" y="27" type="curve"/>
    </contour>
  </outline>
</glyph>
<glyph name="R_I" format="2">
  <advance width="1004"/>
  <unicode hex="F4470"/>
  <outline>
    <contour>
      <point x="680" y="-11" type="curve" smooth="yes"/>
      <point x="757" y="-11"/>
      <point x="821" y="0"/>
      <point x="974" y="0" type="curve"/>
      <point x="974" y="27" type="line"/>
      <point x="921" y="38"/>
      <point x="887" y="57"/>
      <point x="887" y="143" type="curve" smooth="yes"/>
      <point x="887" y="557" type="line" smooth="yes"/>
      <point x="887" y="643"/>
      <point x="921" y="662"/>
      <point x="974" y="673" type="curve"/>
      <point x="974" y="700" type="line"/>
      <point x="701" y="700" type="line"/>
      <point x="701" y="673" type="line"/>
      <point x="758" y="662"/>
      <point x="789" y="643"/>
      <point x="789" y="557" type="curve" smooth="yes"/>
      <point x="789" y="132" type="line" smooth="yes"/>
      <point x="789" y="58"/>
      <point x="752" y="34"/>
      <point x="708" y="34" type="curve" smooth="yes"/>
      <point x="557" y="34"/>
      <point x="483" y="280"/>
      <point x="386" y="333" type="curve"/>
      <point x="473" y="358"/>
      <point x="548" y="433"/>
      <point x="548" y="522" type="curve" smooth="yes"/>
      <point x="548" y="642"/>
      <point x="412" y="700"/>
      <point x="250" y="700" type="curve" smooth="yes"/>
      <point x="30" y="700" type="line"/>
      <point x="30" y="673" type="line"/>
      <point x="87" y="662"/>
      <point x="118" y="643"/>
      <point x="118" y="557" type="curve" smooth="yes"/>
      <point x="118" y="140" type="line" smooth="yes"/>
      <point x="118" y="55"/>
      <point x="87" y="38"/>
      <point x="30" y="27" type="curve"/>
      <point x="30" y="0" type="line"/>
      <point x="317" y="0" type="line"/>
      <point x="317" y="27" type="line"/>
      <point x="266" y="36"/>
      <point x="216" y="53"/>
      <point x="216" y="140" type="curve" smooth="yes"/>
      <point x="216" y="311" type="line"/>
      <point x="245" y="311" type="line" smooth="yes"/>
      <point x="283" y="311"/>
      <point x="317" y="296"/>
      <point x="351" y="246" type="curve" smooth="yes"/>
      <point x="441" y="111" type="line" smooth="yes"/>
      <point x="505" y="16"/>
      <point x="589" y="-11"/>
    </contour>
    <contour>
      <point x="216" y="364" type="line"/>
      <point x="216" y="647" type="line"/>
      <point x="239" y="647" type="line" smooth="yes"/>
      <point x="377" y="647"/>
      <point x="448" y="600"/>
      <point x="448" y="514" type="curve" smooth="yes"/>
      <point x="448" y="431"/>
      <point x="381" y="364"/>
      <point x="254" y="364" type="curve" smooth="yes"/>
    </contour>
  </outline>
</glyph>
